SplineFontDB: 3.0
FontName: ThiruValluvar-Italic
FullName: ThiruValluvar Italic
FamilyName: ThiruValluvar
Weight: Book
Copyright: Copyright (c) 1995-2015, NLCI (http://www.nlci.in/fonts/) Derived from TAM ThiruValluvar Italic by ttfbuilder v0.33
Version: 1.0 Thu May 04 13:34:21 1995
ItalicAngle: 12
UnderlinePosition: -532
UnderlineWidth: 40
Ascent: 1638
Descent: 410
InvalidEm: 0
sfntRevision: 0x00010000
LayerCount: 2
Layer: 0 0 "Back" 1
Layer: 1 0 "Fore" 0
XUID: [1021 988 563152900 5271799]
StyleMap: 0x0041
FSType: 0
OS2Version: 1
OS2_WeightWidthSlopeOnly: 0
OS2_UseTypoMetrics: 0
CreationTime: 1547921071
ModificationTime: 1547921083
PfmFamily: 17
TTFWeight: 400
TTFWidth: 5
LineGap: 0
VLineGap: 0
Panose: 2 0 0 3 0 0 0 0 0 0
OS2TypoAscent: 1942
OS2TypoAOffset: 0
OS2TypoDescent: -735
OS2TypoDOffset: 0
OS2TypoLinegap: 0
OS2WinAscent: 1942
OS2WinAOffset: 0
OS2WinDescent: 735
OS2WinDOffset: 0
HheadAscent: 1942
HheadAOffset: 0
HheadDescent: -735
HheadDOffset: 0
OS2SubXSize: 1434
OS2SubYSize: 1331
OS2SubXOff: 0
OS2SubYOff: 293
OS2SupXSize: 1434
OS2SupYSize: 1331
OS2SupXOff: 0
OS2SupYOff: 928
OS2StrikeYSize: 102
OS2StrikeYPos: 530
OS2Vendor: 'Alts'
OS2CodePages: 20000001.00000000
OS2UnicodeRanges: a01080ff.520021cb.08000028.00000000
Lookup: 260 0 0 "_holdAnchorsbase" { "_someAnchorsbase"  } []
DEI: 91125
ShortTable: maxp 16
  1
  0
  243
  228
  12
  354
  16
  1
  0
  0
  0
  0
  3
  0
  3
  2
EndShort

StartChar: .notdef
Encoding: 0 -1 0
Width: 1024
Flags: HW
LayerCount: 2
Fore
SplineSet
64 0 m 1
 64 1536 l 1
 960 1536 l 1
 960 0 l 1
 64 0 l 1
896 64 m 1
 896 1472 l 1
 128 1472 l 1
 128 64 l 1
 896 64 l 1
EndSplineSet
EndChar

StartChar: exclam.taml
Encoding: 4 -1 4
Width: 656
Flags: HW
LayerCount: 2
Fore
SplineSet
561 922 m 0
 603.666666667 922 625 895 625 841 c 0
 625 823 622.333333333 800 617 772 c 1
 494 414 l 1
 404 144 l 1
 390 144 l 1
 414 414 l 1
 443 772 l 1
 464.333333333 872 503.666666667 922 561 922 c 0
367 17 m 0
 390.333333333 17 408.666666667 9 422 -7 c 0
 430.666666667 -18.3333333333 435 -32 435 -48 c 0
 435 -52 434.333333333 -58 433 -66 c 0
 428.333333333 -90 416 -110.666666667 396 -128 c 128
 376 -145.333333333 354.666666667 -154 332 -154 c 0
 310 -154 292.333333333 -145.333333333 279 -128 c 0
 269.666666667 -116.666666667 265 -103 265 -87 c 0
 265 -77.6666666667 265.666666667 -70.6666666667 267 -66 c 0
 271.666666667 -44.6666666667 283.666666667 -25.3333333333 303 -8 c 0
 323.666666667 8.66666666667 345 17 367 17 c 0
EndSplineSet
EndChar

StartChar: quoteleft.taml
Encoding: 5 -1 5
Width: 512
Flags: HW
LayerCount: 2
Fore
SplineSet
644 1327 m 1
 569.333333333 1303.66666667 505.666666667 1263 453 1205 c 0
 409.666666667 1157.66666667 388 1119.66666667 388 1091 c 0
 388 1087 389.333333333 1083.66666667 392 1081 c 0
 398 1075.66666667 405.333333333 1073 414 1073 c 0
 423.333333333 1073 439 1079.66666667 461 1093 c 128
 483 1106.33333333 500.666666667 1113 514 1113 c 0
 522 1113 528.333333333 1112.16666667 533 1110.5 c 128
 537.666666667 1108.83333333 543.666666667 1105.33333333 551 1100 c 0
 577 1078.66666667 590 1049.66666667 590 1013 c 0
 590 995.666666667 586.833333333 978.5 580.5 961.5 c 128
 574.166666667 944.5 564.666666667 929 552 915 c 0
 536.666666667 895.666666667 519.166666667 881.833333333 499.5 873.5 c 128
 479.833333333 865.166666667 458.333333333 861 435 861 c 0
 423 861 411 862 399 864 c 0
 367 868 342.833333333 883.5 326.5 910.5 c 128
 310.166666667 937.5 302 969.333333333 302 1006 c 0
 302 1041.33333333 308.666666667 1073.33333333 322 1102 c 0
 350.666666667 1171.33333333 394 1230.66666667 452 1280 c 0
 492 1314 538.666666667 1342 592 1364 c 0
 627.333333333 1378.66666667 649 1386 657 1386 c 1
 644 1327 l 1
EndSplineSet
EndChar

StartChar: u20A8
Encoding: 6 8360 6
Width: 1638
Flags: HW
LayerCount: 2
Fore
SplineSet
1462 176 m 0
 1457.33333333 152 1448.33333333 129.333333333 1435 108 c 128
 1421.66666667 86.6666666667 1405 67.6666666667 1385 51 c 0
 1335.66666667 9 1281.33333333 -12 1222 -12 c 0
 1205.33333333 -12 1192.5 -11.5 1183.5 -10.5 c 128
 1174.5 -9.5 1161.16666667 -7.16666666667 1143.5 -3.5 c 128
 1125.83333333 0.166666666667 1108.5 3.66666666667 1091.5 7 c 128
 1074.5 10.3333333333 1063 12 1057 12 c 0
 1041.66666667 12 1030.66666667 7.33333333333 1024 -2 c 1
 1068 205 l 1
 1068.66666667 173.666666667 1072.66666667 146.666666667 1080 124 c 128
 1087.33333333 101.333333333 1097.33333333 81.5 1110 64.5 c 128
 1122.66666667 47.5 1139.33333333 34.5 1160 25.5 c 128
 1180.66666667 16.5 1204 12 1230 12 c 0
 1249.33333333 12 1269.16666667 17.1666666667 1289.5 27.5 c 128
 1309.83333333 37.8333333333 1327.66666667 51.6666666667 1343 69 c 0
 1350.33333333 77.6666666667 1356.5 86 1361.5 94 c 128
 1366.5 102 1369.83333333 110.166666667 1371.5 118.5 c 128
 1373.16666667 126.833333333 1374 134.666666667 1374 142 c 0
 1374 163.333333333 1367.16666667 182.166666667 1353.5 198.5 c 128
 1339.83333333 214.833333333 1317.66666667 232.666666667 1287 252 c 0
 1269 263.333333333 1252.66666667 273 1238 281 c 0
 1232.66666667 283.666666667 1221 290.666666667 1203 302 c 0
 1180.33333333 315.333333333 1164 326.333333333 1154 335 c 0
 1142 346.333333333 1132.5 358.833333333 1125.5 372.5 c 128
 1118.5 386.166666667 1115 402 1115 420 c 0
 1115 430.666666667 1116.66666667 443.666666667 1120 459 c 0
 1126 488.333333333 1136.83333333 514.5 1152.5 537.5 c 128
 1168.16666667 560.5 1187.66666667 579.666666667 1211 595 c 0
 1247 617.666666667 1286.66666667 629 1330 629 c 0
 1352.66666667 629 1384.33333333 624.666666667 1425 616 c 0
 1443.66666667 612 1456.66666667 610 1464 610 c 0
 1479.33333333 610 1490.66666667 616.333333333 1498 629 c 1
 1518 629 l 1
 1477 436 l 1
 1459 436 l 1
 1459 466 1455.66666667 493.666666667 1449 519 c 0
 1445 537.666666667 1439.16666667 552.666666667 1431.5 564 c 128
 1423.83333333 575.333333333 1413.66666667 584.666666667 1401 592 c 0
 1381.66666667 604 1355.33333333 610 1322 610 c 0
 1308.66666667 610 1294.83333333 607.666666667 1280.5 603 c 128
 1266.16666667 598.333333333 1252.33333333 592 1239 584 c 0
 1213 566 1197 544 1191 518 c 0
 1189 508.666666667 1188 500.666666667 1188 494 c 0
 1188 478 1191.83333333 463.666666667 1199.5 451 c 128
 1207.16666667 438.333333333 1217.66666667 426.666666667 1231 416 c 0
 1240.33333333 408.666666667 1252.33333333 400.666666667 1267 392 c 0
 1269 390.666666667 1293 378 1339 354 c 0
 1357.66666667 343.333333333 1372.83333333 334.166666667 1384.5 326.5 c 128
 1396.16666667 318.833333333 1408.66666667 308.666666667 1422 296 c 128
 1435.33333333 283.333333333 1445.83333333 269.666666667 1453.5 255 c 128
 1461.16666667 240.333333333 1465 223.666666667 1465 205 c 0
 1465 195.666666667 1464 186 1462 176 c 0
917 8 m 1
 682 8 l 1
 463 442 l 1
 357 438 l 1
 298 164 l 2
 291.333333333 131.333333333 288 105.666666667 288 87 c 256
 288 68.3333333333 290.833333333 55.1666666667 296.5 47.5 c 128
 302.166666667 39.8333333333 310.333333333 35.1666666667 321 33.5 c 128
 331.666666667 31.8333333333 347.666666667 31 369 31 c 2
 400 31 l 1
 395 8 l 1
 20 8 l 1
 25 31 l 1
 46 31 l 2
 71.3333333333 31 89.6666666667 32.5 101 35.5 c 128
 112.333333333 38.5 123 44.1666666667 133 52.5 c 128
 143 60.8333333333 152.666666667 74.3333333333 162 93 c 128
 171.333333333 111.666666667 179 135.333333333 185 164 c 2
 313 766 l 2
 318.333333333 792.666666667 321 812.666666667 321 826 c 0
 321 844 317 858.666666667 309 870 c 0
 302.333333333 878 292.166666667 883.166666667 278.5 885.5 c 128
 264.833333333 887.833333333 248 889 228 889 c 2
 203 887 l 1
 208 913 l 1
 532 913 l 2
 616 913 683.333333333 907 734 895 c 128
 784.666666667 883 821.666666667 862 845 832 c 0
 861.666666667 809.333333333 870 780.666666667 870 746 c 0
 870 728.666666667 868 710 864 690 c 0
 857.333333333 660.666666667 846 633.333333333 830 608 c 128
 814 582.666666667 792 559 764 537 c 0
 742 519.666666667 715.666666667 503.833333333 685 489.5 c 128
 654.333333333 475.166666667 620 463.666666667 582 455 c 1
 608 405 608 405 634 355 c 0
 671.333333333 283.666666667 705.333333333 221 736 167 c 0
 775.333333333 97 799 59.6666666667 807 55 c 0
 815.666666667 48.3333333333 825.666666667 43.3333333333 837 40 c 0
 841.666666667 38.6666666667 869.333333333 33.6666666667 920 25 c 1
 917 8 l 1
726 668 m 0
 730 686 732 704.333333333 732 723 c 0
 732 742.333333333 729.833333333 759.5 725.5 774.5 c 128
 721.166666667 789.5 713.333333333 803.666666667 702 817 c 0
 687.333333333 835 666.166666667 849 638.5 859 c 128
 610.833333333 869 576 874 534 874 c 0
 518.666666667 874 506.666666667 873.5 498 872.5 c 128
 489.333333333 871.5 472.666666667 868.666666667 448 864 c 1
 365 475 l 1
 373 473.666666667 380.5 473 387.5 473 c 128
 398 473 398 473 410 473 c 0
 440 473 468.833333333 475.833333333 496.5 481.5 c 128
 524.166666667 487.166666667 550.666666667 495.666666667 576 507 c 0
 661.333333333 545 711.333333333 598.666666667 726 668 c 0
EndSplineSet
EndChar

StartChar: percent.taml
Encoding: 7 -1 7
Width: 1190
Flags: HW
LayerCount: 2
Fore
SplineSet
1090 322 m 0
 1076 254.666666667 1053.66666667 198.666666667 1023 154 c 128
 992.333333333 109.333333333 959.333333333 77.3333333333 924 58 c 128
 888.666666667 38.6666666667 854.333333333 29 821 29 c 0
 783 29 748.333333333 45 717 77 c 0
 700.333333333 95.6666666667 692 125.666666667 692 167 c 0
 692 195.666666667 696.666666667 232.333333333 706 277 c 0
 718 333 735.166666667 381.166666667 757.5 421.5 c 128
 779.833333333 461.833333333 803.166666667 493 827.5 515 c 128
 851.833333333 537 876.833333333 553.333333333 902.5 564 c 128
 928.166666667 574.666666667 951 580 971 580 c 0
 1015.66666667 580 1052 561.333333333 1080 524 c 0
 1096 502.666666667 1104 472 1104 432 c 0
 1104 403.333333333 1099.33333333 366.666666667 1090 322 c 0
1092 1032 m 1
 288 25 l 1
 206 25 l 1
 1008 1032 l 1
 1092 1032 l 1
601 785 m 0
 585 711 561.166666667 651.5 529.5 606.5 c 128
 497.833333333 561.5 464.833333333 529.5 430.5 510.5 c 128
 396.166666667 491.5 364.666666667 482 336 482 c 0
 308 482 282.666666667 488.833333333 260 502.5 c 128
 237.333333333 516.166666667 220.666666667 542.333333333 210 581 c 0
 206.666666667 593.666666667 205 611.666666667 205 635 c 0
 205 665 209 700 217 740 c 0
 232.333333333 808.666666667 254.666666667 864.5 284 907.5 c 128
 313.333333333 950.5 346.166666667 982 382.5 1002 c 128
 418.833333333 1022 453 1032 485 1032 c 0
 525 1032 559.666666667 1016.33333333 589 985 c 0
 606.333333333 966.333333333 615 936.333333333 615 895 c 0
 615 866.333333333 610.333333333 829.666666667 601 785 c 0
992 244 m 0
 1000.66666667 287.333333333 1005 321.666666667 1005 347 c 0
 1005 377.666666667 1000 402.666666667 990 422 c 0
 972 458.666666667 942 477 900 477 c 0
 875.333333333 477 856.166666667 469.833333333 842.5 455.5 c 128
 828.833333333 441.166666667 817.666666667 414.5 809 375.5 c 128
 800.333333333 336.5 796 301.333333333 796 270 c 0
 796 238 800.333333333 212 809 192 c 0
 826.333333333 151.333333333 857.666666667 131 903 131 c 0
 946.333333333 131 976 168.666666667 992 244 c 0
499 686 m 0
 507.666666667 724.666666667 512 760 512 792 c 0
 512 823.333333333 507.666666667 849 499 869 c 0
 481 909.666666667 449.666666667 930 405 930 c 0
 361.666666667 930 332 892.333333333 316 817 c 0
 307.333333333 779.666666667 303 745.666666667 303 715 c 256
 303 684.333333333 308 659 318 639 c 0
 336.666666667 602.333333333 366.333333333 584 407 584 c 0
 452.333333333 584 483 618 499 686 c 0
EndSplineSet
EndChar

StartChar: ampersand.taml
Encoding: 8 -1 8
Width: 1034
Flags: HW
LayerCount: 2
Fore
SplineSet
803 586 m 1
 1073 586 l 1
 1067 561 l 1
 1034.33333333 561 1005 553 979 537 c 0
 953 518.333333333 917 477.333333333 871 414 c 0
 847 382.666666667 820.833333333 350.5 792.5 317.5 c 128
 764.166666667 284.5 733.666666667 251.666666667 701 219 c 1
 723.666666667 181.666666667 751.666666667 150.333333333 785 125 c 0
 797 116.333333333 810.166666667 109.833333333 824.5 105.5 c 128
 838.833333333 101.166666667 853.666666667 99 869 99 c 0
 898.333333333 99 925.333333333 107.666666667 950 125 c 128
 974.666666667 142.333333333 994 165.666666667 1008 195 c 1
 1031 176 l 1
 1002.33333333 118 967.833333333 73.8333333333 927.5 43.5 c 128
 887.166666667 13.1666666667 844.333333333 -2 799 -2 c 0
 761.666666667 -2 725.333333333 7.66666666667 690 27 c 0
 662.666666667 43 629.333333333 75.6666666667 590 125 c 1
 476 39 371.333333333 -4 276 -4 c 0
 213.333333333 -4 162.333333333 16.6666666667 123 58 c 0
 98.3333333333 84.6666666667 86 117 86 155 c 0
 86 169 87.3333333333 182.333333333 90 195 c 0
 102 247.666666667 132 299.5 180 350.5 c 128
 228 401.5 310 454.666666667 426 510 c 1
 420.666666667 535.333333333 416.333333333 559.333333333 413 582 c 128
 409.666666667 604.666666667 408 625.666666667 408 645 c 0
 408 665 410 685 414 705 c 0
 427.333333333 768.333333333 460.333333333 819.666666667 513 859 c 128
 565.666666667 898.333333333 623.666666667 918 687 918 c 0
 735.666666667 918 774 903 802 873 c 0
 821.333333333 851.666666667 831 825.333333333 831 794 c 0
 831 784 830 773.333333333 828 762 c 0
 818 716 793.833333333 675.666666667 755.5 641 c 128
 717.166666667 606.333333333 653 568.333333333 563 527 c 1
 604.333333333 413 643.333333333 323.333333333 680 258 c 1
 770.666666667 346 824.666666667 422.666666667 842 488 c 0
 844 496 845 503.333333333 845 510 c 0
 845 538.666666667 829 555.666666667 797 561 c 1
 803 586 l 1
551 570 m 1
 669 622 736 686.666666667 752 764 c 0
 754 773.333333333 755 782 755 790 c 0
 755 808.666666667 749.666666667 824.666666667 739 838 c 0
 733 846.666666667 727.333333333 853.333333333 722 858 c 0
 710 868 694.666666667 873 676 873 c 0
 640.666666667 873 610.333333333 860.666666667 585 836 c 128
 559.666666667 811.333333333 544 784.666666667 538 756 c 0
 536 745.333333333 534.666666667 737 534 731 c 128
 533.333333333 725 533 715.666666667 533 703 c 0
 533 665.666666667 539 621.333333333 551 570 c 1
563 162 m 1
 526.333333333 236.666666667 500 293 484 331 c 0
 482.666666667 334.333333333 475.5 355 462.5 393 c 128
 449.5 431 441 455.666666667 437 467 c 1
 377.666666667 435.666666667 332 403 300 369 c 128
 268 335 247.666666667 296.666666667 239 254 c 0
 235 236.666666667 233 219.666666667 233 203 c 0
 233 189.666666667 234.666666667 176.833333333 238 164.5 c 128
 241.333333333 152.166666667 247 140.333333333 255 129 c 0
 281.666666667 91 315.666666667 72 357 72 c 0
 409 72 477.666666667 102 563 162 c 1
EndSplineSet
EndChar

StartChar: quoteright.taml
Encoding: 9 -1 9
Width: 512
Flags: HW
LayerCount: 2
Fore
SplineSet
546 1126 m 0
 517.333333333 1056 474.333333333 996.666666667 417 948 c 0
 377 913.333333333 330.666666667 885.333333333 278 864 c 0
 242.666666667 849.333333333 220.666666667 842 212 842 c 1
 225 901 l 1
 299.666666667 925 363.333333333 965.666666667 416 1023 c 0
 459.333333333 1070.33333333 481 1108.33333333 481 1137 c 0
 481 1141 479.666666667 1144.33333333 477 1147 c 0
 471 1152.33333333 463.666666667 1155 455 1155 c 0
 445.666666667 1155 430 1148.33333333 408 1135 c 128
 386 1121.66666667 368.333333333 1115 355 1115 c 0
 347 1115 340.666666667 1115.83333333 336 1117.5 c 128
 331.333333333 1119.16666667 325.333333333 1122.66666667 318 1128 c 0
 291.333333333 1148.66666667 278 1177.66666667 278 1215 c 0
 278 1251 290.666666667 1283.66666667 316 1313 c 0
 332 1332.33333333 349.833333333 1346.16666667 369.5 1354.5 c 128
 389.166666667 1362.83333333 410.666666667 1367 434 1367 c 0
 446 1367 463 1365.5 485 1362.5 c 128
 507 1359.5 526.666666667 1344 544 1316 c 0
 559.333333333 1291.33333333 567 1260.66666667 567 1224 c 0
 567 1190 560 1157.33333333 546 1126 c 0
EndSplineSet
EndChar

StartChar: parenleft.taml
Encoding: 10 -1 10
Width: 573
Flags: HW
LayerCount: 2
Fore
SplineSet
509 -504 m 1
 494 -518 l 1
 380.666666667 -446 295.333333333 -352 238 -236 c 0
 184 -126.666666667 157 -1.66666666667 157 139 c 0
 157 220.333333333 166 303 184 387 c 0
 225.333333333 580.333333333 302.666666667 753.666666667 416 907 c 0
 537.333333333 1071.66666667 691.666666667 1200.66666667 879 1294 c 1
 888 1282 l 1
 715.333333333 1165.33333333 574.666666667 990.666666667 466 758 c 0
 361.333333333 534.666666667 309 309.333333333 309 82 c 0
 309 -38 325.5 -148.5 358.5 -249.5 c 128
 391.5 -350.5 441.666666667 -435.333333333 509 -504 c 1
EndSplineSet
EndChar

StartChar: parenright.taml
Encoding: 11 -1 11
Width: 574
Flags: HW
LayerCount: 2
Fore
SplineSet
471 387 m 0
 451 294.333333333 422 204.333333333 384 117 c 0
 364 72.3333333333 342.166666667 29.8333333333 318.5 -10.5 c 128
 294.833333333 -50.8333333333 268 -91.3333333333 238 -132 c 0
 178.666666667 -212.666666667 111.166666667 -285 35.5 -349 c 128
 -40.1666666667 -413 -126.333333333 -469.333333333 -223 -518 c 1
 -232 -504 l 1
 -164 -455.333333333 -100.166666667 -397.333333333 -40.5 -330 c 128
 19.1666666667 -262.666666667 72 -190 118 -112 c 0
 162 -37.3333333333 201.333333333 44 236 132 c 0
 251.333333333 173.333333333 265.333333333 214.833333333 278 256.5 c 128
 290.666666667 298.166666667 302.666666667 345.166666667 314 397.5 c 128
 325.333333333 449.833333333 333.5 504.166666667 338.5 560.5 c 128
 343.5 616.833333333 346 676.333333333 346 739 c 0
 346 796.333333333 341.5 849.833333333 332.5 899.5 c 128
 323.5 949.166666667 309.666666667 999.666666667 291 1051 c 0
 257.666666667 1146.33333333 209.666666667 1223.33333333 147 1282 c 1
 162 1295 l 1
 235.333333333 1248.33333333 297.333333333 1191.5 348 1124.5 c 128
 398.666666667 1057.5 435.666666667 985.666666667 459 909 c 0
 471 870.333333333 480.666666667 829.833333333 488 787.5 c 128
 495.333333333 745.166666667 499 702.333333333 499 659 c 0
 499 610.333333333 496.833333333 564.833333333 492.5 522.5 c 128
 488.166666667 480.166666667 481 435 471 387 c 0
EndSplineSet
EndChar

StartChar: asterisk.taml
Encoding: 12 -1 12
Width: 1229
Flags: HW
LayerCount: 2
Fore
SplineSet
775 821 m 1
 739 801.666666667 699 773.333333333 655 736 c 0
 593.666666667 684 562.666666667 657.666666667 562 657 c 0
 548 647 532.333333333 642 515 642 c 0
 490.333333333 642 474.333333333 652 467 672 c 0
 465 677.333333333 464 683.333333333 464 690 c 0
 464 705.333333333 469.166666667 720.333333333 479.5 735 c 128
 489.833333333 749.666666667 503.333333333 759.333333333 520 764 c 0
 521.333333333 764.666666667 567 776.666666667 657 800 c 0
 698.333333333 810.666666667 735 824 767 840 c 1
 744.333333333 852 713 863.666666667 673 875 c 0
 615.666666667 891 575.333333333 903 552 911 c 0
 542 915.666666667 534.5 922.166666667 529.5 930.5 c 128
 524.5 938.833333333 522 948.333333333 522 959 c 0
 522 975.666666667 527.333333333 991.333333333 538 1006 c 0
 556 1026 577.666666667 1036 603 1036 c 0
 618.333333333 1036 630.333333333 1031.33333333 639 1022 c 0
 676.333333333 972 701.333333333 938.666666667 714 922 c 0
 734.666666667 895.333333333 757.333333333 872.666666667 782 854 c 1
 784 866 785.333333333 877.833333333 786 889.5 c 128
 786.666666667 901.166666667 787 914.333333333 787 929 c 0
 787 946.333333333 786.166666667 974.166666667 784.5 1012.5 c 128
 782.833333333 1050.83333333 782 1078.66666667 782 1096 c 1
 786.666666667 1118 796.5 1135.66666667 811.5 1149 c 128
 826.5 1162.33333333 842.666666667 1169 860 1169 c 0
 874 1169 885.333333333 1164 894 1154 c 128
 902.666666667 1144 907 1130.66666667 907 1114 c 0
 907 1110 906.333333333 1103.33333333 905 1094 c 1
 883 1048.66666667 861.333333333 1003.66666667 840 959 c 0
 823.333333333 923 811 889.333333333 803 858 c 1
 834.333333333 875.333333333 875.333333333 904.666666667 926 946 c 0
 970.666666667 982.666666667 1002 1008 1020 1022 c 0
 1031.33333333 1029.33333333 1043.66666667 1033 1057 1033 c 0
 1083 1033 1100.66666667 1023.33333333 1110 1004 c 0
 1111.33333333 997.333333333 1112 991.666666667 1112 987 c 0
 1112 969.666666667 1106.66666667 953.666666667 1096 939 c 128
 1085.33333333 924.333333333 1072 915 1056 911 c 0
 985.333333333 893.666666667 938.333333333 882.333333333 915 877 c 0
 877.666666667 867.666666667 842.666666667 855.333333333 810 840 c 1
 836.666666667 823.333333333 874.333333333 808 923 794 c 0
 965.666666667 782 999.333333333 772 1024 764 c 0
 1034 761.333333333 1041.66666667 756 1047 748 c 128
 1052.33333333 740 1055 730.333333333 1055 719 c 0
 1055 703.666666667 1050.33333333 689.333333333 1041 676 c 0
 1023.66666667 654 1001.66666667 643 975 643 c 0
 961 643 950.333333333 647.666666667 943 657 c 0
 924.333333333 676.333333333 898 707 864 749 c 0
 839.333333333 779 816.333333333 801.666666667 795 817 c 1
 792.333333333 804.333333333 790.666666667 793.166666667 790 783.5 c 128
 789.333333333 773.833333333 789 762.666666667 789 750 c 0
 789 748 790.666666667 718 794 660 c 0
 795.333333333 636.666666667 796 610.666666667 796 582 c 1
 791.333333333 560 781.833333333 541.833333333 767.5 527.5 c 128
 753.166666667 513.166666667 737.333333333 506 720 506 c 0
 706 506 694.333333333 511 685 521 c 128
 675.666666667 531 671 544.666666667 671 562 c 0
 671 566 671.666666667 572.666666667 673 582 c 0
 685 610.666666667 704.666666667 654.333333333 732 713 c 0
 752.666666667 757 767 793 775 821 c 1
EndSplineSet
EndChar

StartChar: plus.taml
Encoding: 13 -1 13
Width: 860
Flags: HW
LayerCount: 2
Fore
SplineSet
474 531 m 1
 506 684 l 1
 645 684 l 1
 613 531 l 1
 767 531 l 1
 737 391 l 1
 583 391 l 1
 551 238 l 1
 412 238 l 1
 444 391 l 1
 290 391 l 1
 320 531 l 1
 474 531 l 1
EndSplineSet
EndChar

StartChar: comma.taml
Encoding: 14 -1 14
Width: 451
Flags: HW
LayerCount: 2
Fore
SplineSet
330 70 m 0
 315.333333333 -0.666666666667 280 -63 224 -117 c 0
 184.666666667 -155 135.333333333 -188 76 -216 c 0
 33.3333333333 -236 6.33333333333 -246 -5 -246 c 1
 7 -190 l 1
 31.6666666667 -190 72.6666666667 -169 130 -127 c 0
 198.666666667 -77 238.666666667 -25 250 29 c 0
 251.333333333 35.6666666667 252 39.6666666667 252 41 c 0
 252 49 244.666666667 53 230 53 c 0
 220.666666667 53 205.166666667 46.5 183.5 33.5 c 128
 161.833333333 20.5 144.666666667 14 132 14 c 0
 114 14 97.1666666667 24.6666666667 81.5 46 c 128
 65.8333333333 67.3333333333 58 91 58 117 c 0
 58 121 58.6666666667 127.666666667 60 137 c 0
 66.6666666667 168.333333333 84.6666666667 196.333333333 114 221 c 128
 143.333333333 245.666666667 173.666666667 258 205 258 c 0
 246.333333333 258 278.666666667 243 302 213 c 0
 323.333333333 185.666666667 334 151.666666667 334 111 c 0
 334 95 332.666666667 81.3333333333 330 70 c 0
EndSplineSet
EndChar

StartChar: hyphen.taml
Encoding: 15 -1 15
Width: 819
Flags: HW
LayerCount: 2
Fore
SplineSet
718 391 m 1
 145 391 l 1
 176 535 l 1
 749 535 l 1
 718 391 l 1
EndSplineSet
EndChar

StartChar: period.taml
Encoding: 16 -1 16
Width: 451
Flags: HW
LayerCount: 2
Fore
SplineSet
340 127 m 0
 332.666666667 91.6666666667 313.333333333 61.6666666667 282 37 c 128
 250.666666667 12.3333333333 217.333333333 0 182 0 c 0
 152 0 127.333333333 9.33333333333 108 28 c 128
 88.6666666667 46.6666666667 79 71 79 101 c 0
 79 109 80 117.666666667 82 127 c 0
 89.3333333333 162.333333333 108.166666667 192.333333333 138.5 217 c 128
 168.833333333 241.666666667 201.333333333 254 236 254 c 0
 267.333333333 254 293 244.333333333 313 225 c 128
 333 205.666666667 343 181.333333333 343 152 c 0
 343 143.333333333 342 135 340 127 c 0
EndSplineSet
EndChar

StartChar: slash.taml
Encoding: 18 -1 18
Width: 533
Flags: HW
LayerCount: 2
Fore
SplineSet
800 1258 m 1
 2 -193 l 1
 -80 -193 l 1
 720 1258 l 1
 800 1258 l 1
EndSplineSet
EndChar

StartChar: zero.taml
Encoding: 19 -1 19
Width: 680
Flags: HW
LayerCount: 2
Fore
SplineSet
747 461 m 0
 733 396.333333333 709.5 327.833333333 676.5 255.5 c 128
 643.5 183.166666667 598 121 540 69 c 128
 482 17 414.666666667 -9 338 -9 c 0
 262.666666667 -9 207.333333333 17 172 69 c 0
 153.333333333 95.6666666667 139 124.5 129 155.5 c 128
 119 186.5 114 219.333333333 114 254 c 0
 114 297.333333333 115.166666667 334.666666667 117.5 366 c 128
 119.833333333 397.333333333 124.5 429.166666667 131.5 461.5 c 128
 138.5 493.833333333 147.833333333 527 159.5 561 c 128
 171.166666667 595 185.333333333 630.333333333 202 667 c 0
 235.333333333 739.666666667 280.833333333 802 338.5 854 c 128
 396.166666667 906 462.666666667 932 538 932 c 0
 615.333333333 932 671.666666667 906 707 854 c 0
 725 826.666666667 739 797.333333333 749 766 c 128
 759 734.666666667 764 701.666666667 764 667 c 0
 764 624.333333333 762.833333333 587.333333333 760.5 556 c 128
 758.166666667 524.666666667 753.666666667 493 747 461 c 0
616 461 m 0
 625.333333333 506.333333333 632.5 554.5 637.5 605.5 c 128
 642.5 656.5 645 705.666666667 645 753 c 0
 645 847.666666667 606.666666667 895 530 895 c 0
 413.333333333 895 324 750.333333333 262 461 c 0
 241.333333333 363.666666667 231 281.333333333 231 214 c 0
 231 89.3333333333 269.333333333 27 346 27 c 0
 464 27 554 171.666666667 616 461 c 0
EndSplineSet
EndChar

StartChar: one.taml
Encoding: 20 -1 20
Width: 680
Flags: HW
LayerCount: 2
Fore
SplineSet
160 0 m 1
 164 21 l 1
 187.333333333 21 207.833333333 22.5 225.5 25.5 c 128
 243.166666667 28.5 258 33.3333333333 270 40 c 0
 292 52 308 81 318 127 c 2
 449 744 l 2
 451.666666667 755.333333333 453 766.333333333 453 777 c 0
 453 780.333333333 452.333333333 784.666666667 451 790 c 0
 447.666666667 801.333333333 436 807 416 807 c 0
 404 807 371 797.333333333 317 778 c 1
 321 797 l 1
 594 922 l 1
 603 918 l 1
 429 101 l 2
 427 91 426 81.6666666667 426 73 c 0
 426 54.3333333333 431 42 441 36 c 0
 457.666666667 26 491 21 541 21 c 1
 537 0 l 1
 160 0 l 1
EndSplineSet
EndChar

StartChar: two.taml
Encoding: 21 -1 21
Width: 680
Flags: HW
LayerCount: 2
Fore
SplineSet
687 187 m 1
 572 0 l 1
 41 0 l 1
 45 17 l 1
 341 275 l 2
 487 401.666666667 571.333333333 518.333333333 594 625 c 0
 597.333333333 643 599 658.666666667 599 672 c 0
 599 702 592 730.666666667 578 758 c 0
 558 798.666666667 512 819 440 819 c 0
 387.333333333 819 343.833333333 803.333333333 309.5 772 c 128
 275.166666667 740.666666667 241.666666667 697.666666667 209 643 c 1
 181 649 l 1
 219.666666667 744.333333333 270.333333333 813.666666667 333 857 c 128
 395.666666667 900.333333333 460.666666667 922 528 922 c 0
 570 922 607.666666667 911.833333333 641 891.5 c 128
 674.333333333 871.166666667 698.666666667 842.333333333 714 805 c 0
 722.666666667 783 727 758 727 730 c 0
 727 722 726.666666667 713.333333333 726 704 c 128
 725.333333333 694.666666667 724 685.333333333 722 676 c 0
 708 612.666666667 678.666666667 554.666666667 634 502 c 0
 587.333333333 446.666666667 535 394 477 344 c 2
 196 105 l 1
 522 105 l 2
 552 105 576 110 594 120 c 128
 612 130 637.333333333 154.333333333 670 193 c 1
 687 187 l 1
EndSplineSet
EndChar

StartChar: three.taml
Encoding: 22 -1 22
Width: 680
Flags: HW
LayerCount: 2
Fore
SplineSet
651 295 m 0
 643.666666667 263 633 233.166666667 619 205.5 c 128
 605 177.833333333 587.333333333 152.333333333 566 129 c 0
 523.333333333 82.3333333333 470.833333333 46 408.5 20 c 128
 346.166666667 -6 279 -19 207 -19 c 0
 173 -19 141.833333333 -14 113.5 -4 c 128
 85.1666666667 6 71 22.3333333333 71 45 c 0
 71 48.3333333333 71.6666666667 53.3333333333 73 60 c 0
 79 91.3333333333 100 107 136 107 c 0
 148.666666667 107 161.333333333 103.666666667 174 97 c 2
 219 67 l 2
 238.333333333 53 254.5 43.1666666667 267.5 37.5 c 128
 280.5 31.8333333333 295 29 311 29 c 0
 370.333333333 29 420.5 50.1666666667 461.5 92.5 c 128
 502.5 134.833333333 529 184 541 240 c 0
 543.666666667 250.666666667 545 262.666666667 545 276 c 0
 545 311.333333333 533.333333333 346.666666667 510 382 c 0
 480 428 411 451 303 451 c 1
 307 469 l 1
 465.666666667 513 557 589.666666667 581 699 c 0
 581.666666667 704.333333333 582.5 709.666666667 583.5 715 c 128
 584.5 720.333333333 585 726.333333333 585 733 c 0
 585 757 578 778.666666667 564 798 c 0
 544 826 510.666666667 840 464 840 c 0
 374.666666667 840 296.666666667 791.666666667 230 695 c 1
 211 701 l 1
 253 782.333333333 302 839.5 358 872.5 c 128
 414 905.5 469.333333333 922 524 922 c 0
 602 922 653 901.666666667 677 861 c 0
 694.333333333 832.333333333 703 802.333333333 703 771 c 0
 703 760.333333333 702 749.333333333 700 738 c 0
 684.666666667 666 628 602.333333333 530 547 c 1
 574.666666667 526.333333333 610.333333333 498.666666667 637 464 c 0
 652.333333333 444 660 414 660 374 c 0
 660 351.333333333 657 325 651 295 c 0
EndSplineSet
EndChar

StartChar: four.taml
Encoding: 23 -1 23
Width: 680
Flags: HW
LayerCount: 2
Fore
SplineSet
710 316 m 1
 691 228 l 1
 552 228 l 1
 504 0 l 1
 400 0 l 1
 448 228 l 1
 65 228 l 1
 84 316 l 1
 641 922 l 1
 700 922 l 1
 571 316 l 1
 710 316 l 1
465 316 m 1
 561 769 l 1
 139 316 l 1
 465 316 l 1
EndSplineSet
EndChar

StartChar: five.taml
Encoding: 24 -1 24
Width: 680
Flags: HW
LayerCount: 2
Fore
SplineSet
415 795 m 1
 333 678 l 1
 403.666666667 666 462.833333333 650.833333333 510.5 632.5 c 128
 558.166666667 614.166666667 595 583 621 539 c 0
 643.666666667 502.333333333 656.333333333 469.666666667 659 441 c 0
 659.666666667 437 660 430 660 420 c 0
 660 406 658.666666667 390.166666667 656 372.5 c 128
 653.333333333 354.833333333 649.666666667 333 645 307 c 0
 633 248.333333333 606.166666667 194 564.5 144 c 128
 522.833333333 94 470.666666667 54.3333333333 408 25 c 128
 345.333333333 -4.33333333333 279.666666667 -19 211 -19 c 0
 160.333333333 -19 120.333333333 -11.3333333333 91 4 c 0
 67.6666666667 16.6666666667 56 33 56 53 c 0
 56 57.6666666667 56.3333333333 61.3333333333 57 64 c 0
 64.3333333333 99.3333333333 86.6666666667 117 124 117 c 0
 142.666666667 117 159 113 173 105 c 0
 177.666666667 103 185 98.3333333333 195 91 c 128
 205 83.6666666667 213.666666667 77 221 71 c 2
 262 39 l 2
 272.666666667 33.6666666667 286 31 302 31 c 0
 351.333333333 31 399.833333333 52.3333333333 447.5 95 c 128
 495.166666667 137.666666667 527.333333333 197.666666667 544 275 c 0
 548 295 550 314.333333333 550 333 c 0
 550 373 539 408 517 438 c 0
 485.666666667 479.333333333 441.333333333 509.666666667 384 529 c 0
 354 539 325.333333333 546.833333333 298 552.5 c 128
 270.666666667 558.166666667 243.333333333 561 216 561 c 0
 210.666666667 561 208 564 208 570 c 0
 208 572.666666667 209 576 211 580 c 2
 430 901 l 1
 714 901 l 2
 738 901 761 913.333333333 783 938 c 1
 793 928 l 1
 717 807 l 2
 711.666666667 799 700.333333333 795 683 795 c 2
 415 795 l 1
EndSplineSet
EndChar

StartChar: six.taml
Encoding: 25 -1 25
Width: 680
Flags: HW
LayerCount: 2
Fore
SplineSet
807 932 m 1
 804 910 l 1
 724.666666667 898 652 872.333333333 586 833 c 128
 520 793.666666667 464.166666667 746.166666667 418.5 690.5 c 128
 372.833333333 634.833333333 339.333333333 578.666666667 318 522 c 1
 355.333333333 544.666666667 388 560.666666667 416 570 c 128
 444 579.333333333 475.666666667 584 511 584 c 0
 559 584 599.5 572.666666667 632.5 550 c 128
 665.5 527.333333333 688.333333333 494.333333333 701 451 c 0
 707 429 710 405.333333333 710 380 c 0
 710 353.333333333 706.666666667 325.666666667 700 297 c 0
 690.666666667 253 672.833333333 207.333333333 646.5 160 c 128
 620.166666667 112.666666667 581.5 71 530.5 35 c 128
 479.5 -1 416.666666667 -19 342 -19 c 0
 257.333333333 -19 193.333333333 16.3333333333 150 87 c 0
 126 129 114 182.666666667 114 248 c 0
 114 292.666666667 120.5 345.833333333 133.5 407.5 c 128
 146.5 469.166666667 173.5 532 214.5 596 c 128
 255.5 660 306.666666667 716.666666667 368 766 c 0
 398 790 429.833333333 811.833333333 463.5 831.5 c 128
 497.166666667 851.166666667 533 868.666666667 571 884 c 128
 609 899.333333333 648 911.166666667 688 919.5 c 128
 728 927.833333333 767.666666667 932 807 932 c 1
441 520 m 0
 383.666666667 520 337.333333333 505.666666667 302 477 c 0
 278.666666667 457.666666667 260 414.666666667 246 348 c 0
 235.333333333 298.666666667 230 253.666666667 230 213 c 0
 230 170.333333333 236.666666667 133.666666667 250 103 c 0
 275.333333333 47 315.666666667 19 371 19 c 0
 415 19 454.5 37.8333333333 489.5 75.5 c 128
 524.5 113.166666667 550 169.333333333 566 244 c 0
 574.666666667 282.666666667 579 319.333333333 579 354 c 0
 579 388 574.666666667 417.666666667 566 443 c 0
 548.666666667 494.333333333 507 520 441 520 c 0
EndSplineSet
EndChar

StartChar: seven.taml
Encoding: 26 -1 26
Width: 680
Flags: HW
LayerCount: 2
Fore
SplineSet
807 911 m 1
 802 891 l 1
 324 0 l 1
 234 0 l 1
 676 811 l 1
 381 811 l 2
 341 811 310 803.5 288 788.5 c 128
 266 773.5 236.666666667 744 200 700 c 1
 178 711 l 1
 303 911 l 1
 807 911 l 1
EndSplineSet
EndChar

StartChar: eight.taml
Encoding: 27 -1 27
Width: 680
Flags: HW
LayerCount: 2
Fore
SplineSet
379 424 m 1
 342.333333333 398 310.5 369.833333333 283.5 339.5 c 128
 256.5 309.166666667 237 267 225 213 c 0
 223 200.333333333 221.666666667 191.5 221 186.5 c 128
 220.333333333 181.5 220 173.666666667 220 163 c 0
 220 147 222 131.333333333 226 116 c 0
 232 87.3333333333 246.5 64 269.5 46 c 128
 292.5 28 321.666666667 19 357 19 c 0
 401 19 439.833333333 32.8333333333 473.5 60.5 c 128
 507.166666667 88.1666666667 529 125.333333333 539 172 c 0
 541.666666667 185.333333333 543 199 543 213 c 0
 543 229.666666667 540.666666667 244 536 256 c 0
 532.666666667 267.333333333 527.166666667 278.666666667 519.5 290 c 128
 511.833333333 301.333333333 502.333333333 313 491 325 c 0
 469 348.333333333 431.666666667 381.333333333 379 424 c 1
118 199 m 0
 125.333333333 234.333333333 137.833333333 265.5 155.5 292.5 c 128
 173.166666667 319.5 195.333333333 343.333333333 222 364 c 0
 236 374 258.333333333 389.666666667 289 411 c 128
 319.666666667 432.333333333 340 446.333333333 350 453 c 1
 267 548 l 2
 251.666666667 569.333333333 240.333333333 592.666666667 233 618 c 0
 230.333333333 628 229 640.333333333 229 655 c 0
 229 671 231 689 235 709 c 0
 249 774.333333333 286.666666667 826.166666667 348 864.5 c 128
 409.333333333 902.833333333 472 922 536 922 c 0
 585.333333333 922 626.166666667 913.333333333 658.5 896 c 128
 690.833333333 878.666666667 713 855 725 825 c 0
 732.333333333 807.666666667 736 787.333333333 736 764 c 0
 736 752.666666667 735 740.333333333 733 727 c 0
 721 672.333333333 695.166666667 629.333333333 655.5 598 c 128
 615.833333333 566.666666667 565.333333333 536 504 506 c 1
 576 444 620.666666667 391.333333333 638 348 c 0
 650 320 656 290.666666667 656 260 c 0
 656 242.666666667 654 224.333333333 650 205 c 0
 638.666666667 151.666666667 607.166666667 101 555.5 53 c 128
 503.833333333 5 429.333333333 -19 332 -19 c 0
 277.333333333 -19 232.833333333 -8.66666666667 198.5 12 c 128
 164.166666667 32.6666666667 140.333333333 60 127 94 c 0
 118.333333333 115.333333333 114 138 114 162 c 0
 114 168 114.5 174.666666667 115.5 182 c 128
 116.5 189.333333333 117.333333333 195 118 199 c 0
344 746 m 0
 342 736 341 726 341 716 c 0
 341 654 384 592.333333333 470 531 c 1
 512 554.333333333 547.833333333 580.833333333 577.5 610.5 c 128
 607.166666667 640.166666667 628 681 640 733 c 0
 642.666666667 744.333333333 644 756.666666667 644 770 c 0
 644 796 637 819 623 839 c 0
 603 868.333333333 568.666666667 883 520 883 c 0
 472.666666667 883 433.166666667 869 401.5 841 c 128
 369.833333333 813 350.666666667 781.333333333 344 746 c 0
EndSplineSet
EndChar

StartChar: nine.taml
Encoding: 28 -1 28
Width: 680
Flags: HW
LayerCount: 2
Fore
SplineSet
73 -31 m 1
 76 -2 l 1
 176.666666667 14 263.166666667 49.3333333333 335.5 104 c 128
 407.833333333 158.666666667 462.5 213.5 499.5 268.5 c 128
 536.5 323.5 561.333333333 366 574 396 c 1
 571 398 l 1
 500.333333333 348.666666667 428.666666667 324 356 324 c 0
 274 324 218.333333333 352 189 408 c 0
 170.333333333 445.333333333 161 485.666666667 161 529 c 0
 161 549 163 570 167 592 c 0
 180.333333333 653.333333333 204 709 238 759 c 128
 272 809 314 848.666666667 364 878 c 128
 414 907.333333333 467.333333333 922 524 922 c 0
 580 922 626.833333333 905.833333333 664.5 873.5 c 128
 702.166666667 841.166666667 728 795.666666667 742 737 c 0
 748 709 751 679.666666667 751 649 c 0
 751 616.333333333 747.333333333 579.666666667 740 539 c 0
 719.333333333 443 678.5 352.666666667 617.5 268 c 128
 556.5 183.333333333 478.666666667 114 384 60 c 0
 334.666666667 32 283.833333333 9.83333333333 231.5 -6.5 c 128
 179.166666667 -22.8333333333 126.333333333 -31 73 -31 c 1
597 484 m 2
 608 537 l 2
 622 603 629 659.666666667 629 707 c 0
 629 824.333333333 586 883 500 883 c 0
 447.333333333 883 404.833333333 859.833333333 372.5 813.5 c 128
 340.166666667 767.166666667 317 711 303 645 c 0
 296.333333333 612.333333333 293 580 293 548 c 0
 293 516.666666667 296.333333333 488 303 462 c 0
 318.333333333 408 357.666666667 381 421 381 c 0
 467.666666667 381 514.666666667 396.666666667 562 428 c 0
 579.333333333 439.333333333 591 458 597 484 c 2
EndSplineSet
EndChar

StartChar: colon.taml
Encoding: 29 -1 29
Width: 481
Flags: HW
LayerCount: 2
Fore
SplineSet
473 680 m 0
 465 644.666666667 445.333333333 614.666666667 414 590 c 128
 382.666666667 565.333333333 349.666666667 553 315 553 c 0
 285 553 260.333333333 562.333333333 241 581 c 128
 221.666666667 599.666666667 212 623.666666667 212 653 c 0
 212 661.666666667 213 670.666666667 215 680 c 0
 222.333333333 715.333333333 241 745.333333333 271 770 c 128
 301 794.666666667 333.666666667 807 369 807 c 0
 399 807 424.166666667 797.166666667 444.5 777.5 c 128
 464.833333333 757.833333333 475 733 475 703 c 0
 475 693 474.333333333 685.333333333 473 680 c 0
351 106 m 0
 343 70.6666666667 323.5 40.8333333333 292.5 16.5 c 128
 261.5 -7.83333333333 228.333333333 -20 193 -20 c 0
 163 -20 138.333333333 -10.6666666667 119 8 c 128
 99.6666666667 26.6666666667 90 50.6666666667 90 80 c 0
 90 88 91 96.6666666667 93 106 c 0
 100.333333333 141.333333333 119 171.333333333 149 196 c 128
 179 220.666666667 211.666666667 233 247 233 c 0
 277 233 302.166666667 223.166666667 322.5 203.5 c 128
 342.833333333 183.833333333 353 159 353 129 c 0
 353 119 352.333333333 111.333333333 351 106 c 0
EndSplineSet
EndChar

StartChar: semicolon.taml
Encoding: 30 -1 30
Width: 481
Flags: HW
LayerCount: 2
Fore
SplineSet
460 680 m 0
 452 644.666666667 432.666666667 614.666666667 402 590 c 128
 371.333333333 565.333333333 338 553 302 553 c 0
 272.666666667 553 248.166666667 562.5 228.5 581.5 c 128
 208.833333333 600.5 199 624.333333333 199 653 c 0
 199 661.666666667 200 670.666666667 202 680 c 0
 208.666666667 714.666666667 227.5 744.5 258.5 769.5 c 128
 289.5 794.5 322 807 356 807 c 0
 386.666666667 807 412 797.333333333 432 778 c 128
 452 758.666666667 462 734 462 704 c 0
 462 693.333333333 461.333333333 685.333333333 460 680 c 0
330 70 m 0
 315.333333333 -0.666666666667 280 -63 224 -117 c 0
 184.666666667 -155 135.333333333 -188 76 -216 c 0
 33.3333333333 -236 6.33333333333 -246 -5 -246 c 1
 2 -211 l 1
 25.3333333333 -211 67.3333333333 -186.333333333 128 -137 c 0
 198 -79.6666666667 238.666666667 -24.3333333333 250 29 c 0
 251.333333333 35.6666666667 252 39.6666666667 252 41 c 0
 252 49 244.666666667 53 230 53 c 0
 220.666666667 53 205.166666667 46.5 183.5 33.5 c 128
 161.833333333 20.5 144.666666667 14 132 14 c 0
 114 14 97.1666666667 24.6666666667 81.5 46 c 128
 65.8333333333 67.3333333333 58 91 58 117 c 0
 58 121 58.6666666667 127.666666667 60 137 c 0
 66.6666666667 168.333333333 84.6666666667 196.333333333 114 221 c 128
 143.333333333 245.666666667 173.666666667 258 205 258 c 0
 246.333333333 258 278.666666667 243 302 213 c 0
 323.333333333 185.666666667 334 151.666666667 334 111 c 0
 334 95 332.666666667 81.3333333333 330 70 c 0
EndSplineSet
EndChar

StartChar: less.taml
Encoding: 31 -1 31
Width: 1080
Flags: HW
LayerCount: 2
Fore
SplineSet
896 99 m 1
 872 -13 l 1
 125 365 l 1
 146 465 l 1
 1054 840 l 1
 1030 729 l 1
 271 414 l 1
 896 99 l 1
EndSplineSet
EndChar

StartChar: equal.taml
Encoding: 32 -1 32
Width: 1155
Flags: HW
LayerCount: 2
Fore
SplineSet
1147 735 m 1
 1125 629 l 1
 298 629 l 1
 320 735 l 1
 1147 735 l 1
1078 408 m 1
 1055 301 l 1
 228 301 l 1
 251 408 l 1
 1078 408 l 1
EndSplineSet
EndChar

StartChar: greater.taml
Encoding: 33 -1 33
Width: 1080
Flags: HW
LayerCount: 2
Fore
SplineSet
68 99 m 1
 828 414 l 1
 202 729 l 1
 226 840 l 1
 974 465 l 1
 953 365 l 1
 44 -13 l 1
 68 99 l 1
EndSplineSet
EndChar

StartChar: question.taml
Encoding: 34 -1 34
Width: 815
Flags: HW
LayerCount: 2
Fore
SplineSet
373 86 m 1
 344 86 l 1
 352 122 363.833333333 158.333333333 379.5 195 c 128
 395.166666667 231.666666667 416.333333333 272.666666667 443 318 c 2
 512 424 l 2
 541.333333333 471.333333333 565.5 515.666666667 584.5 557 c 128
 603.5 598.333333333 616.666666667 634.666666667 624 666 c 0
 626 674 627.333333333 682.333333333 628 691 c 128
 628.666666667 699.666666667 629 709 629 719 c 0
 629 751.666666667 622 782.666666667 608 812 c 0
 586.666666667 854 546.333333333 875 487 875 c 0
 451 875 414.5 864.833333333 377.5 844.5 c 128
 340.5 824.166666667 319.666666667 800.666666667 315 774 c 0
 312.333333333 762 318.333333333 743.666666667 333 719 c 0
 339.666666667 710.333333333 344.333333333 701.5 347 692.5 c 128
 349.666666667 683.5 351 674.666666667 351 666 c 0
 351 660 350.666666667 655.333333333 350 652 c 0
 346 634.666666667 337.333333333 619.333333333 324 606 c 128
 310.666666667 592.666666667 293.666666667 586 273 586 c 0
 229.666666667 586 208 607.333333333 208 650 c 0
 208 662.666666667 209.333333333 675.333333333 212 688 c 0
 223.333333333 740.666666667 246.333333333 784.333333333 281 819 c 128
 315.666666667 853.666666667 355.833333333 879.833333333 401.5 897.5 c 128
 447.166666667 915.166666667 490 924 530 924 c 0
 575.333333333 924 619 914 661 894 c 0
 683 884 701 874 715 864 c 128
 729 854 740 842.666666667 748 830 c 0
 764.666666667 802.666666667 775 776.333333333 779 751 c 0
 779.666666667 747 780 740.333333333 780 731 c 0
 780 707.666666667 776.666666667 681.333333333 770 652 c 0
 766 632.666666667 758.666666667 612.5 748 591.5 c 128
 737.333333333 570.5 722.666666667 548 704 524 c 0
 670 477.333333333 632.666666667 434.666666667 592 396 c 0
 532 339.333333333 488 291.333333333 460 252 c 0
 428.666666667 209.333333333 399.666666667 154 373 86 c 1
303 -195 m 0
 281 -195 262.333333333 -188 247 -174 c 0
 235.666666667 -164 230 -149.666666667 230 -131 c 0
 230 -127 230.666666667 -120.333333333 232 -111 c 0
 238 -86.3333333333 251.333333333 -65.5 272 -48.5 c 128
 292.666666667 -31.5 315 -23 339 -23 c 256
 363 -23 382.333333333 -31.6666666667 397 -49 c 0
 406.333333333 -61.6666666667 411 -75.3333333333 411 -90 c 0
 411 -96.6666666667 410 -103.666666667 408 -111 c 0
 403.333333333 -137 390 -157.666666667 368 -173 c 0
 357.333333333 -180.333333333 346.666666667 -185.833333333 336 -189.5 c 128
 325.333333333 -193.166666667 314.333333333 -195 303 -195 c 0
EndSplineSet
EndChar

StartChar: u0952
Encoding: 38 2386 38
Width: 20
Flags: HW
LayerCount: 2
Fore
SplineSet
-607 -735 m 1
 -1286 -735 l 1
 -1335 -618 l 1
 -655 -618 l 1
 -607 -735 l 1
EndSplineSet
EndChar

StartChar: u0B83
Encoding: 40 2947 40
Width: 1045
Flags: HW
LayerCount: 2
Fore
SplineSet
169 246 m 0
 200.333333333 246 225.333333333 234.333333333 244 211 c 0
 256.666666667 194.333333333 263 175 263 153 c 0
 263 142.333333333 262.333333333 134.333333333 261 129 c 0
 255 99 238 72.1666666667 210 48.5 c 128
 182 24.8333333333 152 13 120 13 c 0
 99.3333333333 13 81 18.1666666667 65 28.5 c 128
 49 38.8333333333 37.6666666667 53 31 71 c 0
 27 82.3333333333 25 94 25 106 c 0
 25 111 25 111 25 117 c 0
 26.3333333333 122.333333333 27 126.333333333 27 129 c 0
 33.6666666667 159 51.3333333333 186 80 210 c 128
 108.666666667 234 138.333333333 246 169 246 c 0
775 246 m 0
 806.333333333 246 831.333333333 234.333333333 850 211 c 0
 862.666666667 194.333333333 869 175 869 153 c 0
 869 142.333333333 868.333333333 134.333333333 867 129 c 0
 861 99 844 72.1666666667 816 48.5 c 128
 788 24.8333333333 758 13 726 13 c 0
 705.333333333 13 687 18.1666666667 671 28.5 c 128
 655 38.8333333333 643.666666667 53 637 71 c 0
 633 82.3333333333 631 94 631 106 c 0
 631 111 631 111 631 117 c 0
 632.333333333 122.333333333 633 126.333333333 633 129 c 0
 639.666666667 159 657.333333333 186 686 210 c 128
 714.666666667 234 744.333333333 246 775 246 c 0
613 910 m 0
 644.333333333 910 669.333333333 898.333333333 688 875 c 0
 701.333333333 859 708 839.333333333 708 816 c 0
 708 810 708 810 708 805 c 0
 706.666666667 799.666666667 706 795.666666667 706 793 c 0
 699.333333333 763 682 736.166666667 654 712.5 c 128
 626 688.833333333 596 677 564 677 c 0
 543.333333333 677 525 682.166666667 509 692.5 c 128
 493 702.833333333 481.666666667 717 475 735 c 0
 473 740.333333333 471.666666667 747.166666667 471 755.5 c 128
 470.333333333 763.833333333 470 768.666666667 470 770 c 0
 470 775 470 775 470 781 c 0
 471.333333333 786.333333333 472 790.333333333 472 793 c 0
 478 823 495.333333333 850 524 874 c 128
 552.666666667 898 582.333333333 910 613 910 c 0
EndSplineSet
EndChar

StartChar: u0B85
Encoding: 41 2949 41
Width: 1680
Flags: HW
AnchorPoint: "V" 872.5 932 basechar 0
AnchorPoint: "N" 872.5 19.8398 basechar 0
LayerCount: 2
Fore
SplineSet
1452 -154 m 1
 1298 -154 l 1
 1390 277 l 1
 1194 277 l 1
 1124 191.666666667 1030.83333333 124.166666667 914.5 74.5 c 128
 798.166666667 24.8333333333 676.333333333 0 549 0 c 0
 287 0 126 88 66 264 c 0
 64.6666666667 268 64 273.166666667 64 279.5 c 128
 64 289 64 289 64 293 c 0
 72 329.666666667 98 348 142 348 c 2
 1086 348 l 1
 1140 414 1175.66666667 485.666666667 1193 563 c 0
 1198.33333333 591 1201 615 1201 635 c 0
 1201 739 1141.33333333 806 1022 836 c 1
 1060 812 1079 771.333333333 1079 714 c 0
 1079 692 1076.5 669.166666667 1071.5 645.5 c 128
 1066.5 621.833333333 1060.5 601.5 1053.5 584.5 c 128
 1046.5 567.5 1037.33333333 550 1026 532 c 0
 1006.66666667 501.333333333 979 476 943 456 c 128
 907 436 864.666666667 426 816 426 c 0
 752.666666667 426 708 450 682 498 c 0
 666 527.333333333 658 562.666666667 658 604 c 0
 658 618 658.333333333 629 659 637 c 128
 659.666666667 645 661.666666667 657.333333333 665 674 c 0
 675 720 694.5 761.666666667 723.5 799 c 128
 752.5 836.333333333 789.833333333 866.166666667 835.5 888.5 c 128
 881.166666667 910.833333333 932.333333333 922 989 922 c 0
 1073 922 1142.83333333 906.666666667 1198.5 876 c 128
 1254.16666667 845.333333333 1292 800 1312 740 c 0
 1322.66666667 710 1328 675.333333333 1328 636 c 0
 1328 602 1324 565 1316 525 c 0
 1304 470.333333333 1280 411.333333333 1244 348 c 1
 1405 348 l 1
 1527 922 l 1
 1681 922 l 1
 1452 -154 l 1
954 656 m 0
 958.666666667 678 961 696.333333333 961 711 c 0
 961 729 958 746 952 762 c 0
 943.333333333 792 929.333333333 811.666666667 910 821 c 1
 866.666666667 821 829 806.333333333 797 777 c 0
 767.666666667 749.666666667 747.333333333 714 736 670 c 0
 732.666666667 653.333333333 731 639.333333333 731 628 c 0
 731 604 737 584.333333333 749 569 c 0
 767 546.333333333 791 535 821 535 c 0
 853.666666667 535 882.5 547.666666667 907.5 573 c 128
 932.5 598.333333333 948 626 954 656 c 0
1026 277 m 1
 190 277 l 2
 162 277 146 269.333333333 142 254 c 0
 140.666666667 248 142.333333333 241.333333333 147 234 c 0
 169 186.666666667 210.833333333 147.833333333 272.5 117.5 c 128
 334.166666667 87.1666666667 419 72 527 72 c 0
 622.333333333 72 713.166666667 90 799.5 126 c 128
 885.833333333 162 961.333333333 212.333333333 1026 277 c 1
EndSplineSet
EndChar

StartChar: u0B86
Encoding: 42 2950 42
Width: 2069
Flags: HW
AnchorPoint: "V" 980 932 basechar 0
AnchorPoint: "N" 980 -512 basechar 0
LayerCount: 2
Fore
SplineSet
1884 94 m 0
 1870.66666667 28.6666666667 1851 -31 1825 -85 c 128
 1799 -139 1766.66666667 -189.666666667 1728 -237 c 0
 1651.33333333 -328.333333333 1557.83333333 -397 1447.5 -443 c 128
 1337.16666667 -489 1217.66666667 -512 1089 -512 c 0
 914.333333333 -512 783 -489 695 -443 c 0
 622.333333333 -405 586 -353.333333333 586 -288 c 0
 586 -274 587.333333333 -260.666666667 590 -248 c 0
 602 -192 636.833333333 -148.666666667 694.5 -118 c 128
 752.166666667 -87.3333333333 817.333333333 -72 890 -72 c 0
 918 -72 944 -74 968 -78 c 128
 992 -82 1016 -88.6666666667 1040 -98 c 0
 1084.66666667 -116 1120 -139.333333333 1146 -168 c 1
 1117 -205 l 1
 1093 -181 1057.5 -161.666666667 1010.5 -147 c 128
 963.5 -132.333333333 916 -125 868 -125 c 0
 811.333333333 -125 764.333333333 -135.5 727 -156.5 c 128
 689.666666667 -177.5 667 -206.666666667 659 -244 c 0
 657 -255.333333333 656 -265.333333333 656 -274 c 0
 656 -326.666666667 688.333333333 -366.333333333 753 -393 c 0
 831 -425 927.666666667 -441 1043 -441 c 0
 1155.66666667 -441 1260.5 -417.333333333 1357.5 -370 c 128
 1454.5 -322.666666667 1535.5 -258.666666667 1600.5 -178 c 128
 1665.5 -97.3333333333 1708 -9.33333333333 1728 86 c 0
 1735.33333333 122.666666667 1739 153.666666667 1739 179 c 0
 1739 195 1737.33333333 211.333333333 1734 228 c 0
 1727.33333333 264.666666667 1713.16666667 292.166666667 1691.5 310.5 c 128
 1669.83333333 328.833333333 1646.33333333 338 1621 338 c 0
 1595 338 1572 330 1552 314 c 1
 1452 -154 l 1
 1298 -154 l 1
 1390 277 l 1
 1194 277 l 1
 1124 191.666666667 1030.83333333 124.166666667 914.5 74.5 c 128
 798.166666667 24.8333333333 676.333333333 0 549 0 c 0
 287 0 126 88 66 264 c 0
 64.6666666667 268 64 273.166666667 64 279.5 c 128
 64 289 64 289 64 293 c 0
 72 329.666666667 98 348 142 348 c 2
 1086 348 l 1
 1140 414 1175.66666667 485.666666667 1193 563 c 0
 1198.33333333 591 1201 615 1201 635 c 0
 1201 739 1141.33333333 806 1022 836 c 1
 1060 812 1079 771.333333333 1079 714 c 0
 1079 692 1076.5 669.166666667 1071.5 645.5 c 128
 1066.5 621.833333333 1060.5 601.5 1053.5 584.5 c 128
 1046.5 567.5 1037.33333333 550 1026 532 c 0
 1006.66666667 501.333333333 979 476 943 456 c 128
 907 436 864.666666667 426 816 426 c 0
 752.666666667 426 708 450 682 498 c 0
 666 527.333333333 658 562.666666667 658 604 c 0
 658 618 658.333333333 629 659 637 c 128
 659.666666667 645 661.666666667 657.333333333 665 674 c 0
 675 720 694.5 761.666666667 723.5 799 c 128
 752.5 836.333333333 789.833333333 866.166666667 835.5 888.5 c 128
 881.166666667 910.833333333 932.333333333 922 989 922 c 0
 1073 922 1142.83333333 906.666666667 1198.5 876 c 128
 1254.16666667 845.333333333 1292 800 1312 740 c 0
 1322.66666667 710 1328 675.333333333 1328 636 c 0
 1328 602 1324 565 1316 525 c 0
 1304 470.333333333 1280 411.333333333 1244 348 c 1
 1405 348 l 1
 1527 922 l 1
 1681 922 l 1
 1566 383 l 1
 1605.33333333 415.666666667 1649.33333333 432 1698 432 c 0
 1742 432 1781.16666667 419.166666667 1815.5 393.5 c 128
 1849.83333333 367.833333333 1873.66666667 329 1887 277 c 0
 1893 253.666666667 1896 228.666666667 1896 202 c 0
 1896 169.333333333 1892 133.333333333 1884 94 c 0
954 656 m 0
 958.666666667 678 961 696.333333333 961 711 c 0
 961 729 958 746 952 762 c 0
 943.333333333 792 929.333333333 811.666666667 910 821 c 1
 866.666666667 821 829 806.333333333 797 777 c 0
 767.666666667 749.666666667 747.333333333 714 736 670 c 0
 732.666666667 653.333333333 731 639.333333333 731 628 c 0
 731 604 737 584.333333333 749 569 c 0
 767 546.333333333 791 535 821 535 c 0
 853.666666667 535 882.5 547.666666667 907.5 573 c 128
 932.5 598.333333333 948 626 954 656 c 0
1026 277 m 1
 190 277 l 2
 162 277 146 269.333333333 142 254 c 0
 140.666666667 248 142.333333333 241.333333333 147 234 c 0
 169 186.666666667 210.833333333 147.833333333 272.5 117.5 c 128
 334.166666667 87.1666666667 419 72 527 72 c 0
 622.333333333 72 713.166666667 90 799.5 126 c 128
 885.833333333 162 961.333333333 212.333333333 1026 277 c 1
EndSplineSet
EndChar

StartChar: u0B87
Encoding: 43 2951 43
Width: 1577
Flags: HW
AnchorPoint: "V" 764 1298.99 basechar 0
AnchorPoint: "N" 764 -185 basechar 0
LayerCount: 2
Fore
SplineSet
688 656 m 0
 692.666666667 678 695 696.333333333 695 711 c 0
 695 729 692 746 686 762 c 0
 677.333333333 792 663.333333333 811.666666667 644 821 c 1
 600.666666667 821 563.333333333 806.5 532 777.5 c 128
 500.666666667 748.5 480 712.666666667 470 670 c 0
 466.666666667 653.333333333 465 639.333333333 465 628 c 0
 465 604 471 584.333333333 483 569 c 0
 499.666666667 546.333333333 523.666666667 535 555 535 c 0
 587.666666667 535 616.5 547.666666667 641.5 573 c 128
 666.5 598.333333333 682 626 688 656 c 0
592 -88 m 1
 615.333333333 -95.3333333333 641 -101.333333333 669 -106 c 128
 697 -110.666666667 725.333333333 -113 754 -113 c 0
 824 -113 882.333333333 -94 929 -56 c 128
 975.666666667 -18 1005 28 1017 82 c 0
 1019 91.3333333333 1020 100.666666667 1020 110 c 0
 1020 156 991.333333333 198.666666667 934 238 c 1
 846 97.3333333333 732 -11.3333333333 592 -88 c 1
202 162 m 1
 128 115.333333333 85.6666666667 66.3333333333 75 15 c 0
 74.3333333333 11 73.8333333333 6.66666666667 73.5 2 c 128
 73.1666666667 -2.66666666667 73 -6 73 -8 c 0
 73 -35.3333333333 85 -58.6666666667 109 -78 c 0
 141.666666667 -101.333333333 184.666666667 -113 238 -113 c 0
 290 -113 343.666666667 -102 399 -80 c 1
 343.666666667 -41.3333333333 296.666666667 6.66666666667 258 64 c 0
 235.333333333 98 216.666666667 130.666666667 202 162 c 1
275 203 m 1
 295 162.333333333 315 128.5 335 101.5 c 128
 355 74.5 377.5 49.1666666667 402.5 25.5 c 128
 427.5 1.83333333333 455.333333333 -19.6666666667 486 -39 c 1
 621.333333333 37.6666666667 733 146.333333333 821 287 c 1
 777 299 728.666666667 305 676 305 c 0
 614 305 547 295.666666667 475 277 c 0
 439 268.333333333 405 258 373 246 c 128
 341 234 308.333333333 219.666666667 275 203 c 1
859 357 m 1
 872.333333333 384.333333333 884 411.333333333 894 438 c 128
 904 464.666666667 912 492.666666667 918 522 c 0
 921.333333333 538 924.333333333 556.666666667 927 578 c 128
 929.666666667 599.333333333 931 617 931 631 c 0
 931 674.333333333 922.333333333 710.333333333 905 739 c 0
 875 787 825.333333333 819.333333333 756 836 c 1
 794 812 813 771.666666667 813 715 c 0
 813 692.333333333 810 667 804 639 c 0
 791.333333333 577.666666667 764 526.833333333 722 486.5 c 128
 680 446.166666667 622.666666667 426 550 426 c 0
 486.666666667 426 442 450.333333333 416 499 c 0
 400 528.333333333 392 563.333333333 392 604 c 0
 392 618 392.333333333 629 393 637 c 128
 393.666666667 645 395.666666667 657.333333333 399 674 c 0
 409 720 428.666666667 761.833333333 458 799.5 c 128
 487.333333333 837.166666667 524.666666667 867 570 889 c 128
 615.333333333 911 666.333333333 922 723 922 c 0
 807 922 876.833333333 906.666666667 932.5 876 c 128
 988.166666667 845.333333333 1026 800 1046 740 c 0
 1056.66666667 710 1062 675.333333333 1062 636 c 0
 1062 602 1058 565 1050 525 c 0
 1035.33333333 458.333333333 1012 390.666666667 980 322 c 1
 1045.33333333 296.666666667 1094.33333333 263.333333333 1127 222 c 0
 1151.66666667 191.333333333 1164 156.666666667 1164 118 c 0
 1164 104 1162.66666667 90.6666666667 1160 78 c 0
 1140.66666667 -9.33333333333 1093.16666667 -75 1017.5 -119 c 128
 941.833333333 -163 848.333333333 -185 737 -185 c 0
 650.333333333 -185 569.333333333 -167.666666667 494 -133 c 1
 405.333333333 -167.666666667 318.666666667 -185 234 -185 c 0
 152.666666667 -185 90.3333333333 -168 47 -134 c 0
 15 -108.666666667 -1 -73.3333333333 -1 -28 c 0
 -1 -12 1 5 5 23 c 0
 19.6666666667 94.3333333333 76.3333333333 162.666666667 175 228 c 1
 160.333333333 271.333333333 149.666666667 307.666666667 143 337 c 0
 133.666666667 378.333333333 129 417 129 453 c 0
 129 516.333333333 129.666666667 560.5 131 585.5 c 128
 132.333333333 610.5 136.666666667 640.666666667 144 676 c 0
 172 810.666666667 227.166666667 927 309.5 1025 c 128
 391.833333333 1123 490.166666667 1196.83333333 604.5 1246.5 c 128
 718.833333333 1296.16666667 837.666666667 1321 961 1321 c 0
 1068.33333333 1321 1162 1303.16666667 1242 1267.5 c 128
 1322 1231.83333333 1385.66666667 1178.66666667 1433 1108 c 128
 1480.33333333 1037.33333333 1510.66666667 951.333333333 1524 850 c 0
 1526 829.333333333 1527.33333333 814 1528 804 c 128
 1528.66666667 794 1529 778.333333333 1529 757 c 0
 1529 683 1519.66666667 599.333333333 1501 506 c 0
 1491 458.666666667 1478.16666667 410.166666667 1462.5 360.5 c 128
 1446.83333333 310.833333333 1429 262 1409 214 c 0
 1371 118 1332.66666667 36 1294 -32 c 128
 1255.33333333 -100 1223.33333333 -151 1198 -185 c 1
 1150 -162 l 1
 1171.33333333 -134 1193.66666667 -99.8333333333 1217 -59.5 c 128
 1240.33333333 -19.1666666667 1266 31 1294 91 c 0
 1348.66666667 203.666666667 1390.33333333 327 1419 461 c 0
 1433.66666667 527.666666667 1441 592 1441 654 c 0
 1441 686 1438.33333333 719.666666667 1433 755 c 0
 1420.33333333 843 1391.5 918.333333333 1346.5 981 c 128
 1301.5 1043.66666667 1243.16666667 1091.5 1171.5 1124.5 c 128
 1099.83333333 1157.5 1019.33333333 1174 930 1174 c 0
 816.666666667 1174 708.5 1151.5 605.5 1106.5 c 128
 502.5 1061.5 416.333333333 1000 347 922 c 128
 277.666666667 844 233 758 213 664 c 0
 203 618 198 571.333333333 198 524 c 0
 198 440 214.666666667 354 248 266 c 1
 281.333333333 282.666666667 315.5 297.166666667 350.5 309.5 c 128
 385.5 321.833333333 424.333333333 333 467 343 c 0
 549 361.666666667 624.666666667 371 694 371 c 0
 752 371 807 366.333333333 859 357 c 1
EndSplineSet
EndChar

StartChar: u0B88
Encoding: 44 2952 44
Width: 1065
Flags: HW
AnchorPoint: "V" 492.5 932 basechar 0
AnchorPoint: "N" 492.5 0 basechar 0
LayerCount: 2
Fore
SplineSet
950 461 m 0
 944 434.333333333 931 412.666666667 911 396 c 128
 891 379.333333333 867.666666667 371 841 371 c 0
 815 371 795.333333333 379.666666667 782 397 c 0
 772 409 767 423.666666667 767 441 c 0
 767 447 768 453.666666667 770 461 c 0
 775.333333333 486.333333333 788.5 508 809.5 526 c 128
 830.5 544 854 553 880 553 c 256
 906 553 925.333333333 544.333333333 938 527 c 0
 948 513.666666667 953 498.333333333 953 481 c 0
 953 475 952 468.333333333 950 461 c 0
970 850 m 1
 765 850 l 1
 584 0 l 1
 430 0 l 1
 611 850 l 1
 253 850 l 1
 72 0 l 1
 0 0 l 1
 196 922 l 1
 985 922 l 1
 970 850 l 1
438 461 m 0
 432 434.333333333 419 412.666666667 399 396 c 128
 379 379.333333333 355.666666667 371 329 371 c 0
 303 371 283.333333333 379.666666667 270 397 c 0
 260 409 255 423.666666667 255 441 c 0
 255 447 256 453.666666667 258 461 c 0
 263.333333333 486.333333333 276.5 508 297.5 526 c 128
 318.5 544 342 553 368 553 c 256
 394 553 413.333333333 544.333333333 426 527 c 0
 436 513.666666667 441 498.333333333 441 481 c 0
 441 475 440 468.333333333 438 461 c 0
EndSplineSet
EndChar

StartChar: u0B89
Encoding: 45 2953 45
Width: 1659
Flags: HW
AnchorPoint: "V" 795.5 932 basechar 0
AnchorPoint: "N" 795.5 0 basechar 0
LayerCount: 2
Fore
SplineSet
1506 0 m 2
 162 0 l 2
 112.666666667 0 76 13 52 39 c 0
 34 59 25 82 25 108 c 0
 25 115.333333333 26 123 28 131 c 0
 35.3333333333 165 56.5 195 91.5 221 c 128
 126.5 247 168.333333333 260 217 260 c 2
 477 260 l 2
 539 260 595.333333333 288 646 344 c 128
 696.666666667 400 729 461.666666667 743 529 c 0
 751.666666667 567.666666667 756 604.333333333 756 639 c 0
 756 779.666666667 675.666666667 850 515 850 c 0
 472.333333333 850 428.333333333 841 383 823 c 0
 360.333333333 814.333333333 340.333333333 804.5 323 793.5 c 128
 305.666666667 782.5 288.333333333 769 271 753 c 0
 241 725 222.333333333 694.666666667 215 662 c 1
 261 719.333333333 318.333333333 748 387 748 c 0
 424.333333333 748 456 738 482 718 c 0
 494.666666667 708.666666667 505.166666667 697.5 513.5 684.5 c 128
 521.833333333 671.5 528.5 656.666666667 533.5 640 c 128
 538.5 623.333333333 541 605 541 585 c 0
 541 568.333333333 539 550.333333333 535 531 c 0
 521 465 490.666666667 413.333333333 444 376 c 128
 397.333333333 338.666666667 341.666666667 320 277 320 c 0
 170.333333333 320 117 379.333333333 117 498 c 0
 117 534 122 575.666666667 132 623 c 0
 140 660.333333333 156.333333333 696.666666667 181 732 c 0
 204.333333333 768.666666667 234.5 800.833333333 271.5 828.5 c 128
 308.5 856.166666667 352 878.666666667 402 896 c 128
 452 913.333333333 504.333333333 922 559 922 c 0
 647.666666667 922 719.5 905.833333333 774.5 873.5 c 128
 829.5 841.166666667 866.333333333 796.333333333 885 739 c 0
 895 707.666666667 900 674.333333333 900 639 c 0
 900 607 896 573 888 537 c 0
 838 299 696 180 462 180 c 2
 257 180 l 2
 229 180 206.333333333 174.5 189 163.5 c 128
 171.666666667 152.5 161 138.333333333 157 121 c 0
 156.333333333 118.333333333 156 114.666666667 156 110 c 0
 156 98.6666666667 161.666666667 87.8333333333 173 77.5 c 128
 184.333333333 67.1666666667 203.333333333 62 230 62 c 2
 1519 62 l 2
 1551.66666667 62 1566 51.6666666667 1562 31 c 0
 1560 23 1553.66666667 15.8333333333 1543 9.5 c 128
 1532.33333333 3.16666666667 1520 0 1506 0 c 2
383 628 m 0
 367 644 346.666666667 652 322 652 c 0
 275.333333333 652 233 627.333333333 195 578 c 1
 191 558 189 539.333333333 189 522 c 0
 189 497.333333333 193.333333333 476 202 458 c 0
 218 426 244 410 280 410 c 0
 312 410 339.166666667 422.5 361.5 447.5 c 128
 383.833333333 472.5 399 501.666666667 407 535 c 0
 408.333333333 543 409 550.333333333 409 557 c 0
 409 571 407 584.166666667 403 596.5 c 128
 399 608.833333333 392.333333333 619.333333333 383 628 c 0
EndSplineSet
EndChar

StartChar: u0B8A
Encoding: 46 2954 46
Width: 2663
Flags: HW
AnchorPoint: "V" 1349.5 932 basechar 0
AnchorPoint: "N" 1349.5 0 basechar 0
LayerCount: 2
Fore
SplineSet
2659 850 m 1
 2455 850 l 1
 2300 123 l 1
 2146 123 l 1
 2301 850 l 1
 2065 850 l 1
 1910 123 l 1
 1757 123 l 1
 1868 643 l 2
 1870.66666667 655.666666667 1872 669 1872 683 c 0
 1872 726.333333333 1855 763 1821 793 c 0
 1777 831 1710.33333333 850 1621 850 c 0
 1549.66666667 850 1482.66666667 837.5 1420 812.5 c 128
 1357.33333333 787.5 1305.33333333 756.666666667 1264 720 c 128
 1222.66666667 683.333333333 1198.33333333 649.666666667 1191 619 c 1
 1211.66666667 640.333333333 1241.66666667 658.333333333 1281 673 c 128
 1320.33333333 687.666666667 1362 695 1406 695 c 0
 1452.66666667 695 1493.66666667 683 1529 659 c 128
 1564.33333333 635 1588.33333333 602 1601 560 c 0
 1608.33333333 536 1612 511 1612 485 c 0
 1612 476.333333333 1611.5 466.5 1610.5 455.5 c 128
 1609.5 444.5 1607.66666667 432 1605 418 c 0
 1593 361.333333333 1573.66666667 309.666666667 1547 263 c 0
 1535 242.333333333 1520.66666667 223.166666667 1504 205.5 c 128
 1487.33333333 187.833333333 1469.33333333 172.666666667 1450 160 c 0
 1410.66666667 135.333333333 1367 123 1319 123 c 0
 1257.66666667 123 1206.83333333 139 1166.5 171 c 128
 1126.16666667 203 1099.66666667 249.333333333 1087 310 c 0
 1082.33333333 333.333333333 1080 360 1080 390 c 0
 1080 432 1085 477 1095 525 c 0
 1111.66666667 606.333333333 1145.66666667 677.5 1197 738.5 c 128
 1248.33333333 799.5 1310.66666667 845.333333333 1384 876 c 128
 1457.33333333 906.666666667 1535.33333333 922 1618 922 c 0
 1740.66666667 922 1831.16666667 906.666666667 1889.5 876 c 128
 1947.83333333 845.333333333 1980 809.333333333 1986 768 c 1
 2019 922 l 1
 2674 922 l 1
 2659 850 l 1
2407 0 m 2
 162 0 l 2
 112.666666667 0 76 13 52 39 c 0
 34 59 25 82 25 108 c 0
 25 115.333333333 26 123 28 131 c 0
 35.3333333333 165 56.5 195 91.5 221 c 128
 126.5 247 168.333333333 260 217 260 c 2
 477 260 l 2
 539 260 595.333333333 288 646 344 c 128
 696.666666667 400 729 461.666666667 743 529 c 0
 751.666666667 567.666666667 756 604.333333333 756 639 c 0
 756 779.666666667 675.666666667 850 515 850 c 0
 472.333333333 850 428.333333333 841 383 823 c 0
 360.333333333 814.333333333 340.333333333 804.5 323 793.5 c 128
 305.666666667 782.5 288.333333333 769 271 753 c 0
 241 725 222.333333333 694.666666667 215 662 c 1
 261 719.333333333 318.333333333 748 387 748 c 0
 424.333333333 748 456 738 482 718 c 0
 494.666666667 708.666666667 505.166666667 697.5 513.5 684.5 c 128
 521.833333333 671.5 528.5 656.666666667 533.5 640 c 128
 538.5 623.333333333 541 605 541 585 c 0
 541 568.333333333 539 550.333333333 535 531 c 0
 521 465 490.666666667 413.333333333 444 376 c 128
 397.333333333 338.666666667 341.666666667 320 277 320 c 0
 170.333333333 320 117 379.333333333 117 498 c 0
 117 534 122 575.666666667 132 623 c 0
 140 660.333333333 156.333333333 696.666666667 181 732 c 0
 204.333333333 768.666666667 234.5 800.833333333 271.5 828.5 c 128
 308.5 856.166666667 352 878.666666667 402 896 c 128
 452 913.333333333 504.333333333 922 559 922 c 0
 647.666666667 922 719.5 905.833333333 774.5 873.5 c 128
 829.5 841.166666667 866.333333333 796.333333333 885 739 c 0
 895 707.666666667 900 674.333333333 900 639 c 0
 900 607 896 573 888 537 c 0
 838 299 696 180 462 180 c 2
 257 180 l 2
 229 180 206.333333333 174.5 189 163.5 c 128
 171.666666667 152.5 161 138.333333333 157 121 c 0
 156.333333333 118.333333333 156 114.666666667 156 110 c 0
 156 98.6666666667 161.666666667 87.8333333333 173 77.5 c 128
 184.333333333 67.1666666667 203.333333333 62 230 62 c 2
 2420 62 l 2
 2452.66666667 62 2467 51.6666666667 2463 31 c 0
 2461 23 2454.66666667 15.8333333333 2444 9.5 c 128
 2433.33333333 3.16666666667 2421 0 2407 0 c 2
1443 420 m 0
 1445.66666667 431.333333333 1447 443.666666667 1447 457 c 0
 1447 474.333333333 1444.83333333 489.666666667 1440.5 503 c 128
 1436.16666667 516.333333333 1430.33333333 528.5 1423 539.5 c 128
 1415.66666667 550.5 1407.33333333 560.333333333 1398 569 c 0
 1379.33333333 585.666666667 1356 594 1328 594 c 0
 1290 594 1256.16666667 584.5 1226.5 565.5 c 128
 1196.83333333 546.5 1174.66666667 522 1160 492 c 1
 1155.33333333 471.333333333 1153 449.666666667 1153 427 c 0
 1153 395.666666667 1158.66666667 363 1170 329 c 0
 1189.33333333 276.333333333 1224 250 1274 250 c 0
 1315.33333333 250 1351.66666667 267 1383 301 c 0
 1397.66666667 317.666666667 1409.83333333 335.666666667 1419.5 355 c 128
 1429.16666667 374.333333333 1437 396 1443 420 c 0
383 628 m 0
 367 644 346.666666667 652 322 652 c 0
 275.333333333 652 233 627.333333333 195 578 c 1
 191 558 189 539.333333333 189 522 c 0
 189 497.333333333 193.333333333 476 202 458 c 0
 218 426 244 410 280 410 c 0
 312 410 339.166666667 422.5 361.5 447.5 c 128
 383.833333333 472.5 399 501.666666667 407 535 c 0
 408.333333333 543 409 550.333333333 409 557 c 0
 409 571 407 584.166666667 403 596.5 c 128
 399 608.833333333 392.333333333 619.333333333 383 628 c 0
EndSplineSet
EndChar

StartChar: u0B8E
Encoding: 47 2958 47
Width: 1311
Flags: HW
AnchorPoint: "V" 687 932 basechar 0
AnchorPoint: "N" 687 0 basechar 0
LayerCount: 2
Fore
SplineSet
1287 850 m 1
 1082 850 l 1
 901 0 l 1
 748 0 l 1
 929 850 l 1
 638 850 l 2
 552.666666667 850 478 832.833333333 414 798.5 c 128
 350 764.166666667 298.833333333 721.666666667 260.5 671 c 128
 222.166666667 620.333333333 197 570.666666667 185 522 c 1
 206.333333333 546 237.166666667 566 277.5 582 c 128
 317.833333333 598 359.333333333 606 402 606 c 0
 480.666666667 606 539.666666667 579 579 525 c 0
 603.666666667 489.666666667 616 446 616 394 c 0
 616 384.666666667 615.833333333 374.5 615.5 363.5 c 128
 615.166666667 352.5 612.666666667 336.666666667 608 316 c 0
 588 220 552.666666667 143.333333333 502 86 c 128
 451.333333333 28.6666666667 387 0 309 0 c 0
 211 0 143 37.3333333333 105 112 c 0
 83 155.333333333 72 208 72 270 c 0
 72 315.333333333 78 366.666666667 90 424 c 0
 112 524.666666667 148.666666667 612.333333333 200 687 c 128
 251.333333333 761.666666667 314.833333333 819.5 390.5 860.5 c 128
 466.166666667 901.5 547.666666667 922 635 922 c 2
 1302 922 l 1
 1287 850 l 1
453 312 m 0
 455.666666667 325.333333333 457.166666667 335 457.5 341 c 128
 457.833333333 347 458 351.666666667 458 355 c 0
 458 361.666666667 457.333333333 369.333333333 456 378 c 128
 454.666666667 386.666666667 453 395.333333333 451 404 c 0
 443 434.666666667 428.666666667 459.333333333 408 478 c 128
 387.333333333 496.666666667 363.333333333 506 336 506 c 0
 296.666666667 506 260.833333333 494.833333333 228.5 472.5 c 128
 196.166666667 450.166666667 171.666666667 423 155 391 c 1
 147.666666667 357.666666667 144 324.333333333 144 291 c 0
 144 257 149 226.333333333 159 199 c 0
 179 148.333333333 216.666666667 123 272 123 c 0
 316.666666667 123 355.166666667 141.5 387.5 178.5 c 128
 419.833333333 215.5 441.666666667 260 453 312 c 0
EndSplineSet
EndChar

StartChar: u0B8F
Encoding: 48 2959 48
Width: 1311
Flags: HW
AnchorPoint: "V" 687 932 basechar 0
AnchorPoint: "N" 687 -248.086 basechar 0
LayerCount: 2
Fore
SplineSet
1287 850 m 1
 1082 850 l 1
 901 0 l 1
 502 -287 l 1
 380 -287 l 1
 748 0 l 1
 929 850 l 1
 638 850 l 2
 552.666666667 850 478 832.833333333 414 798.5 c 128
 350 764.166666667 298.833333333 721.666666667 260.5 671 c 128
 222.166666667 620.333333333 197 570.666666667 185 522 c 1
 206.333333333 546 237.166666667 566 277.5 582 c 128
 317.833333333 598 359.333333333 606 402 606 c 0
 480.666666667 606 539.666666667 579 579 525 c 0
 603.666666667 489.666666667 616 446 616 394 c 0
 616 384.666666667 615.833333333 374.5 615.5 363.5 c 128
 615.166666667 352.5 612.666666667 336.666666667 608 316 c 0
 588 220 552.666666667 143.333333333 502 86 c 128
 451.333333333 28.6666666667 387 0 309 0 c 0
 211 0 143 37.3333333333 105 112 c 0
 83 155.333333333 72 208 72 270 c 0
 72 315.333333333 78 366.666666667 90 424 c 0
 112 524.666666667 148.666666667 612.333333333 200 687 c 128
 251.333333333 761.666666667 314.833333333 819.5 390.5 860.5 c 128
 466.166666667 901.5 547.666666667 922 635 922 c 2
 1302 922 l 1
 1287 850 l 1
453 312 m 0
 455.666666667 325.333333333 457.166666667 335 457.5 341 c 128
 457.833333333 347 458 351.666666667 458 355 c 0
 458 361.666666667 457.333333333 369.333333333 456 378 c 128
 454.666666667 386.666666667 453 395.333333333 451 404 c 0
 443 434.666666667 428.666666667 459.333333333 408 478 c 128
 387.333333333 496.666666667 363.333333333 506 336 506 c 0
 296.666666667 506 260.833333333 494.833333333 228.5 472.5 c 128
 196.166666667 450.166666667 171.666666667 423 155 391 c 1
 147.666666667 357.666666667 144 324.333333333 144 291 c 0
 144 257 149 226.333333333 159 199 c 0
 179 148.333333333 216.666666667 123 272 123 c 0
 316.666666667 123 355.166666667 141.5 387.5 178.5 c 128
 419.833333333 215.5 441.666666667 260 453 312 c 0
EndSplineSet
EndChar

StartChar: u0B90
Encoding: 49 2960 49
Width: 1331
Flags: HW
AnchorPoint: "V" 642.5 932 basechar 0
AnchorPoint: "N" 642.5 -363 basechar 0
LayerCount: 2
Fore
SplineSet
1254 598 m 0
 1240.66666667 532.666666667 1214.33333333 468.5 1175 405.5 c 128
 1135.66666667 342.5 1085.33333333 296 1024 266 c 0
 974 243.333333333 922.666666667 227.666666667 870 219 c 0
 836.666666667 214.333333333 803.166666667 210 769.5 206 c 128
 735.833333333 202 702.333333333 200 669 200 c 0
 633.666666667 200 602.833333333 199 576.5 197 c 128
 550.166666667 195 515.666666667 192 473 188 c 128
 430.333333333 184 388.666666667 174.666666667 348 160 c 0
 314 148 279.333333333 123.333333333 244 86 c 128
 208.666666667 48.6666666667 185 1.33333333333 173 -56 c 0
 167 -83.3333333333 164 -109 164 -133 c 0
 164 -164.333333333 169.666666667 -193.333333333 181 -220 c 0
 200.333333333 -264.666666667 237.333333333 -287 292 -287 c 0
 322.666666667 -287 353.5 -277.666666667 384.5 -259 c 128
 415.5 -240.333333333 443 -217 467 -189 c 0
 489 -163.666666667 503 -138.333333333 509 -113 c 2
 537 17 l 1
 680 17 l 1
 653 -109 l 2
 650.333333333 -120.333333333 649 -132.666666667 649 -146 c 0
 649 -176 657.666666667 -205.333333333 675 -234 c 0
 700.333333333 -273.333333333 740.666666667 -293 796 -293 c 0
 846 -293 887.666666667 -276 921 -242 c 0
 951.666666667 -208 972.666666667 -164.333333333 984 -111 c 0
 986.666666667 -101 988.666666667 -89.1666666667 990 -75.5 c 128
 991.333333333 -61.8333333333 992 -48.6666666667 992 -36 c 2
 992 -18 l 2
 991.333333333 -13.3333333333 991 -9.66666666667 991 -7 c 0
 988.333333333 25.6666666667 980.666666667 52 968 72 c 1
 1067 113 l 1
 1085 77.6666666667 1094 38 1094 -6 c 0
 1094 -30 1090.66666667 -59.3333333333 1084 -94 c 0
 1068 -170 1032.83333333 -233.833333333 978.5 -285.5 c 128
 924.166666667 -337.166666667 854.333333333 -363 769 -363 c 0
 659 -363 593 -326 571 -252 c 1
 548.333333333 -281.333333333 511.166666667 -307.166666667 459.5 -329.5 c 128
 407.833333333 -351.833333333 354.666666667 -363 300 -363 c 0
 226.666666667 -363 167.333333333 -350.333333333 122 -325 c 128
 76.6666666667 -299.666666667 46.6666666667 -263.666666667 32 -217 c 0
 24 -193 20 -167 20 -139 c 0
 20 -113 23 -85.3333333333 29 -56 c 0
 57 76 131.666666667 163.666666667 253 207 c 0
 327.666666667 234.333333333 408.333333333 252 495 260 c 2
 745 282 l 1
 783.666666667 282 818.166666667 285.666666667 848.5 293 c 128
 878.833333333 300.333333333 909.166666667 310.666666667 939.5 324 c 128
 969.833333333 337.333333333 998 362.666666667 1024 400 c 0
 1035.33333333 416.666666667 1046 434.833333333 1056 454.5 c 128
 1066 474.166666667 1074.83333333 493.666666667 1082.5 513 c 128
 1090.16666667 532.333333333 1096.5 550.5 1101.5 567.5 c 128
 1106.5 584.5 1110.66666667 600.333333333 1114 615 c 0
 1120 643 1123 669 1123 693 c 0
 1123 726.333333333 1116.66666667 756.666666667 1104 784 c 0
 1082 828 1040.66666667 850 980 850 c 0
 938.666666667 850 904 832.666666667 876 798 c 128
 848 763.333333333 830.666666667 729.666666667 824 697 c 2
 769 439 l 1
 626 439 l 1
 679 686 l 2
 681 695.333333333 682 704.666666667 682 714 c 0
 682 742.666666667 672.333333333 770 653 796 c 0
 629 832 583 850 515 850 c 0
 472.333333333 850 428.333333333 841 383 823 c 0
 360.333333333 814.333333333 340.333333333 804.5 323 793.5 c 128
 305.666666667 782.5 288.333333333 769 271 753 c 0
 241 725 222.333333333 694.666666667 215 662 c 1
 261 719.333333333 318.333333333 748 387 748 c 0
 424.333333333 748 456 738 482 718 c 0
 494.666666667 708.666666667 505.166666667 697.5 513.5 684.5 c 128
 521.833333333 671.5 528.5 656.666666667 533.5 640 c 128
 538.5 623.333333333 541 605 541 585 c 0
 541 568.333333333 539 550.333333333 535 531 c 0
 521 465 490.666666667 413.333333333 444 376 c 128
 397.333333333 338.666666667 341.666666667 320 277 320 c 0
 170.333333333 320 117 379.333333333 117 498 c 0
 117 534 122.166666667 576.5 132.5 625.5 c 128
 142.833333333 674.5 167.166666667 722.166666667 205.5 768.5 c 128
 243.833333333 814.833333333 293.666666667 852 355 880 c 128
 416.333333333 908 484.333333333 922 559 922 c 0
 703 922 782 883 796 805 c 1
 843.333333333 883 916.333333333 922 1015 922 c 0
 1115 922 1185.33333333 893.666666667 1226 837 c 0
 1252 799.666666667 1265 753.333333333 1265 698 c 0
 1265 684 1264 668.333333333 1262 651 c 128
 1260 633.666666667 1257.33333333 616 1254 598 c 0
383 628 m 0
 367 644 346.666666667 652 322 652 c 0
 275.333333333 652 233 627.333333333 195 578 c 1
 191 558 189 539.333333333 189 522 c 0
 189 497.333333333 193.333333333 476 202 458 c 0
 218 426 244 410 280 410 c 0
 312 410 339.166666667 422.5 361.5 447.5 c 128
 383.833333333 472.5 399 501.666666667 407 535 c 0
 408.333333333 543 409 550.333333333 409 557 c 0
 409 571 407 584.166666667 403 596.5 c 128
 399 608.833333333 392.333333333 619.333333333 383 628 c 0
EndSplineSet
EndChar

StartChar: u0B92
Encoding: 50 2962 50
Width: 1434
Flags: HW
AnchorPoint: "V" 678 932 basechar 0
AnchorPoint: "N" 678 -491.768 basechar 0
LayerCount: 2
Fore
SplineSet
1261 436 m 0
 1247 370 1225 312.833333333 1195 264.5 c 128
 1165 216.166666667 1128 178.333333333 1084 151 c 0
 1042.66666667 125.666666667 998 113 950 113 c 0
 881.333333333 113 840 134.333333333 826 177 c 0
 818.666666667 199 815 223.666666667 815 251 c 0
 815 263.666666667 816 278.333333333 818 295 c 128
 820 311.666666667 822.666666667 328.666666667 826 346 c 1
 797.333333333 286.666666667 780.666666667 245.5 776 222.5 c 128
 771.333333333 199.5 769 180.666666667 769 166 c 0
 769 128.666666667 782 101.333333333 808 84 c 0
 826 72.6666666667 848.833333333 63.6666666667 876.5 57 c 128
 904.166666667 50.3333333333 936.333333333 47 973 47 c 2
 1128 47 l 1
 1111 -33 l 1
 997 -33 l 2
 969 -33 944.5 -40.6666666667 923.5 -56 c 128
 902.5 -71.3333333333 884 -92 868 -118 c 0
 861.333333333 -129.333333333 855.333333333 -139.666666667 850 -149 c 0
 837.333333333 -171 825 -194.666666667 813 -220 c 2
 762 -318 l 1
 688.666666667 -447.333333333 568.333333333 -512 401 -512 c 0
 329.666666667 -512 270.333333333 -500.333333333 223 -477 c 128
 175.666666667 -453.666666667 142.333333333 -422 123 -382 c 0
 110.333333333 -356.666666667 104 -328.666666667 104 -298 c 0
 104 -283.333333333 105.666666667 -266.666666667 109 -248 c 0
 123 -182.666666667 151 -128.166666667 193 -84.5 c 128
 235 -40.8333333333 284 -19 340 -19 c 1
 348 -101 l 1
 306.666666667 -101 271 -113.666666667 241 -139 c 128
 211 -164.333333333 191 -200.666666667 181 -248 c 0
 179 -258 178 -268 178 -278 c 0
 178 -317.333333333 195.333333333 -352.666666667 230 -384 c 0
 274 -422 341.666666667 -441 433 -441 c 0
 474.333333333 -441 509.666666667 -433 539 -417 c 0
 567 -403 591 -382.333333333 611 -355 c 0
 620.333333333 -342.333333333 628.333333333 -329.333333333 635 -316 c 128
 641.666666667 -302.666666667 649.666666667 -285.333333333 659 -264 c 2
 697 -168 l 2
 716.333333333 -122.666666667 736.5 -87 757.5 -61 c 128
 778.5 -35 805.666666667 -16.6666666667 839 -6 c 1
 786.333333333 6.66666666667 751 34 733 76 c 0
 723 101.333333333 718 129 718 159 c 0
 718 171.666666667 718.333333333 181.666666667 719 189 c 128
 719.666666667 196.333333333 721.666666667 207.666666667 725 223 c 0
 739 289.666666667 767.833333333 354.5 811.5 417.5 c 128
 855.166666667 480.5 897 518.333333333 937 531 c 1
 968 508 l 1
 926 478 897 428.333333333 881 359 c 0
 877 339.666666667 875 322 875 306 c 0
 875 299.333333333 875.5 292.5 876.5 285.5 c 128
 877.5 278.5 879.333333333 270.333333333 882 261 c 0
 892 234.333333333 909.333333333 221 934 221 c 0
 1018.66666667 221 1075.66666667 290.666666667 1105 430 c 0
 1111 458 1114 485 1114 511 c 0
 1114 559 1103.66666667 603.333333333 1083 644 c 0
 1051 708 1003.66666667 758.333333333 941 795 c 128
 878.333333333 831.666666667 810 850 736 850 c 0
 610.666666667 850 500.833333333 825.333333333 406.5 776 c 128
 312.166666667 726.666666667 241.333333333 650.333333333 194 547 c 1
 238.666666667 593.666666667 299.666666667 617 377 617 c 0
 449 617 503 594.666666667 539 550 c 0
 564.333333333 520 577 482.666666667 577 438 c 0
 577 420 575 401 571 381 c 0
 555 305 523.666666667 243 477 195 c 128
 430.333333333 147 372.333333333 123 303 123 c 0
 218.333333333 123 157.666666667 154.333333333 121 217 c 0
 97 259 85 306.333333333 85 359 c 0
 85 383 88.3333333333 411.666666667 95 445 c 0
 125.666666667 592.333333333 197.833333333 708.666666667 311.5 794 c 128
 425.166666667 879.333333333 578 922 770 922 c 0
 869.333333333 922 954 908.666666667 1024 882 c 128
 1094 855.333333333 1148.66666667 819.833333333 1188 775.5 c 128
 1227.33333333 731.166666667 1252.33333333 679.666666667 1263 621 c 0
 1265.66666667 607 1267.66666667 593.833333333 1269 581.5 c 128
 1270.33333333 569.166666667 1271 555 1271 539 c 0
 1271 503.666666667 1267.66666667 469.333333333 1261 436 c 0
416 377 m 0
 419.333333333 392.333333333 421 406.333333333 421 419 c 0
 421 425 420.5 431.5 419.5 438.5 c 128
 418.5 445.5 417.666666667 450.666666667 417 454 c 0
 413 476.666666667 402.666666667 495.833333333 386 511.5 c 128
 369.333333333 527.166666667 349 535 325 535 c 0
 290.333333333 535 259 526.666666667 231 510 c 128
 203 493.333333333 181.333333333 471 166 443 c 1
 162.666666667 427.666666667 161 410 161 390 c 0
 161 360 167 330.333333333 179 301 c 0
 198.333333333 255 231.666666667 232 279 232 c 0
 315 232 344.5 245.5 367.5 272.5 c 128
 390.5 299.5 406.666666667 334.333333333 416 377 c 0
EndSplineSet
EndChar

StartChar: u0B93
Encoding: 51 2963 51
Width: 1434
Flags: HW
AnchorPoint: "V" 678 932 basechar 0
AnchorPoint: "N" 678 -491.768 basechar 0
LayerCount: 2
Fore
SplineSet
1261 436 m 0
 1247 370 1225 312.833333333 1195 264.5 c 128
 1165 216.166666667 1128 178.333333333 1084 151 c 0
 1042.66666667 125.666666667 998 113 950 113 c 0
 881.333333333 113 840 134.333333333 826 177 c 0
 818.666666667 199 815 223.666666667 815 251 c 0
 815 263.666666667 816 278.333333333 818 295 c 128
 820 311.666666667 822.666666667 328.666666667 826 346 c 1
 798 287.333333333 780.666666667 243 774 213 c 0
 772 205.666666667 770.666666667 198 770 190 c 128
 769.333333333 182 769 174 769 166 c 0
 769 128.666666667 781.666666667 101.666666667 807 85 c 0
 825.666666667 73 848.666666667 63.6666666667 876 57 c 128
 903.333333333 50.3333333333 935.666666667 47 973 47 c 2
 1128 47 l 1
 1111 -33 l 1
 997 -33 l 2
 969 -33 944.5 -40.6666666667 923.5 -56 c 128
 902.5 -71.3333333333 884 -92 868 -118 c 0
 861.333333333 -129.333333333 855.333333333 -139.666666667 850 -149 c 0
 837.333333333 -171 825 -194.666666667 813 -220 c 2
 762 -318 l 1
 688.666666667 -447.333333333 568.333333333 -512 401 -512 c 0
 330.333333333 -512 271 -500.333333333 223 -477 c 128
 175 -453.666666667 141.666666667 -422.333333333 123 -383 c 0
 110.333333333 -357.666666667 104 -329.666666667 104 -299 c 0
 104 -289 104 -289 104 -282.5 c 128
 104 -278.166666667 105.666666667 -266.666666667 109 -248 c 0
 123.666666667 -181.333333333 153.333333333 -127.166666667 198 -85.5 c 128
 242.666666667 -43.8333333333 297.333333333 -23 362 -23 c 0
 428.666666667 -23 477.333333333 -38.6666666667 508 -70 c 0
 532 -93.3333333333 544 -121.666666667 544 -155 c 0
 544 -165 543 -175 541 -185 c 0
 528.333333333 -244.333333333 495.333333333 -292 442 -328 c 1
 377 -291 l 1
 414.333333333 -261 436.333333333 -227.666666667 443 -191 c 0
 444.333333333 -187 445 -180.666666667 445 -172 c 0
 445 -154 438.333333333 -138.666666667 425 -126 c 0
 409 -109.333333333 383.333333333 -101 348 -101 c 0
 306.666666667 -101 271 -113.666666667 241 -139 c 128
 211 -164.333333333 191 -200.666666667 181 -248 c 0
 179 -258 178 -268 178 -278 c 0
 178 -317.333333333 195.333333333 -352.666666667 230 -384 c 0
 274 -422 341.666666667 -441 433 -441 c 0
 477.666666667 -441 515.166666667 -431.833333333 545.5 -413.5 c 128
 575.833333333 -395.166666667 599.666666667 -372.5 617 -345.5 c 128
 634.333333333 -318.5 650.333333333 -287.333333333 665 -252 c 2
 713 -135 l 2
 744.333333333 -65 786.333333333 -22 839 -6 c 1
 786.333333333 6.66666666667 751 34 733 76 c 0
 723 101.333333333 718 129 718 159 c 0
 718 171.666666667 718.333333333 181.666666667 719 189 c 128
 719.666666667 196.333333333 721.666666667 207.666666667 725 223 c 0
 739 289.666666667 767.833333333 354.5 811.5 417.5 c 128
 855.166666667 480.5 897 518.333333333 937 531 c 1
 968 508 l 1
 926 478 897 428.333333333 881 359 c 0
 877 339.666666667 875 322 875 306 c 0
 875 299.333333333 875.5 292.5 876.5 285.5 c 128
 877.5 278.5 879.333333333 270.333333333 882 261 c 0
 892 234.333333333 909.333333333 221 934 221 c 0
 1018.66666667 221 1075.66666667 290.666666667 1105 430 c 0
 1111 458 1114 485 1114 511 c 0
 1114 559 1103.66666667 603.333333333 1083 644 c 0
 1051 708 1003.66666667 758.333333333 941 795 c 128
 878.333333333 831.666666667 810 850 736 850 c 0
 610.666666667 850 500.833333333 825.333333333 406.5 776 c 128
 312.166666667 726.666666667 241.333333333 650.333333333 194 547 c 1
 238.666666667 593.666666667 299.666666667 617 377 617 c 0
 449 617 503 594.666666667 539 550 c 0
 564.333333333 520 577 482.666666667 577 438 c 0
 577 420 575 401 571 381 c 0
 555 305 523.666666667 243 477 195 c 128
 430.333333333 147 372.333333333 123 303 123 c 0
 218.333333333 123 157.666666667 154.333333333 121 217 c 0
 97 259 85 306.333333333 85 359 c 0
 85 383 88.3333333333 411.666666667 95 445 c 0
 125.666666667 592.333333333 197.833333333 708.666666667 311.5 794 c 128
 425.166666667 879.333333333 578 922 770 922 c 0
 869.333333333 922 954 908.666666667 1024 882 c 128
 1094 855.333333333 1148.66666667 819.833333333 1188 775.5 c 128
 1227.33333333 731.166666667 1252.33333333 679.666666667 1263 621 c 0
 1265.66666667 607 1267.66666667 593.833333333 1269 581.5 c 128
 1270.33333333 569.166666667 1271 555 1271 539 c 0
 1271 503.666666667 1267.66666667 469.333333333 1261 436 c 0
416 377 m 0
 419.333333333 392.333333333 421 406.333333333 421 419 c 0
 421 425 420.5 431.5 419.5 438.5 c 128
 418.5 445.5 417.666666667 450.666666667 417 454 c 0
 413 476.666666667 402.666666667 495.833333333 386 511.5 c 128
 369.333333333 527.166666667 349 535 325 535 c 0
 290.333333333 535 259 526.666666667 231 510 c 128
 203 493.333333333 181.333333333 471 166 443 c 1
 162.666666667 427.666666667 161 410 161 390 c 0
 161 360 167 330.333333333 179 301 c 0
 198.333333333 255 231.666666667 232 279 232 c 0
 315 232 344.5 245.5 367.5 272.5 c 128
 390.5 299.5 406.666666667 334.333333333 416 377 c 0
EndSplineSet
EndChar

StartChar: u0B95
Encoding: 53 2965 53
Width: 1270
Flags: HW
AnchorPoint: "V" 776 932 basechar 0
AnchorPoint: "N" 776 0 basechar 0
LayerCount: 2
Fore
SplineSet
1118 248 m 0
 1101.33333333 168.666666667 1065.5 107.5 1010.5 64.5 c 128
 955.5 21.5 889.666666667 0 813 0 c 0
 682.333333333 0 617 36.3333333333 617 109 c 1
 589.666666667 82.3333333333 547.833333333 57.5 491.5 34.5 c 128
 435.166666667 11.5 377.333333333 0 318 0 c 0
 221.333333333 0 149.666666667 24.3333333333 103 73 c 0
 69.6666666667 106.333333333 53 152 53 210 c 0
 53 219.333333333 53.1666666667 229.666666667 53.5 241 c 128
 53.8333333333 252.333333333 56.3333333333 268.333333333 61 289 c 0
 71.6666666667 340.333333333 92.6666666667 384.666666667 124 422 c 128
 155.333333333 459.333333333 187.666666667 486.833333333 221 504.5 c 128
 254.333333333 522.166666667 280.666666667 531 300 531 c 1
 383 922 l 1
 1048 922 l 1
 1033 850 l 1
 828 850 l 1
 760 533 l 1
 846 533 917.333333333 527.166666667 974 515.5 c 128
 1030.66666667 503.833333333 1072.66666667 477 1100 435 c 0
 1118.66666667 409.666666667 1128 375.666666667 1128 333 c 0
 1128 305.666666667 1124.66666667 277.333333333 1118 248 c 0
607 533 m 1
 675 850 l 1
 439 850 l 1
 371 533 l 1
 607 533 l 1
974 244 m 0
 980 274 983 300.333333333 983 323 c 0
 983 351 978.666666667 373.333333333 970 390 c 0
 952.666666667 421.333333333 926.833333333 441 892.5 449 c 128
 858.166666667 457 809 461 745 461 c 1
 693 217 l 2
 689 197 687 179 687 163 c 0
 687 141 691.666666667 122.666666667 701 108 c 0
 716.333333333 84 747 72 793 72 c 0
 832.333333333 72 869.333333333 86.3333333333 904 115 c 128
 938.666666667 143.666666667 962 186.666666667 974 244 c 0
539 211 m 2
 592 461 l 1
 324 461 l 2
 305.333333333 461 282.333333333 454.833333333 255 442.5 c 128
 227.666666667 430.166666667 202.166666667 409.666666667 178.5 381 c 128
 154.833333333 352.333333333 138.666666667 315.666666667 130 271 c 0
 125.333333333 250.333333333 123 230.333333333 123 211 c 0
 123 118.333333333 185.333333333 72 310 72 c 0
 325.333333333 72 339.666666667 73.3333333333 353 76 c 128
 366.333333333 78.6666666667 382.666666667 84 402 92 c 0
 436 105.333333333 465.833333333 122.666666667 491.5 144 c 128
 517.166666667 165.333333333 533 187.666666667 539 211 c 2
EndSplineSet
EndChar

StartChar: u0B95_u0BBF
Encoding: 54 -1 54
Width: 1495
Flags: HW
AnchorPoint: "V" 776 1464.68 basechar 0
AnchorPoint: "N" 776 0 basechar 0
LayerCount: 2
Fore
SplineSet
1290 0 m 1
 1229 0 l 1
 1426 926 l 2
 1431.33333333 952.666666667 1434 976.666666667 1434 998 c 0
 1434 1029.33333333 1429.33333333 1058.33333333 1420 1085 c 128
 1410.66666667 1111.66666667 1398.83333333 1135.5 1384.5 1156.5 c 128
 1370.16666667 1177.5 1352.33333333 1197.33333333 1331 1216 c 0
 1289.66666667 1252.66666667 1237.5 1281 1174.5 1301 c 128
 1111.5 1321 1041 1331 963 1331 c 0
 826.333333333 1331 708.333333333 1312.66666667 609 1276 c 128
 509.666666667 1239.33333333 431.666666667 1188.5 375 1123.5 c 128
 318.333333333 1058.5 281 983.666666667 263 899 c 0
 254.333333333 857.666666667 250 815.333333333 250 772 c 0
 250 752.666666667 251 733.333333333 253 714 c 0
 259.666666667 654 278.333333333 606.666666667 309 572 c 1
 383 922 l 1
 1048 922 l 1
 1033 850 l 1
 828 850 l 1
 760 533 l 1
 846 533 917.333333333 527.166666667 974 515.5 c 128
 1030.66666667 503.833333333 1072.66666667 477 1100 435 c 0
 1118.66666667 409.666666667 1128 375.666666667 1128 333 c 0
 1128 305.666666667 1124.66666667 277.333333333 1118 248 c 0
 1101.33333333 168.666666667 1065.5 107.5 1010.5 64.5 c 128
 955.5 21.5 889.666666667 0 813 0 c 0
 682.333333333 0 617 36.3333333333 617 109 c 1
 589.666666667 82.3333333333 547.833333333 57.5 491.5 34.5 c 128
 435.166666667 11.5 377.333333333 0 318 0 c 0
 221.333333333 0 149.666666667 24.3333333333 103 73 c 0
 69.6666666667 106.333333333 53 152 53 210 c 0
 53 219.333333333 53.1666666667 229.666666667 53.5 241 c 128
 53.8333333333 252.333333333 56.3333333333 268.333333333 61 289 c 0
 73.6666666667 348.333333333 99.3333333333 398.333333333 138 439 c 0
 157.333333333 458.333333333 176.833333333 474.833333333 196.5 488.5 c 128
 216.166666667 502.166666667 236.333333333 512.666666667 257 520 c 1
 201 577.333333333 173 654.333333333 173 751 c 0
 173 794.333333333 178.333333333 840.333333333 189 889 c 0
 211.666666667 997.666666667 255.5 1096.83333333 320.5 1186.5 c 128
 385.5 1276.16666667 474.833333333 1348.33333333 588.5 1403 c 128
 702.166666667 1457.66666667 837.333333333 1485 994 1485 c 0
 1133.33333333 1485 1243.66666667 1463.66666667 1325 1421 c 128
 1406.33333333 1378.33333333 1460 1314 1486 1228 c 0
 1498.66666667 1183.33333333 1505 1136.33333333 1505 1087 c 0
 1505 1034.33333333 1498 976 1484 912 c 2
 1290 0 l 1
607 533 m 1
 675 850 l 1
 439 850 l 1
 371 533 l 1
 607 533 l 1
974 244 m 0
 980 274 983 300.333333333 983 323 c 0
 983 351 978.666666667 373.333333333 970 390 c 0
 952.666666667 421.333333333 926.833333333 441 892.5 449 c 128
 858.166666667 457 809 461 745 461 c 1
 693 217 l 2
 689 197 687 179 687 163 c 0
 687 141 691.666666667 122.666666667 701 108 c 0
 716.333333333 84 747 72 793 72 c 0
 832.333333333 72 869.333333333 86.3333333333 904 115 c 128
 938.666666667 143.666666667 962 186.666666667 974 244 c 0
539 211 m 2
 592 461 l 1
 324 461 l 2
 305.333333333 461 282.333333333 454.833333333 255 442.5 c 128
 227.666666667 430.166666667 202.166666667 409.666666667 178.5 381 c 128
 154.833333333 352.333333333 138.666666667 315.666666667 130 271 c 0
 125.333333333 250.333333333 123 230.333333333 123 211 c 0
 123 118.333333333 185.333333333 72 310 72 c 0
 325.333333333 72 339.666666667 73.3333333333 353 76 c 128
 366.333333333 78.6666666667 382.666666667 84 402 92 c 0
 436 105.333333333 465.833333333 122.666666667 491.5 144 c 128
 517.166666667 165.333333333 533 187.666666667 539 211 c 2
EndSplineSet
EndChar

StartChar: u0B95_u0BC0
Encoding: 55 -1 55
Width: 1270
Flags: HW
AnchorPoint: "V" 776 1508.95 basechar 0
AnchorPoint: "N" 776 0 basechar 0
LayerCount: 2
Fore
SplineSet
1182 1233 m 0
 1184 1244.33333333 1185 1255 1185 1265 c 0
 1185 1291.66666667 1177.66666667 1314.66666667 1163 1334 c 0
 1141.66666667 1362.66666667 1110.33333333 1377 1069 1377 c 1
 1032.33333333 1370.33333333 1000 1353 972 1325 c 128
 944 1297 926.666666667 1265.66666667 920 1231 c 0
 918 1221 917 1211 917 1201 c 0
 917 1189 919.5 1175.16666667 924.5 1159.5 c 128
 929.5 1143.83333333 940.666666667 1129.33333333 958 1116 c 0
 975.333333333 1104 995.333333333 1098 1018 1098 c 0
 1054.66666667 1098 1088.83333333 1111.16666667 1120.5 1137.5 c 128
 1152.16666667 1163.83333333 1172.66666667 1195.66666667 1182 1233 c 0
607 533 m 1
 675 850 l 1
 439 850 l 1
 371 533 l 1
 607 533 l 1
974 244 m 0
 980 274 983 300.333333333 983 323 c 0
 983 351 978.666666667 373.333333333 970 390 c 0
 952.666666667 421.333333333 926.833333333 441 892.5 449 c 128
 858.166666667 457 809 461 745 461 c 1
 693 217 l 2
 689 197 687 179 687 163 c 0
 687 141 691.666666667 122.666666667 701 108 c 0
 716.333333333 84 747 72 793 72 c 0
 832.333333333 72 869.333333333 86.3333333333 904 115 c 128
 938.666666667 143.666666667 962 186.666666667 974 244 c 0
539 211 m 2
 592 461 l 1
 324 461 l 2
 305.333333333 461 282.333333333 454.833333333 255 442.5 c 128
 227.666666667 430.166666667 202.166666667 409.666666667 178.5 381 c 128
 154.833333333 352.333333333 138.666666667 315.666666667 130 271 c 0
 125.333333333 250.333333333 123 230.333333333 123 211 c 0
 123 118.333333333 185.333333333 72 310 72 c 0
 325.333333333 72 339.666666667 73.3333333333 353 76 c 128
 366.333333333 78.6666666667 382.666666667 84 402 92 c 0
 436 105.333333333 465.833333333 122.666666667 491.5 144 c 128
 517.166666667 165.333333333 533 187.666666667 539 211 c 2
257 520 m 1
 201 577.333333333 173 654.333333333 173 751 c 0
 173 794.333333333 178.333333333 840.333333333 189 889 c 0
 209 983 243.5 1069.83333333 292.5 1149.5 c 128
 341.5 1229.16666667 401.833333333 1297.83333333 473.5 1355.5 c 128
 545.166666667 1413.16666667 624.666666667 1457.66666667 712 1489 c 0
 754.666666667 1504.33333333 798.833333333 1516 844.5 1524 c 128
 890.166666667 1532 936.666666667 1536 984 1536 c 0
 1085.33333333 1536 1170 1515 1238 1473 c 0
 1290 1441 1316 1391.33333333 1316 1324 c 0
 1316 1305.33333333 1313.33333333 1282.66666667 1308 1256 c 0
 1295.33333333 1193.33333333 1262.5 1140.66666667 1209.5 1098 c 128
 1156.5 1055.33333333 1095 1034 1025 1034 c 0
 959 1034 910.333333333 1053.66666667 879 1093 c 0
 857.666666667 1121.66666667 847 1154 847 1190 c 0
 847 1202 848.666666667 1216.33333333 852 1233 c 0
 860 1269 875.5 1303.5 898.5 1336.5 c 128
 921.5 1369.5 947.666666667 1393.66666667 977 1409 c 1
 951.666666667 1413 927 1415 903 1415 c 0
 798.333333333 1415 700.5 1389.33333333 609.5 1338 c 128
 518.5 1286.66666667 442.166666667 1220.66666667 380.5 1140 c 128
 318.833333333 1059.33333333 279.666666667 979 263 899 c 0
 254.333333333 857.666666667 250 815.333333333 250 772 c 0
 250 752.666666667 251 733.333333333 253 714 c 0
 259.666666667 654 278.333333333 606.666666667 309 572 c 1
 383 922 l 1
 1048 922 l 1
 1033 850 l 1
 828 850 l 1
 760 533 l 1
 846 533 917.333333333 527.166666667 974 515.5 c 128
 1030.66666667 503.833333333 1072.66666667 477 1100 435 c 0
 1118.66666667 409.666666667 1128 375.666666667 1128 333 c 0
 1128 305.666666667 1124.66666667 277.333333333 1118 248 c 0
 1101.33333333 168.666666667 1065.5 107.5 1010.5 64.5 c 128
 955.5 21.5 889.666666667 0 813 0 c 0
 682.333333333 0 617 36.3333333333 617 109 c 1
 589.666666667 82.3333333333 547.833333333 57.5 491.5 34.5 c 128
 435.166666667 11.5 377.333333333 0 318 0 c 0
 221.333333333 0 149.666666667 24.3333333333 103 73 c 0
 69.6666666667 106.333333333 53 152 53 210 c 0
 53 219.333333333 53.1666666667 229.666666667 53.5 241 c 128
 53.8333333333 252.333333333 56.3333333333 268.333333333 61 289 c 0
 73.6666666667 348.333333333 99.3333333333 398.333333333 138 439 c 0
 157.333333333 458.333333333 176.833333333 474.833333333 196.5 488.5 c 128
 216.166666667 502.166666667 236.333333333 512.666666667 257 520 c 1
EndSplineSet
EndChar

StartChar: u0B95_u0BC1
Encoding: 56 -1 56
Width: 1608
Flags: HW
AnchorPoint: "V" 776 932 basechar 0
AnchorPoint: "N" 776 0 basechar 0
LayerCount: 2
Fore
SplineSet
1073 461 m 1
 1021 217 l 2
 1015 188.333333333 994.666666667 157 960 123 c 128
 925.333333333 89 880.333333333 60 825 36 c 128
 769.666666667 12 709.666666667 0 645 0 c 0
 548.333333333 0 476.666666667 24.3333333333 430 73 c 0
 396.666666667 107.666666667 380 153.666666667 380 211 c 0
 380 235 383 261 389 289 c 0
 399.666666667 340.333333333 420.666666667 384.666666667 452 422 c 128
 483.333333333 459.333333333 515.5 486.833333333 548.5 504.5 c 128
 581.5 522.166666667 607.666666667 531 627 531 c 1
 710 922 l 1
 1376 922 l 1
 1361 850 l 1
 1156 850 l 1
 1088 533 l 1
 1182.66666667 533 1259.16666667 523.5 1317.5 504.5 c 128
 1375.83333333 485.5 1416.33333333 452.666666667 1439 406 c 0
 1452.33333333 378 1459 344.666666667 1459 306 c 0
 1459 275.333333333 1455.33333333 244.333333333 1448 213 c 0
 1421.33333333 88.3333333333 1379.83333333 -18.6666666667 1323.5 -108 c 128
 1267.16666667 -197.333333333 1181 -270 1065 -326 c 128
 949 -382 797.333333333 -410 610 -410 c 0
 456 -410 333 -380.833333333 241 -322.5 c 128
 149 -264.166666667 89 -180.666666667 61 -72 c 0
 47.6666666667 -20 41 35.3333333333 41 94 c 0
 41 160 49 231 65 307 c 0
 84.3333333333 395.666666667 110.666666667 478.666666667 144 556 c 0
 160.666666667 594.666666667 179.166666667 632.333333333 199.5 669 c 128
 219.833333333 705.666666667 241.5 739.666666667 264.5 771 c 128
 287.5 802.333333333 310.166666667 830 332.5 854 c 128
 354.833333333 878 379.666666667 900.666666667 407 922 c 1
 443 881 l 1
 369 819.666666667 305.666666667 737.666666667 253 635 c 128
 200.333333333 532.333333333 161.333333333 421 136 301 c 0
 123.333333333 241.666666667 117 184.333333333 117 129 c 256
 117 73.6666666667 123.333333333 22 136 -26 c 0
 162 -122.666666667 215.166666667 -198.833333333 295.5 -254.5 c 128
 375.833333333 -310.166666667 480 -338 608 -338 c 0
 761.333333333 -338 885.666666667 -312.833333333 981 -262.5 c 128
 1076.33333333 -212.166666667 1146.83333333 -147.166666667 1192.5 -67.5 c 128
 1238.16666667 12.1666666667 1272 104.333333333 1294 209 c 0
 1300 239 1303 266 1303 290 c 0
 1303 334.666666667 1292.66666667 370.666666667 1272 398 c 0
 1240 440 1173.66666667 461 1073 461 c 1
934 533 m 1
 1002 850 l 1
 767 850 l 1
 699 533 l 1
 934 533 l 1
866 211 m 2
 919 461 l 1
 651 461 l 2
 633 461 610 455 582 443 c 0
 569.333333333 437 556.833333333 429 544.5 419 c 128
 532.166666667 409 519.666666667 396.666666667 507 382 c 0
 483 352.666666667 466.666666667 315.666666667 458 271 c 0
 453.333333333 250.333333333 451 230.333333333 451 211 c 0
 451 118.333333333 513.333333333 72 638 72 c 0
 665.333333333 72 696.166666667 78.8333333333 730.5 92.5 c 128
 764.833333333 106.166666667 794.666666667 123.333333333 820 144 c 0
 831.333333333 154 841.166666667 164.833333333 849.5 176.5 c 128
 857.833333333 188.166666667 863.333333333 199.666666667 866 211 c 2
EndSplineSet
EndChar

StartChar: u0B95_u0BC2
Encoding: 57 -1 57
Width: 1784
VWidth: 1462
Flags: HW
AnchorPoint: "V" 776 932 basechar 0
AnchorPoint: "N" 776 0 basechar 0
LayerCount: 2
Fore
SplineSet
335.713867188 463.571289062 m 0
 290 463.571289062 182.142578125 421.428710938 142.857421875 274.286132812 c 0
 107.142578125 142.142578125 159.286132812 75.7138671875 297.142578125 75.7138671875 c 0
 383.571289062 75.7138671875 499.286132812 149.286132812 517.857421875 213.571289062 c 0
 585 463.571289062 l 0
 335.713867188 463.571289062 l 0
604.286132812 535 m 0
 689.286132812 851.428710938 l 0
 470 851.428710938 l 0
 385 535 l 0
 604.286132812 535 l 0
834.286132812 70.7138671875 m 0
 876.428710938 70.7138671875 947.142578125 102.142578125 990.713867188 263.571289062 c 0
 1015.71386719 357.142578125 971.428710938 428.571289062 932.142578125 442.857421875 c 0
 882.857421875 407.142578125 820 377.142578125 779.286132812 225 c 0
 743.571289062 92.857421875 801.428710938 70.7138671875 834.286132812 70.7138671875 c 0
747.857421875 535 m 0
 961.428710938 535 l 0
 1005 557.857421875 1089.28613281 594.286132812 1183.57128906 594.286132812 c 0
 1499.28613281 594.286132812 1465 375 1447.85742188 310 c 0
 1417.85742188 197.142578125 1320 117.142578125 1242.14257812 70.7138671875 c 0
 1547.14257812 70.7138671875 l 0
 1528.57128906 -0.7138671875 l 0
 1027.14257812 -0.7138671875 l 0
 1046.42871094 70.7138671875 l 0
 1181.42871094 140 1280.71386719 217.857421875 1302.85742188 301.428710938 c 0
 1338.57128906 435.713867188 1281.42871094 510.713867188 1180.71386719 510.713867188 c 0
 1145.71386719 510.713867188 1070.71386719 510.713867188 1030.71386719 485.713867188 c 0
 1057.85742188 444.286132812 1128.57128906 392.142578125 1086.42871094 235.713867188 c 0
 1055 118.571289062 947.142578125 -1.4287109375 838.571289062 -1.4287109375 c 0
 767.857421875 -1.4287109375 663.571289062 37.142578125 710.713867188 214.286132812 c 0
 755.713867188 382.857421875 854.286132812 461.428710938 854.286132812 461.428710938 c 0
 727.142578125 461.428710938 l 0
 662.142578125 217.857421875 l 0
 631.428710938 104.286132812 449.286132812 2.142578125 299.286132812 2.142578125 c 0
 125 2.142578125 28.5712890625 93.5712890625 81.4287109375 290.713867188 c 0
 128.571289062 465.713867188 276.428710938 532.142578125 319.286132812 532.142578125 c 0
 423.571289062 922.857421875 l 0
 1042.14257812 922.857421875 l 0
 1023.57128906 851.428710938 l 0
 832.857421875 851.428710938 l 0
 747.857421875 535 l 0
EndSplineSet
EndChar

StartChar: u0B95_u0BC2.old
Encoding: 58 -1 58
Width: 1925
Flags: HW
AnchorPoint: "V" 776 932 basechar 0
AnchorPoint: "N" 776 0 basechar 0
LayerCount: 2
Fore
SplineSet
1083 471 m 1
 1126.33333333 523 1221 549 1367 549 c 0
 1444.33333333 549 1508.66666667 528.666666667 1560 488 c 0
 1598.66666667 457.333333333 1618 416 1618 364 c 0
 1618 347.333333333 1616 330 1612 312 c 0
 1602 262 1577.33333333 216.333333333 1538 175 c 128
 1498.66666667 133.666666667 1455.33333333 99.3333333333 1408 72 c 1
 1736 72 l 1
 1721 0 l 1
 1182 0 l 1
 1197 72 l 1
 1337 141.333333333 1416 217.666666667 1434 301 c 0
 1434.66666667 307 1435.5 312.666666667 1436.5 318 c 128
 1437.5 323.333333333 1438 329.666666667 1438 337 c 0
 1438 351 1434.66666667 366.333333333 1428 383 c 0
 1419.33333333 407 1403 426.333333333 1379 441 c 128
 1355 455.666666667 1326.66666667 463 1294 463 c 0
 1242.66666667 463 1198 454.666666667 1160 438 c 128
 1122 421.333333333 1096.33333333 399 1083 371 c 1
 1004 0 l 1
 850 0 l 1
 948 461 l 1
 745 461 l 1
 693 217 l 2
 685 179.666666667 661.333333333 144.5 622 111.5 c 128
 582.666666667 78.5 535 51.6666666667 479 31 c 128
 423 10.3333333333 369.333333333 0 318 0 c 0
 221.333333333 0 149.666666667 24.3333333333 103 73 c 0
 69.6666666667 106.333333333 53 152 53 210 c 0
 53 219.333333333 53.1666666667 229.666666667 53.5 241 c 128
 53.8333333333 252.333333333 56.3333333333 268.333333333 61 289 c 0
 71.6666666667 340.333333333 92.6666666667 384.666666667 124 422 c 128
 155.333333333 459.333333333 187.666666667 486.833333333 221 504.5 c 128
 254.333333333 522.166666667 280.666666667 531 300 531 c 1
 383 922 l 1
 1048 922 l 1
 1033 850 l 1
 828 850 l 1
 760 533 l 1
 1012 533 l 2
 1027.33333333 533 1042.33333333 527.666666667 1057 517 c 0
 1074.33333333 506.333333333 1083 491 1083 471 c 1
607 533 m 1
 675 850 l 1
 439 850 l 1
 371 533 l 1
 607 533 l 1
539 211 m 2
 592 461 l 1
 324 461 l 2
 305.333333333 461 282.333333333 454.833333333 255 442.5 c 128
 227.666666667 430.166666667 202.166666667 409.666666667 178.5 381 c 128
 154.833333333 352.333333333 138.666666667 315.666666667 130 271 c 0
 125.333333333 250.333333333 123 230.333333333 123 211 c 0
 123 118.333333333 185.333333333 72 310 72 c 0
 325.333333333 72 339.666666667 73.3333333333 353 76 c 128
 366.333333333 78.6666666667 382.666666667 84 402 92 c 0
 436 105.333333333 465.833333333 122.666666667 491.5 144 c 128
 517.166666667 165.333333333 533 187.666666667 539 211 c 2
EndSplineSet
EndChar

StartChar: u0B95_u0BCD
Encoding: 59 -1 59
Width: 1270
Flags: HW
AnchorPoint: "N" 776 0 basechar 0
LayerCount: 2
Fore
SplineSet
892 1192 m 0
 886 1161.33333333 868.666666667 1134.16666667 840 1110.5 c 128
 811.333333333 1086.83333333 781.333333333 1075 750 1075 c 0
 719.333333333 1075 695 1086.66666667 677 1110 c 0
 663.666666667 1127.33333333 657 1147 657 1169 c 0
 657 1174 657 1174 657 1180 c 0
 658.333333333 1185.33333333 659 1189.33333333 659 1192 c 0
 665.666666667 1224 683.166666667 1251.5 711.5 1274.5 c 128
 739.833333333 1297.5 769.333333333 1309 800 1309 c 0
 832.666666667 1309 858 1297.33333333 876 1274 c 0
 882 1266.66666667 886.666666667 1258.16666667 890 1248.5 c 128
 893.333333333 1238.83333333 895 1229 895 1219 c 0
 895 1210.33333333 894 1201.33333333 892 1192 c 0
1118 248 m 0
 1101.33333333 168.666666667 1065.5 107.5 1010.5 64.5 c 128
 955.5 21.5 889.666666667 0 813 0 c 0
 682.333333333 0 617 36.3333333333 617 109 c 1
 589.666666667 82.3333333333 547.833333333 57.5 491.5 34.5 c 128
 435.166666667 11.5 377.333333333 0 318 0 c 0
 221.333333333 0 149.666666667 24.3333333333 103 73 c 0
 69.6666666667 106.333333333 53 152 53 210 c 0
 53 219.333333333 53.1666666667 229.666666667 53.5 241 c 128
 53.8333333333 252.333333333 56.3333333333 268.333333333 61 289 c 0
 71.6666666667 340.333333333 92.6666666667 384.666666667 124 422 c 128
 155.333333333 459.333333333 187.666666667 486.833333333 221 504.5 c 128
 254.333333333 522.166666667 280.666666667 531 300 531 c 1
 383 922 l 1
 1048 922 l 1
 1033 850 l 1
 828 850 l 1
 760 533 l 1
 846 533 917.333333333 527.166666667 974 515.5 c 128
 1030.66666667 503.833333333 1072.66666667 477 1100 435 c 0
 1118.66666667 409.666666667 1128 375.666666667 1128 333 c 0
 1128 305.666666667 1124.66666667 277.333333333 1118 248 c 0
607 533 m 1
 675 850 l 1
 439 850 l 1
 371 533 l 1
 607 533 l 1
974 244 m 0
 980 274 983 300.333333333 983 323 c 0
 983 351 978.666666667 373.333333333 970 390 c 0
 952.666666667 421.333333333 926.833333333 441 892.5 449 c 128
 858.166666667 457 809 461 745 461 c 1
 693 217 l 2
 689 197 687 179 687 163 c 0
 687 141 691.666666667 122.666666667 701 108 c 0
 716.333333333 84 747 72 793 72 c 0
 832.333333333 72 869.333333333 86.3333333333 904 115 c 128
 938.666666667 143.666666667 962 186.666666667 974 244 c 0
539 211 m 2
 592 461 l 1
 324 461 l 2
 305.333333333 461 282.333333333 454.833333333 255 442.5 c 128
 227.666666667 430.166666667 202.166666667 409.666666667 178.5 381 c 128
 154.833333333 352.333333333 138.666666667 315.666666667 130 271 c 0
 125.333333333 250.333333333 123 230.333333333 123 211 c 0
 123 118.333333333 185.333333333 72 310 72 c 0
 325.333333333 72 339.666666667 73.3333333333 353 76 c 128
 366.333333333 78.6666666667 382.666666667 84 402 92 c 0
 436 105.333333333 465.833333333 122.666666667 491.5 144 c 128
 517.166666667 165.333333333 533 187.666666667 539 211 c 2
EndSplineSet
EndChar

StartChar: u0B99
Encoding: 60 2969 60
Width: 1434
Flags: HW
AnchorPoint: "V" 864 932 basechar 0
AnchorPoint: "N" 864 0 basechar 0
LayerCount: 2
Fore
SplineSet
1229 0 m 1
 307 0 l 1
 320 62 l 1
 558 62 l 1
 616 82.6666666667 663.666666667 118.333333333 701 169 c 0
 719.666666667 193 735.666666667 219.666666667 749 249 c 128
 762.333333333 278.333333333 772.333333333 308.666666667 779 340 c 0
 783 360 785 378 785 394 c 0
 785 424 777.666666667 448.333333333 763 467 c 0
 741.666666667 497 712 512 674 512 c 0
 650.666666667 512 627.666666667 505 605 491 c 128
 582.333333333 477 564.666666667 456.666666667 552 430 c 1
 518 266 l 1
 364 266 l 1
 488 850 l 1
 253 850 l 1
 72 0 l 1
 0 0 l 1
 196 922 l 1
 862 922 l 1
 847 850 l 1
 642 850 l 1
 577 547 l 1
 618.333333333 588.333333333 669 609 729 609 c 0
 769.666666667 609 806.833333333 598.5 840.5 577.5 c 128
 874.166666667 556.5 899.333333333 524.333333333 916 481 c 0
 924.666666667 457.666666667 929 431 929 401 c 0
 929 381.666666667 926.333333333 358.666666667 921 332 c 0
 905.666666667 262.666666667 880.333333333 205.333333333 845 160 c 128
 809.666666667 114.666666667 767.333333333 82 718 62 c 1
 1099 62 l 1
 1282 922 l 1
 1425 922 l 1
 1229 0 l 1
EndSplineSet
EndChar

StartChar: u0B99_u0BBF
Encoding: 61 -1 61
Width: 1628
Flags: HW
AnchorPoint: "V" 864 932 basechar 0
AnchorPoint: "N" 864 0 basechar 0
LayerCount: 2
Fore
SplineSet
1424 0 m 1
 1362 0 l 1
 1582 1034 l 2
 1590 1072 1594 1106.33333333 1594 1137 c 0
 1594 1180.33333333 1585.33333333 1215.66666667 1568 1243 c 0
 1540 1288.33333333 1481 1311 1391 1311 c 0
 1326.33333333 1311 1267.5 1291.33333333 1214.5 1252 c 128
 1161.5 1212.66666667 1127 1156.66666667 1111 1084 c 0
 1105.66666667 1058.66666667 1103 1037 1103 1019 c 0
 1103 985 1111 958 1127 938 c 0
 1154.33333333 905.333333333 1193.33333333 889 1244 889 c 1
 1251 922 l 1
 1394 922 l 1
 1198 0 l 1
 307 0 l 1
 320 62 l 1
 558 62 l 1
 616 82.6666666667 663.666666667 118.333333333 701 169 c 0
 719.666666667 193 735.666666667 219.666666667 749 249 c 128
 762.333333333 278.333333333 772.333333333 308.666666667 779 340 c 0
 783 360 785 378 785 394 c 0
 785 424 777.666666667 448.333333333 763 467 c 0
 741.666666667 497 712 512 674 512 c 0
 650.666666667 512 627.666666667 505 605 491 c 128
 582.333333333 477 564.666666667 456.666666667 552 430 c 1
 518 266 l 1
 364 266 l 1
 488 850 l 1
 253 850 l 1
 72 0 l 1
 0 0 l 1
 196 922 l 1
 862 922 l 1
 847 850 l 1
 642 850 l 1
 577 547 l 1
 618.333333333 588.333333333 669 609 729 609 c 0
 769.666666667 609 806.833333333 598.5 840.5 577.5 c 128
 874.166666667 556.5 899.333333333 524.333333333 916 481 c 0
 924.666666667 457.666666667 929 431 929 401 c 0
 929 381.666666667 926.333333333 358.666666667 921 332 c 0
 905.666666667 262.666666667 880.333333333 205.333333333 845 160 c 128
 809.666666667 114.666666667 767.333333333 82 718 62 c 1
 1068 62 l 1
 1229 817 l 1
 1182.33333333 817 1141.83333333 827.666666667 1107.5 849 c 128
 1073.16666667 870.333333333 1048.66666667 903 1034 947 c 0
 1031.33333333 957 1029 968.5 1027 981.5 c 128
 1025 994.5 1024 1007.66666667 1024 1021 c 0
 1024 1033 1025 1046.83333333 1027 1062.5 c 128
 1029 1078.16666667 1031.66666667 1094 1035 1110 c 0
 1058.33333333 1220 1104.33333333 1304.83333333 1173 1364.5 c 128
 1241.66666667 1424.16666667 1325 1454 1423 1454 c 0
 1531.66666667 1454 1603.33333333 1420.33333333 1638 1353 c 0
 1657.33333333 1314.33333333 1667 1266.33333333 1667 1209 c 0
 1667 1165 1661 1114.33333333 1649 1057 c 2
 1424 0 l 1
EndSplineSet
EndChar

StartChar: u0B99_u0BC0
Encoding: 62 -1 62
Width: 1628
Flags: HW
AnchorPoint: "V" 864 932 basechar 0
AnchorPoint: "N" 864 0 basechar 0
LayerCount: 2
Fore
SplineSet
1258 811 m 1
 1225.33333333 811 1194.66666667 822.666666667 1166 846 c 128
 1137.33333333 869.333333333 1117 903.333333333 1105 948 c 0
 1102.33333333 957.333333333 1100.33333333 968.333333333 1099 981 c 128
 1097.66666667 993.666666667 1097 1006.33333333 1097 1019 c 0
 1097 1048.33333333 1100.33333333 1079.33333333 1107 1112 c 0
 1117 1157.33333333 1130.5 1197.5 1147.5 1232.5 c 128
 1164.5 1267.5 1186.66666667 1299.66666667 1214 1329 c 0
 1266 1384.33333333 1325.16666667 1424.5 1391.5 1449.5 c 128
 1457.83333333 1474.5 1521.33333333 1487 1582 1487 c 0
 1682 1487 1766.66666667 1466 1836 1424 c 0
 1887.33333333 1392.66666667 1913 1342.66666667 1913 1274 c 0
 1913 1252 1910.66666667 1229.66666667 1906 1207 c 0
 1892 1143.66666667 1858.83333333 1090.83333333 1806.5 1048.5 c 128
 1754.16666667 1006.16666667 1692.66666667 985 1622 985 c 0
 1556.66666667 985 1508.33333333 1004.66666667 1477 1044 c 0
 1455.66666667 1071.33333333 1445 1103.33333333 1445 1140 c 0
 1445 1145.33333333 1445.16666667 1150.33333333 1445.5 1155 c 128
 1445.83333333 1159.66666667 1447.33333333 1169.33333333 1450 1184 c 0
 1457.33333333 1218 1472.83333333 1252.33333333 1496.5 1287 c 128
 1520.16666667 1321.66666667 1546.33333333 1346 1575 1360 c 1
 1549.66666667 1364 1525 1366 1501 1366 c 0
 1452.33333333 1366 1405.16666667 1352.33333333 1359.5 1325 c 128
 1313.83333333 1297.66666667 1275.33333333 1262.33333333 1244 1219 c 0
 1228.66666667 1199 1215.83333333 1177.66666667 1205.5 1155 c 128
 1195.16666667 1132.33333333 1187.33333333 1110 1182 1088 c 0
 1179.33333333 1074 1177 1059 1175 1043 c 128
 1173 1027 1172 1013.33333333 1172 1002 c 0
 1172 971.333333333 1177 945 1187 923 c 0
 1206.33333333 882.333333333 1233.66666667 862 1269 862 c 1
 1282 922 l 1
 1435 922 l 1
 1239 0 l 1
 307 0 l 1
 320 62 l 1
 558 62 l 1
 616 82.6666666667 663.666666667 118.333333333 701 169 c 0
 719.666666667 193 735.666666667 219.666666667 749 249 c 128
 762.333333333 278.333333333 772.333333333 308.666666667 779 340 c 0
 783 360 785 378 785 394 c 0
 785 424 777.666666667 448.333333333 763 467 c 0
 741.666666667 497 712 512 674 512 c 0
 650.666666667 512 627.666666667 505 605 491 c 128
 582.333333333 477 564.666666667 456.666666667 552 430 c 1
 518 266 l 1
 364 266 l 1
 488 850 l 1
 253 850 l 1
 72 0 l 1
 0 0 l 1
 196 922 l 1
 862 922 l 1
 847 850 l 1
 642 850 l 1
 577 547 l 1
 618.333333333 588.333333333 669 609 729 609 c 0
 769.666666667 609 806.833333333 598.5 840.5 577.5 c 128
 874.166666667 556.5 899.333333333 524.333333333 916 481 c 0
 924.666666667 457.666666667 929 431 929 401 c 0
 929 381.666666667 926.333333333 358.666666667 921 332 c 0
 905.666666667 262.666666667 880.333333333 205.333333333 845 160 c 128
 809.666666667 114.666666667 767.333333333 82 718 62 c 1
 1099 62 l 1
 1258 811 l 1
1780 1184 m 0
 1782 1195.33333333 1783 1206.33333333 1783 1217 c 0
 1783 1243 1775.66666667 1265.66666667 1761 1285 c 0
 1739.66666667 1313 1708.33333333 1327 1667 1327 c 1
 1630.33333333 1319.66666667 1598.16666667 1302.83333333 1570.5 1276.5 c 128
 1542.83333333 1250.16666667 1525 1218.66666667 1517 1182 c 0
 1515 1172 1514 1162 1514 1152 c 0
 1514 1129.33333333 1520.66666667 1108.33333333 1534 1089 c 0
 1554 1062.33333333 1581.33333333 1049 1616 1049 c 0
 1653.33333333 1049 1687.66666667 1062.33333333 1719 1089 c 0
 1751.66666667 1114.33333333 1772 1146 1780 1184 c 0
EndSplineSet
EndChar

StartChar: u0B99_u0BC1
Encoding: 63 -1 63
Width: 1434
Flags: HW
AnchorPoint: "V" 864 932 basechar 0
AnchorPoint: "N" 864 0 basechar 0
LayerCount: 2
Fore
SplineSet
1170 -277 m 1
 1027 -277 l 1
 1086 0 l 1
 307 0 l 1
 320 62 l 1
 558 62 l 1
 616 82.6666666667 663.666666667 118.333333333 701 169 c 0
 719.666666667 193 735.666666667 219.666666667 749 249 c 128
 762.333333333 278.333333333 772.333333333 308.666666667 779 340 c 0
 783 360 785 378 785 394 c 0
 785 424 777.666666667 448.333333333 763 467 c 0
 741.666666667 497 712 512 674 512 c 0
 650.666666667 512 627.666666667 505 605 491 c 128
 582.333333333 477 564.666666667 456.666666667 552 430 c 1
 518 266 l 1
 364 266 l 1
 488 850 l 1
 253 850 l 1
 72 0 l 1
 0 0 l 1
 196 922 l 1
 862 922 l 1
 847 850 l 1
 642 850 l 1
 577 547 l 1
 618.333333333 588.333333333 669 609 729 609 c 0
 769.666666667 609 806.833333333 598.5 840.5 577.5 c 128
 874.166666667 556.5 899.333333333 524.333333333 916 481 c 0
 924.666666667 457.666666667 929 431 929 401 c 0
 929 381.666666667 926.333333333 358.666666667 921 332 c 0
 905.666666667 262.666666667 880.333333333 205.333333333 845 160 c 128
 809.666666667 114.666666667 767.333333333 82 718 62 c 1
 1099 62 l 1
 1282 922 l 1
 1425 922 l 1
 1170 -277 l 1
EndSplineSet
EndChar

StartChar: u0B99_u0BC2
Encoding: 64 -1 64
Width: 1895
Flags: HW
AnchorPoint: "V" 864 932 basechar 0
AnchorPoint: "N" 864 0 basechar 0
LayerCount: 2
Fore
SplineSet
1580 209 m 0
 1582.66666667 219 1584.66666667 231.166666667 1586 245.5 c 128
 1587.33333333 259.833333333 1588 273 1588 285 c 0
 1588 319 1583.33333333 349.666666667 1574 377 c 0
 1556.66666667 429 1515 455 1449 455 c 0
 1389.66666667 455 1344 433.666666667 1312 391 c 1
 1181 -226 l 1
 1038 -226 l 1
 1086 0 l 1
 307 0 l 1
 320 62 l 1
 558 62 l 1
 616 82.6666666667 663.666666667 118.333333333 701 169 c 0
 719.666666667 193 735.666666667 219.666666667 749 249 c 128
 762.333333333 278.333333333 772.333333333 308.666666667 779 340 c 0
 783 360 785 378 785 394 c 0
 785 424 777.666666667 448.333333333 763 467 c 0
 741.666666667 497 712 512 674 512 c 0
 650.666666667 512 627.666666667 505 605 491 c 128
 582.333333333 477 564.666666667 456.666666667 552 430 c 1
 518 266 l 1
 364 266 l 1
 488 850 l 1
 253 850 l 1
 72 0 l 1
 0 0 l 1
 196 922 l 1
 862 922 l 1
 847 850 l 1
 642 850 l 1
 577 547 l 1
 618.333333333 588.333333333 669 609 729 609 c 0
 769.666666667 609 806.833333333 598.5 840.5 577.5 c 128
 874.166666667 556.5 899.333333333 524.333333333 916 481 c 0
 924.666666667 457.666666667 929 431 929 401 c 0
 929 381.666666667 926.333333333 358.666666667 921 332 c 0
 905.666666667 262.666666667 880.333333333 205.333333333 845 160 c 128
 809.666666667 114.666666667 767.333333333 82 718 62 c 1
 1099 62 l 1
 1282 922 l 1
 1425 922 l 1
 1331 482 l 1
 1349 504 1373.66666667 521.333333333 1405 534 c 128
 1436.33333333 546.666666667 1469 553 1503 553 c 0
 1569 553 1621.33333333 536 1660 502 c 128
 1698.66666667 468 1724 424.666666667 1736 372 c 0
 1738.66666667 361.333333333 1740.66666667 348.833333333 1742 334.5 c 128
 1743.33333333 320.166666667 1744 306.333333333 1744 293 c 0
 1744 267 1741 240.333333333 1735 213 c 0
 1703.66666667 65 1644.5 -62.8333333333 1557.5 -170.5 c 128
 1470.5 -278.166666667 1352.83333333 -362 1204.5 -422 c 128
 1056.16666667 -482 878.666666667 -512 672 -512 c 0
 544 -512 449 -490.333333333 387 -447 c 0
 337.666666667 -413.666666667 313 -368.333333333 313 -311 c 0
 313 -303 313 -303 313 -296.5 c 128
 313 -292.166666667 314.666666667 -282 318 -266 c 0
 332 -202 361.166666667 -152.333333333 405.5 -117 c 128
 449.833333333 -81.6666666667 506 -64 574 -64 c 0
 643.333333333 -64 692.333333333 -82.6666666667 721 -120 c 0
 741.666666667 -145.333333333 752 -176.666666667 752 -214 c 0
 752 -222 751.666666667 -230.166666667 751 -238.5 c 128
 750.333333333 -246.833333333 749 -255.333333333 747 -264 c 0
 740.333333333 -296.666666667 724.666666667 -328.333333333 700 -359 c 128
 675.333333333 -389.666666667 646.666666667 -412.666666667 614 -428 c 1
 636 -438 661.666666667 -443 691 -443 c 0
 824.333333333 -443 944.333333333 -424.333333333 1051 -387 c 0
 1104.33333333 -368.333333333 1152.5 -347.166666667 1195.5 -323.5 c 128
 1238.5 -299.833333333 1278.66666667 -271.666666667 1316 -239 c 0
 1388.66666667 -177 1446.5 -107.833333333 1489.5 -31.5 c 128
 1532.5 44.8333333333 1562.66666667 125 1580 209 c 0
387 -262 m 0
 385 -273.333333333 384 -284.333333333 384 -295 c 0
 384 -321.666666667 391.333333333 -344.666666667 406 -364 c 0
 427.333333333 -392 458.666666667 -406 500 -406 c 1
 537.333333333 -398 569.333333333 -381 596 -355 c 128
 622.666666667 -329 640.666666667 -297.333333333 650 -260 c 0
 652 -248.666666667 653 -238.666666667 653 -230 c 0
 653 -205.333333333 646.333333333 -184 633 -166 c 0
 613.666666667 -140 586.333333333 -127 551 -127 c 0
 513.666666667 -127 479 -140.333333333 447 -167 c 128
 415 -193.666666667 395 -225.333333333 387 -262 c 0
EndSplineSet
EndChar

StartChar: u0B99_u0BCD
Encoding: 65 -1 65
Width: 1393
Flags: HW
AnchorPoint: "N" 864 0 basechar 0
LayerCount: 2
Fore
SplineSet
1229 0 m 1
 307 0 l 1
 320 62 l 1
 558 62 l 1
 616 82.6666666667 663.666666667 118.333333333 701 169 c 0
 719.666666667 193 735.666666667 219.666666667 749 249 c 128
 762.333333333 278.333333333 772.333333333 308.666666667 779 340 c 0
 783 360 785 378 785 394 c 0
 785 424 777.666666667 448.333333333 763 467 c 0
 741.666666667 497 712 512 674 512 c 0
 650.666666667 512 627.666666667 505 605 491 c 128
 582.333333333 477 564.666666667 456.666666667 552 430 c 1
 518 266 l 1
 364 266 l 1
 488 850 l 1
 253 850 l 1
 72 0 l 1
 0 0 l 1
 196 922 l 1
 862 922 l 1
 847 850 l 1
 642 850 l 1
 577 547 l 1
 618.333333333 588.333333333 669 609 729 609 c 0
 769.666666667 609 806.833333333 598.5 840.5 577.5 c 128
 874.166666667 556.5 899.333333333 524.333333333 916 481 c 0
 924.666666667 457.666666667 929 431 929 401 c 0
 929 381.666666667 926.333333333 358.666666667 921 332 c 0
 905.666666667 262.666666667 880.333333333 205.333333333 845 160 c 128
 809.666666667 114.666666667 767.333333333 82 718 62 c 1
 1099 62 l 1
 1282 922 l 1
 1425 922 l 1
 1229 0 l 1
980 1192 m 0
 974 1161.33333333 956.666666667 1134.16666667 928 1110.5 c 128
 899.333333333 1086.83333333 869.333333333 1075 838 1075 c 0
 807.333333333 1075 783 1086.66666667 765 1110 c 0
 751.666666667 1127.33333333 745 1147 745 1169 c 0
 745 1174 745 1174 745 1180 c 0
 746.333333333 1185.33333333 747 1189.33333333 747 1192 c 0
 753.666666667 1224 771.166666667 1251.5 799.5 1274.5 c 128
 827.833333333 1297.5 857.333333333 1309 888 1309 c 0
 920.666666667 1309 946 1297.33333333 964 1274 c 0
 970 1266.66666667 974.666666667 1258.16666667 978 1248.5 c 128
 981.333333333 1238.83333333 983 1229 983 1219 c 0
 983 1210.33333333 982 1201.33333333 980 1192 c 0
EndSplineSet
EndChar

StartChar: u0B99_u0BCD.alt
Encoding: 66 -1 66
Width: 1392
Flags: HW
AnchorPoint: "N" 864 0 basechar 0
LayerCount: 2
Fore
SplineSet
1228 0 m 1
 307 0 l 1
 319 61 l 1
 556 61 l 1
 614.666666667 82.3333333333 662.666666667 117.833333333 700 167.5 c 128
 737.333333333 217.166666667 762.666666667 274 776 338 c 0
 780 356.666666667 782 373.333333333 782 388 c 0
 782 426 771.5 455.5 750.5 476.5 c 128
 729.5 497.5 704 508 674 508 c 0
 648.666666667 508 625.166666667 501.666666667 603.5 489 c 128
 581.833333333 476.333333333 565 455.666666667 553 427 c 1
 519 264 l 1
 366 264 l 1
 488 847 l 1
 253 847 l 1
 73 -2 l 1
 2 -2 l 1
 198 919 l 1
 863 919 l 1
 847 848 l 1
 643 848 l 1
 580 545 l 1
 620.666666667 585.666666667 671 606 731 606 c 0
 785 606 831.333333333 588 870 552 c 128
 908.666666667 516 928 465.333333333 928 400 c 0
 928 380 928 380 928 360 c 1
 924 346.666666667 921.333333333 337.333333333 920 332 c 0
 905.333333333 261.333333333 880.333333333 203.5 845 158.5 c 128
 809.666666667 113.5 767.666666667 81.6666666667 719 63 c 1
 1099 63 l 1
 1283 923 l 1
 1426 923 l 1
 1228 0 l 1
982 1193 m 0
 983.333333333 1197 984 1201.33333333 984 1206 c 128
 984 1213 984 1213 984 1215 c 0
 984 1241.66666667 975.166666667 1263.83333333 957.5 1281.5 c 128
 939.833333333 1299.16666667 917.666666667 1308 891 1308 c 0
 859.666666667 1308 830.166666667 1296.5 802.5 1273.5 c 128
 774.833333333 1250.5 757.666666667 1223.33333333 751 1192 c 0
 749.666666667 1186.66666667 749 1178.66666667 749 1168 c 0
 749 1142.66666667 757.833333333 1121.16666667 775.5 1103.5 c 128
 793.166666667 1085.83333333 815.333333333 1077 842 1077 c 0
 872 1077 901.333333333 1088.5 930 1111.5 c 128
 958.666666667 1134.5 976 1161.66666667 982 1193 c 0
908 1385 m 0
 954 1385 991.333333333 1370.66666667 1020 1342 c 128
 1048.66666667 1313.33333333 1063 1276.66666667 1063 1232 c 0
 1063 1222.66666667 1061.66666667 1210 1059 1194 c 0
 1048.33333333 1141.33333333 1020.16666667 1096.33333333 974.5 1059 c 128
 928.833333333 1021.66666667 879.666666667 1003 827 1003 c 0
 781 1003 743.666666667 1017.33333333 715 1046 c 128
 686.333333333 1074.66666667 672 1111.33333333 672 1156 c 0
 672 1162.66666667 673.333333333 1175.33333333 676 1194 c 0
 686.666666667 1246.66666667 714.833333333 1291.66666667 760.5 1329 c 128
 806.166666667 1366.33333333 855.333333333 1385 908 1385 c 0
EndSplineSet
EndChar

StartChar: u0B95_u0BB7
Encoding: 67 -1 67
Width: 3062
Flags: HW
AnchorPoint: "V" 776 932 basechar 0
AnchorPoint: "N" 776 0 basechar 0
LayerCount: 2
Fore
SplineSet
2902 213 m 0
 2888.66666667 151.666666667 2860.16666667 100.833333333 2816.5 60.5 c 128
 2772.83333333 20.1666666667 2713.33333333 0 2638 0 c 2
 2509 0 l 1
 2415 -441 l 1
 2272 -441 l 1
 2366 0 l 1
 1491 0 l 1
 1635 120 1724 260 1758 420 c 0
 1766.66666667 461.333333333 1771 502 1771 542 c 0
 1771 578.666666667 1767.33333333 611.333333333 1760 640 c 0
 1744.66666667 705.333333333 1713.33333333 756.666666667 1666 794 c 128
 1618.66666667 831.333333333 1559.33333333 850 1488 850 c 0
 1424 850 1365.5 840 1312.5 820 c 128
 1259.5 800 1214.33333333 774 1177 742 c 128
 1139.66666667 710 1109 675.333333333 1085 638 c 128
 1061 600.666666667 1045 565.666666667 1037 533 c 1
 1250 533 l 2
 1393.33333333 533 1465 481 1465 377 c 0
 1465 357 1462.66666667 336.666666667 1458 316 c 0
 1438 223.333333333 1400.83333333 147.5 1346.5 88.5 c 128
 1292.16666667 29.5 1229.66666667 0 1159 0 c 0
 1003 0 925 88.6666666667 925 266 c 0
 925 296.666666667 926.666666667 326.833333333 930 356.5 c 128
 933.333333333 386.166666667 939.333333333 421 948 461 c 1
 745 461 l 1
 693 217 l 2
 685 179.666666667 661.333333333 144.5 622 111.5 c 128
 582.666666667 78.5 535 51.6666666667 479 31 c 128
 423 10.3333333333 369.333333333 0 318 0 c 0
 221.333333333 0 149.666666667 24.3333333333 103 73 c 0
 69.6666666667 106.333333333 53 152 53 210 c 0
 53 219.333333333 53.1666666667 229.666666667 53.5 241 c 128
 53.8333333333 252.333333333 56.3333333333 268.333333333 61 289 c 0
 71.6666666667 340.333333333 92.6666666667 384.666666667 124 422 c 128
 155.333333333 459.333333333 187.666666667 486.833333333 221 504.5 c 128
 254.333333333 522.166666667 280.666666667 531 300 531 c 1
 383 922 l 1
 1048 922 l 1
 1033 850 l 1
 828 850 l 1
 760 533 l 1
 969 533 l 1
 1014.33333333 655 1083.16666667 750.333333333 1175.5 819 c 128
 1267.83333333 887.666666667 1377.66666667 922 1505 922 c 0
 1592.33333333 922 1665.5 909.166666667 1724.5 883.5 c 128
 1783.5 857.833333333 1828.33333333 822.333333333 1859 777 c 0
 1874.33333333 755 1886.66666667 730.833333333 1896 704.5 c 128
 1905.33333333 678.166666667 1912 649.666666667 1916 619 c 0
 1918 601.666666667 1919 584.333333333 1919 567 c 0
 1919 545 1917.66666667 522.833333333 1915 500.5 c 128
 1912.33333333 478.166666667 1908.66666667 453.333333333 1904 426 c 0
 1874.66666667 293.333333333 1807 175.333333333 1701 72 c 1
 2381 72 l 1
 2450 393 l 1
 2244 433.666666667 2141 512 2141 628 c 0
 2141 640.666666667 2142.66666667 656 2146 674 c 0
 2163.33333333 752 2197.83333333 812.833333333 2249.5 856.5 c 128
 2301.16666667 900.166666667 2368.33333333 922 2451 922 c 0
 2533 922 2592.33333333 905.666666667 2629 873 c 0
 2657.66666667 848.333333333 2672 817.666666667 2672 781 c 0
 2672 772 2672 772 2672 764 c 0
 2670 756 2668.66666667 750 2668 746 c 2
 2604 447 l 1
 2805.33333333 409 2906 342 2906 246 c 0
 2906 240.666666667 2905.5 234.666666667 2904.5 228 c 128
 2903.5 221.333333333 2902.66666667 216.333333333 2902 213 c 0
2466 469 m 1
 2519 721 l 2
 2521 730.333333333 2522 739 2522 747 c 0
 2522 771.666666667 2513 792.666666667 2495 810 c 0
 2472.33333333 832.666666667 2436.33333333 844 2387 844 c 0
 2341.66666667 844 2303.5 829.166666667 2272.5 799.5 c 128
 2241.5 769.833333333 2220.33333333 728.666666667 2209 676 c 0
 2207 666 2206 656 2206 646 c 0
 2206 605.333333333 2227 571 2269 543 c 0
 2319.66666667 509.666666667 2385.33333333 485 2466 469 c 1
2818 221 m 0
 2819.33333333 229 2820 235 2820 239 c 0
 2820 269 2803 293.666666667 2769 313 c 0
 2725.66666667 335.666666667 2665 354.333333333 2587 369 c 1
 2524 72 l 1
 2655 72 l 2
 2743 72 2797.33333333 121.666666667 2818 221 c 0
1303 312 m 0
 1306.33333333 330 1308 345 1308 357 c 0
 1308 426.333333333 1261.66666667 461 1169 461 c 2
 1018 461 l 1
 1016.66666667 455.666666667 1013.66666667 439.333333333 1009 412 c 128
 1004.33333333 384.666666667 1000.66666667 360 998 338 c 128
 995.333333333 316 993.833333333 302.5 993.5 297.5 c 128
 993.166666667 292.5 993 283.333333333 993 270 c 0
 993 262 993.666666667 252.666666667 995 242 c 0
 1009 162.666666667 1051.33333333 123 1122 123 c 0
 1166 123 1204.33333333 141.333333333 1237 178 c 128
 1269.66666667 214.666666667 1291.66666667 259.333333333 1303 312 c 0
607 533 m 1
 675 850 l 1
 439 850 l 1
 371 533 l 1
 607 533 l 1
539 211 m 2
 592 461 l 1
 324 461 l 2
 305.333333333 461 282.333333333 454.833333333 255 442.5 c 128
 227.666666667 430.166666667 202.166666667 409.666666667 178.5 381 c 128
 154.833333333 352.333333333 138.666666667 315.666666667 130 271 c 0
 125.333333333 250.333333333 123 230.333333333 123 211 c 0
 123 118.333333333 185.333333333 72 310 72 c 0
 325.333333333 72 339.666666667 73.3333333333 353 76 c 128
 366.333333333 78.6666666667 382.666666667 84 402 92 c 0
 436 105.333333333 465.833333333 122.666666667 491.5 144 c 128
 517.166666667 165.333333333 533 187.666666667 539 211 c 2
EndSplineSet
EndChar

StartChar: u0B95_u0BB7_u0BBF
Encoding: 68 -1 68
Width: 3287
Flags: HW
AnchorPoint: "V" 776 932 basechar 0
AnchorPoint: "N" 776 0 basechar 0
LayerCount: 2
Fore
SplineSet
2466 469 m 1
 2519 721 l 2
 2521 730.333333333 2522 739 2522 747 c 0
 2522 771.666666667 2513 792.666666667 2495 810 c 0
 2472.33333333 832.666666667 2436.33333333 844 2387 844 c 0
 2341.66666667 844 2303.5 829.166666667 2272.5 799.5 c 128
 2241.5 769.833333333 2220.33333333 728.666666667 2209 676 c 0
 2207 666 2206 656 2206 646 c 0
 2206 605.333333333 2227 571 2269 543 c 0
 2319.66666667 509.666666667 2385.33333333 485 2466 469 c 1
2818 221 m 0
 2819.33333333 229 2820 235 2820 239 c 0
 2820 269 2803 293.666666667 2769 313 c 0
 2725.66666667 335.666666667 2665 354.333333333 2587 369 c 1
 2524 72 l 1
 2655 72 l 2
 2743 72 2797.33333333 121.666666667 2818 221 c 0
1303 312 m 0
 1306.33333333 330 1308 345 1308 357 c 0
 1308 426.333333333 1261.66666667 461 1169 461 c 2
 1018 461 l 1
 1016.66666667 455.666666667 1013.66666667 439.333333333 1009 412 c 128
 1004.33333333 384.666666667 1000.66666667 360 998 338 c 128
 995.333333333 316 993.833333333 302.5 993.5 297.5 c 128
 993.166666667 292.5 993 283.333333333 993 270 c 0
 993 262 993.666666667 252.666666667 995 242 c 0
 1009 162.666666667 1051.33333333 123 1122 123 c 0
 1166 123 1204.33333333 141.333333333 1237 178 c 128
 1269.66666667 214.666666667 1291.66666667 259.333333333 1303 312 c 0
607 533 m 1
 675 850 l 1
 439 850 l 1
 371 533 l 1
 607 533 l 1
539 211 m 2
 592 461 l 1
 324 461 l 2
 305.333333333 461 282.333333333 454.833333333 255 442.5 c 128
 227.666666667 430.166666667 202.166666667 409.666666667 178.5 381 c 128
 154.833333333 352.333333333 138.666666667 315.666666667 130 271 c 0
 125.333333333 250.333333333 123 230.333333333 123 211 c 0
 123 118.333333333 185.333333333 72 310 72 c 0
 325.333333333 72 339.666666667 73.3333333333 353 76 c 128
 366.333333333 78.6666666667 382.666666667 84 402 92 c 0
 436 105.333333333 465.833333333 122.666666667 491.5 144 c 128
 517.166666667 165.333333333 533 187.666666667 539 211 c 2
2480 922 m 1
 2474.66666667 933.333333333 2470.5 947 2467.5 963 c 128
 2464.5 979 2463 996.333333333 2463 1015 c 0
 2463 1057.66666667 2466.66666667 1097.66666667 2474 1135 c 0
 2486.66666667 1193.66666667 2506.5 1244.5 2533.5 1287.5 c 128
 2560.5 1330.5 2596 1367 2640 1397 c 0
 2727.33333333 1457 2839.66666667 1487 2977 1487 c 0
 3142.33333333 1487 3245.33333333 1447.33333333 3286 1368 c 0
 3311.33333333 1318.66666667 3324 1261.66666667 3324 1197 c 0
 3324 1156.33333333 3319 1113 3309 1067 c 2
 3082 0 l 1
 3021 0 l 1
 3247 1065 l 2
 3249.66666667 1075 3251.66666667 1086.66666667 3253 1100 c 128
 3254.33333333 1113.33333333 3255 1125.66666667 3255 1137 c 0
 3255 1163.66666667 3251.66666667 1187.33333333 3245 1208 c 0
 3232.33333333 1249.33333333 3201.66666667 1283 3153 1309 c 128
 3104.33333333 1335 3035.33333333 1348 2946 1348 c 0
 2714.66666667 1348 2578 1249.66666667 2536 1053 c 0
 2532 1035 2530 1018 2530 1002 c 0
 2530 968 2538.33333333 937.333333333 2555 910 c 1
 2599.66666667 898 2631.66666667 877 2651 847 c 0
 2664.33333333 827 2671 804 2671 778 c 0
 2671 768 2670 757.333333333 2668 746 c 2
 2604 447 l 1
 2805.33333333 409 2906 342 2906 246 c 0
 2906 240.666666667 2905.5 234.666666667 2904.5 228 c 128
 2903.5 221.333333333 2902.66666667 216.333333333 2902 213 c 0
 2888.66666667 151.666666667 2860.16666667 100.833333333 2816.5 60.5 c 128
 2772.83333333 20.1666666667 2713.33333333 0 2638 0 c 2
 2509 0 l 1
 2415 -441 l 1
 2272 -441 l 1
 2366 0 l 1
 1491 0 l 1
 1635 120 1724 260 1758 420 c 0
 1766.66666667 461.333333333 1771 502 1771 542 c 0
 1771 578.666666667 1767.33333333 611.333333333 1760 640 c 0
 1744.66666667 705.333333333 1713.33333333 756.666666667 1666 794 c 128
 1618.66666667 831.333333333 1559.33333333 850 1488 850 c 0
 1424 850 1365.5 840 1312.5 820 c 128
 1259.5 800 1214.33333333 774 1177 742 c 128
 1139.66666667 710 1109 675.333333333 1085 638 c 128
 1061 600.666666667 1045 565.666666667 1037 533 c 1
 1250 533 l 2
 1393.33333333 533 1465 481 1465 377 c 0
 1465 357 1462.66666667 336.666666667 1458 316 c 0
 1438 223.333333333 1400.83333333 147.5 1346.5 88.5 c 128
 1292.16666667 29.5 1229.66666667 0 1159 0 c 0
 1003 0 925 88.6666666667 925 266 c 0
 925 296.666666667 926.666666667 326.833333333 930 356.5 c 128
 933.333333333 386.166666667 939.333333333 421 948 461 c 1
 745 461 l 1
 693 217 l 2
 685 179.666666667 661.333333333 144.5 622 111.5 c 128
 582.666666667 78.5 535 51.6666666667 479 31 c 128
 423 10.3333333333 369.333333333 0 318 0 c 0
 221.333333333 0 149.666666667 24.3333333333 103 73 c 0
 69.6666666667 106.333333333 53 152 53 210 c 0
 53 219.333333333 53.1666666667 229.666666667 53.5 241 c 128
 53.8333333333 252.333333333 56.3333333333 268.333333333 61 289 c 0
 71.6666666667 340.333333333 92.6666666667 384.666666667 124 422 c 128
 155.333333333 459.333333333 187.666666667 486.833333333 221 504.5 c 128
 254.333333333 522.166666667 280.666666667 531 300 531 c 1
 383 922 l 1
 1048 922 l 1
 1033 850 l 1
 828 850 l 1
 760 533 l 1
 969 533 l 1
 1014.33333333 655 1083.16666667 750.333333333 1175.5 819 c 128
 1267.83333333 887.666666667 1377.66666667 922 1505 922 c 0
 1592.33333333 922 1665.5 909.166666667 1724.5 883.5 c 128
 1783.5 857.833333333 1828.33333333 822.333333333 1859 777 c 0
 1874.33333333 755 1886.66666667 730.833333333 1896 704.5 c 128
 1905.33333333 678.166666667 1912 649.666666667 1916 619 c 0
 1918 601.666666667 1919 584.333333333 1919 567 c 0
 1919 545 1917.66666667 522.833333333 1915 500.5 c 128
 1912.33333333 478.166666667 1908.66666667 453.333333333 1904 426 c 0
 1874.66666667 293.333333333 1807 175.333333333 1701 72 c 1
 2381 72 l 1
 2450 393 l 1
 2244 433.666666667 2141 512 2141 628 c 0
 2141 640.666666667 2142.66666667 656 2146 674 c 0
 2163.33333333 752 2197.83333333 812.833333333 2249.5 856.5 c 128
 2301.16666667 900.166666667 2368.33333333 922 2451 922 c 2
 2480 922 l 1
EndSplineSet
EndChar

StartChar: u0B95_u0BB7_u0BC0
Encoding: 69 -1 69
Width: 3062
Flags: HW
AnchorPoint: "V" 776 932 basechar 0
AnchorPoint: "N" 776 0 basechar 0
LayerCount: 2
Fore
SplineSet
2902 213 m 0
 2888.66666667 151.666666667 2860.16666667 100.833333333 2816.5 60.5 c 128
 2772.83333333 20.1666666667 2713.33333333 0 2638 0 c 2
 2509 0 l 1
 2415 -441 l 1
 2272 -441 l 1
 2366 0 l 1
 1491 0 l 1
 1635 120 1724 260 1758 420 c 0
 1766.66666667 461.333333333 1771 502 1771 542 c 0
 1771 578.666666667 1767.33333333 611.333333333 1760 640 c 0
 1744.66666667 705.333333333 1713.33333333 756.666666667 1666 794 c 128
 1618.66666667 831.333333333 1559.33333333 850 1488 850 c 0
 1424 850 1365.5 840 1312.5 820 c 128
 1259.5 800 1214.33333333 774 1177 742 c 128
 1139.66666667 710 1109 675.333333333 1085 638 c 128
 1061 600.666666667 1045 565.666666667 1037 533 c 1
 1250 533 l 2
 1393.33333333 533 1465 481 1465 377 c 0
 1465 357 1462.66666667 336.666666667 1458 316 c 0
 1438 223.333333333 1400.83333333 147.5 1346.5 88.5 c 128
 1292.16666667 29.5 1229.66666667 0 1159 0 c 0
 1003 0 925 88.6666666667 925 266 c 0
 925 296.666666667 926.666666667 326.833333333 930 356.5 c 128
 933.333333333 386.166666667 939.333333333 421 948 461 c 1
 745 461 l 1
 693 217 l 2
 685 179.666666667 661.333333333 144.5 622 111.5 c 128
 582.666666667 78.5 535 51.6666666667 479 31 c 128
 423 10.3333333333 369.333333333 0 318 0 c 0
 221.333333333 0 149.666666667 24.3333333333 103 73 c 0
 69.6666666667 106.333333333 53 152 53 210 c 0
 53 219.333333333 53.1666666667 229.666666667 53.5 241 c 128
 53.8333333333 252.333333333 56.3333333333 268.333333333 61 289 c 0
 71.6666666667 340.333333333 92.6666666667 384.666666667 124 422 c 128
 155.333333333 459.333333333 187.666666667 486.833333333 221 504.5 c 128
 254.333333333 522.166666667 280.666666667 531 300 531 c 1
 383 922 l 1
 1048 922 l 1
 1033 850 l 1
 828 850 l 1
 760 533 l 1
 969 533 l 1
 1014.33333333 655 1083.16666667 750.333333333 1175.5 819 c 128
 1267.83333333 887.666666667 1377.66666667 922 1505 922 c 0
 1592.33333333 922 1665.5 909.166666667 1724.5 883.5 c 128
 1783.5 857.833333333 1828.33333333 822.333333333 1859 777 c 0
 1874.33333333 755 1886.66666667 730.833333333 1896 704.5 c 128
 1905.33333333 678.166666667 1912 649.666666667 1916 619 c 0
 1918 601.666666667 1919 584.333333333 1919 567 c 0
 1919 545 1917.66666667 522.833333333 1915 500.5 c 128
 1912.33333333 478.166666667 1908.66666667 453.333333333 1904 426 c 0
 1874.66666667 293.333333333 1807 175.333333333 1701 72 c 1
 2381 72 l 1
 2450 393 l 1
 2244 433.666666667 2141 512 2141 628 c 0
 2141 640.666666667 2142.66666667 656 2146 674 c 0
 2162 747.333333333 2193.66666667 805.666666667 2241 849 c 0
 2267.66666667 872.333333333 2295.16666667 890 2323.5 902 c 128
 2351.83333333 914 2384 920 2420 920 c 1
 2393.33333333 948.666666667 2371.66666667 984 2355 1026 c 0
 2345.66666667 1050 2341 1077 2341 1107 c 0
 2341 1127.66666667 2342.66666667 1145.66666667 2346 1161 c 0
 2365.33333333 1250.33333333 2399.83333333 1322.83333333 2449.5 1378.5 c 128
 2499.16666667 1434.16666667 2555 1474.33333333 2617 1499 c 128
 2679 1523.66666667 2740 1536 2800 1536 c 0
 2901.33333333 1536 2986 1515 3054 1473 c 0
 3106 1441 3132 1391.66666667 3132 1325 c 0
 3132 1305.66666667 3129.33333333 1282.66666667 3124 1256 c 0
 3110.66666667 1192.66666667 3077.66666667 1139.83333333 3025 1097.5 c 128
 2972.33333333 1055.16666667 2911.33333333 1034 2842 1034 c 0
 2774.66666667 1034 2726 1053.66666667 2696 1093 c 0
 2674.66666667 1121.66666667 2664 1154 2664 1190 c 0
 2664 1202 2665.66666667 1216.33333333 2669 1233 c 0
 2677 1268.33333333 2692.33333333 1302.83333333 2715 1336.5 c 128
 2737.66666667 1370.16666667 2764 1394.33333333 2794 1409 c 1
 2768.66666667 1413 2744 1415 2720 1415 c 0
 2648.66666667 1415 2584.83333333 1386.5 2528.5 1329.5 c 128
 2472.16666667 1272.5 2436.33333333 1208.33333333 2421 1137 c 0
 2417 1117.66666667 2415 1099.33333333 2415 1082 c 0
 2415 1060.66666667 2418 1039.33333333 2424 1018 c 0
 2434.66666667 981.333333333 2452.66666667 949.333333333 2478 922 c 1
 2512.66666667 922 2542.66666667 917.333333333 2568 908 c 128
 2593.33333333 898.666666667 2614.66666667 885 2632 867 c 0
 2658 841 2671 811 2671 777 c 0
 2671 767.666666667 2670 757.333333333 2668 746 c 2
 2604 447 l 1
 2805.33333333 409 2906 342 2906 246 c 0
 2906 240.666666667 2905.5 234.666666667 2904.5 228 c 128
 2903.5 221.333333333 2902.66666667 216.333333333 2902 213 c 0
2998 1233 m 0
 2999.33333333 1237.66666667 3000.33333333 1243.33333333 3001 1250 c 128
 3001.66666667 1256.66666667 3002 1262.66666667 3002 1268 c 0
 3002 1293.33333333 2994.66666667 1315.66666667 2980 1335 c 0
 2960 1363 2928.66666667 1377 2886 1377 c 1
 2849.33333333 1370.33333333 2817.16666667 1353.5 2789.5 1326.5 c 128
 2761.83333333 1299.5 2744 1267.66666667 2736 1231 c 0
 2734 1221 2733 1211.33333333 2733 1202 c 0
 2733 1177.33333333 2739.66666667 1156 2753 1138 c 0
 2771.66666667 1111.33333333 2798.66666667 1098 2834 1098 c 0
 2870.66666667 1098 2905.16666667 1111.16666667 2937.5 1137.5 c 128
 2969.83333333 1163.83333333 2990 1195.66666667 2998 1233 c 0
2466 469 m 1
 2519 721 l 2
 2521 730.333333333 2522 739 2522 747 c 0
 2522 771.666666667 2513 792.666666667 2495 810 c 0
 2472.33333333 832.666666667 2436.33333333 844 2387 844 c 0
 2341.66666667 844 2303.5 829.166666667 2272.5 799.5 c 128
 2241.5 769.833333333 2220.33333333 728.666666667 2209 676 c 0
 2207 666 2206 656 2206 646 c 0
 2206 605.333333333 2227 571 2269 543 c 0
 2319.66666667 509.666666667 2385.33333333 485 2466 469 c 1
2818 221 m 0
 2819.33333333 229 2820 235 2820 239 c 0
 2820 269 2803 293.666666667 2769 313 c 0
 2725.66666667 335.666666667 2665 354.333333333 2587 369 c 1
 2524 72 l 1
 2655 72 l 2
 2743 72 2797.33333333 121.666666667 2818 221 c 0
1303 312 m 0
 1306.33333333 330 1308 345 1308 357 c 0
 1308 426.333333333 1261.66666667 461 1169 461 c 2
 1018 461 l 1
 1016.66666667 455.666666667 1013.66666667 439.333333333 1009 412 c 128
 1004.33333333 384.666666667 1000.66666667 360 998 338 c 128
 995.333333333 316 993.833333333 302.5 993.5 297.5 c 128
 993.166666667 292.5 993 283.333333333 993 270 c 0
 993 262 993.666666667 252.666666667 995 242 c 0
 1009 162.666666667 1051.33333333 123 1122 123 c 0
 1166 123 1204.33333333 141.333333333 1237 178 c 128
 1269.66666667 214.666666667 1291.66666667 259.333333333 1303 312 c 0
607 533 m 1
 675 850 l 1
 439 850 l 1
 371 533 l 1
 607 533 l 1
539 211 m 2
 592 461 l 1
 324 461 l 2
 305.333333333 461 282.333333333 454.833333333 255 442.5 c 128
 227.666666667 430.166666667 202.166666667 409.666666667 178.5 381 c 128
 154.833333333 352.333333333 138.666666667 315.666666667 130 271 c 0
 125.333333333 250.333333333 123 230.333333333 123 211 c 0
 123 118.333333333 185.333333333 72 310 72 c 0
 325.333333333 72 339.666666667 73.3333333333 353 76 c 128
 366.333333333 78.6666666667 382.666666667 84 402 92 c 0
 436 105.333333333 465.833333333 122.666666667 491.5 144 c 128
 517.166666667 165.333333333 533 187.666666667 539 211 c 2
EndSplineSet
EndChar

StartChar: u0B95_u0BB7_u0BCD
Encoding: 70 -1 70
Width: 3062
Flags: HW
AnchorPoint: "N" 776 0 basechar 0
LayerCount: 2
Fore
SplineSet
2902 213 m 0
 2888.66666667 151.666666667 2860.16666667 100.833333333 2816.5 60.5 c 128
 2772.83333333 20.1666666667 2713.33333333 0 2638 0 c 2
 2509 0 l 1
 2415 -441 l 1
 2272 -441 l 1
 2366 0 l 1
 1491 0 l 1
 1635 120 1724 260 1758 420 c 0
 1766.66666667 461.333333333 1771 502 1771 542 c 0
 1771 578.666666667 1767.33333333 611.333333333 1760 640 c 0
 1744.66666667 705.333333333 1713.33333333 756.666666667 1666 794 c 128
 1618.66666667 831.333333333 1559.33333333 850 1488 850 c 0
 1424 850 1365.5 840 1312.5 820 c 128
 1259.5 800 1214.33333333 774 1177 742 c 128
 1139.66666667 710 1109 675.333333333 1085 638 c 128
 1061 600.666666667 1045 565.666666667 1037 533 c 1
 1250 533 l 2
 1393.33333333 533 1465 481 1465 377 c 0
 1465 357 1462.66666667 336.666666667 1458 316 c 0
 1438 223.333333333 1400.83333333 147.5 1346.5 88.5 c 128
 1292.16666667 29.5 1229.66666667 0 1159 0 c 0
 1003 0 925 88.6666666667 925 266 c 0
 925 296.666666667 926.666666667 326.833333333 930 356.5 c 128
 933.333333333 386.166666667 939.333333333 421 948 461 c 1
 745 461 l 1
 693 217 l 2
 685 179.666666667 661.333333333 144.5 622 111.5 c 128
 582.666666667 78.5 535 51.6666666667 479 31 c 128
 423 10.3333333333 369.333333333 0 318 0 c 0
 221.333333333 0 149.666666667 24.3333333333 103 73 c 0
 69.6666666667 106.333333333 53 152 53 210 c 0
 53 219.333333333 53.1666666667 229.666666667 53.5 241 c 128
 53.8333333333 252.333333333 56.3333333333 268.333333333 61 289 c 0
 71.6666666667 340.333333333 92.6666666667 384.666666667 124 422 c 128
 155.333333333 459.333333333 187.666666667 486.833333333 221 504.5 c 128
 254.333333333 522.166666667 280.666666667 531 300 531 c 1
 383 922 l 1
 1048 922 l 1
 1033 850 l 1
 828 850 l 1
 760 533 l 1
 969 533 l 1
 1014.33333333 655 1083.16666667 750.333333333 1175.5 819 c 128
 1267.83333333 887.666666667 1377.66666667 922 1505 922 c 0
 1592.33333333 922 1665.5 909.166666667 1724.5 883.5 c 128
 1783.5 857.833333333 1828.33333333 822.333333333 1859 777 c 0
 1874.33333333 755 1886.66666667 730.833333333 1896 704.5 c 128
 1905.33333333 678.166666667 1912 649.666666667 1916 619 c 0
 1918 601.666666667 1919 584.333333333 1919 567 c 0
 1919 545 1917.66666667 522.833333333 1915 500.5 c 128
 1912.33333333 478.166666667 1908.66666667 453.333333333 1904 426 c 0
 1874.66666667 293.333333333 1807 175.333333333 1701 72 c 1
 2381 72 l 1
 2450 393 l 1
 2244 433.666666667 2141 512 2141 628 c 0
 2141 640.666666667 2142.66666667 656 2146 674 c 0
 2163.33333333 752 2197.83333333 812.833333333 2249.5 856.5 c 128
 2301.16666667 900.166666667 2368.33333333 922 2451 922 c 0
 2533 922 2592.33333333 905.666666667 2629 873 c 0
 2657.66666667 848.333333333 2672 817.666666667 2672 781 c 0
 2672 772 2672 772 2672 764 c 0
 2670 756 2668.66666667 750 2668 746 c 2
 2604 447 l 1
 2805.33333333 409 2906 342 2906 246 c 0
 2906 240.666666667 2905.5 234.666666667 2904.5 228 c 128
 2903.5 221.333333333 2902.66666667 216.333333333 2902 213 c 0
2466 469 m 1
 2519 721 l 2
 2521 730.333333333 2522 739 2522 747 c 0
 2522 771.666666667 2513 792.666666667 2495 810 c 0
 2472.33333333 832.666666667 2436.33333333 844 2387 844 c 0
 2341.66666667 844 2303.5 829.166666667 2272.5 799.5 c 128
 2241.5 769.833333333 2220.33333333 728.666666667 2209 676 c 0
 2207 666 2206 656 2206 646 c 0
 2206 605.333333333 2227 571 2269 543 c 0
 2319.66666667 509.666666667 2385.33333333 485 2466 469 c 1
2818 221 m 0
 2819.33333333 229 2820 235 2820 239 c 0
 2820 269 2803 293.666666667 2769 313 c 0
 2725.66666667 335.666666667 2665 354.333333333 2587 369 c 1
 2524 72 l 1
 2655 72 l 2
 2743 72 2797.33333333 121.666666667 2818 221 c 0
1303 312 m 0
 1306.33333333 330 1308 345 1308 357 c 0
 1308 426.333333333 1261.66666667 461 1169 461 c 2
 1018 461 l 1
 1016.66666667 455.666666667 1013.66666667 439.333333333 1009 412 c 128
 1004.33333333 384.666666667 1000.66666667 360 998 338 c 128
 995.333333333 316 993.833333333 302.5 993.5 297.5 c 128
 993.166666667 292.5 993 283.333333333 993 270 c 0
 993 262 993.666666667 252.666666667 995 242 c 0
 1009 162.666666667 1051.33333333 123 1122 123 c 0
 1166 123 1204.33333333 141.333333333 1237 178 c 128
 1269.66666667 214.666666667 1291.66666667 259.333333333 1303 312 c 0
607 533 m 1
 675 850 l 1
 439 850 l 1
 371 533 l 1
 607 533 l 1
539 211 m 2
 592 461 l 1
 324 461 l 2
 305.333333333 461 282.333333333 454.833333333 255 442.5 c 128
 227.666666667 430.166666667 202.166666667 409.666666667 178.5 381 c 128
 154.833333333 352.333333333 138.666666667 315.666666667 130 271 c 0
 125.333333333 250.333333333 123 230.333333333 123 211 c 0
 123 118.333333333 185.333333333 72 310 72 c 0
 325.333333333 72 339.666666667 73.3333333333 353 76 c 128
 366.333333333 78.6666666667 382.666666667 84 402 92 c 0
 436 105.333333333 465.833333333 122.666666667 491.5 144 c 128
 517.166666667 165.333333333 533 187.666666667 539 211 c 2
2076 1309 m 0
 2108.66666667 1309 2134 1297.33333333 2152 1274 c 0
 2158 1266.66666667 2162.66666667 1258.16666667 2166 1248.5 c 128
 2169.33333333 1238.83333333 2171 1229 2171 1219 c 0
 2171 1210.33333333 2170 1201.33333333 2168 1192 c 0
 2162 1161.33333333 2144.66666667 1134.16666667 2116 1110.5 c 128
 2087.33333333 1086.83333333 2057.33333333 1075 2026 1075 c 0
 1995.33333333 1075 1971 1086.33333333 1953 1109 c 0
 1939.66666667 1125.66666667 1933 1146.33333333 1933 1171 c 0
 1933 1175.66666667 1933.66666667 1182.66666667 1935 1192 c 0
 1941.66666667 1224 1958.83333333 1251.5 1986.5 1274.5 c 128
 2014.16666667 1297.5 2044 1309 2076 1309 c 0
EndSplineSet
EndChar

StartChar: u0B9A
Encoding: 71 2970 71
Width: 1065
Flags: HW
AnchorPoint: "V" 776 932 basechar 0
AnchorPoint: "N" 776 133.201 basechar 0
LayerCount: 2
Fore
SplineSet
950 461 m 1
 745 461 l 1
 693 217 l 2
 685 179.666666667 661.333333333 144.5 622 111.5 c 128
 582.666666667 78.5 535 51.6666666667 479 31 c 128
 423 10.3333333333 369.333333333 0 318 0 c 0
 221.333333333 0 149.666666667 24.3333333333 103 73 c 0
 69.6666666667 106.333333333 53 152 53 210 c 0
 53 219.333333333 53.1666666667 229.666666667 53.5 241 c 128
 53.8333333333 252.333333333 56.3333333333 268.333333333 61 289 c 0
 71.6666666667 340.333333333 92.6666666667 384.666666667 124 422 c 128
 155.333333333 459.333333333 187.666666667 486.833333333 221 504.5 c 128
 254.333333333 522.166666667 280.666666667 531 300 531 c 1
 383 922 l 1
 1048 922 l 1
 1033 850 l 1
 828 850 l 1
 760 533 l 1
 965 533 l 1
 950 461 l 1
607 533 m 1
 675 850 l 1
 439 850 l 1
 371 533 l 1
 607 533 l 1
539 211 m 2
 592 461 l 1
 324 461 l 2
 305.333333333 461 282.333333333 454.833333333 255 442.5 c 128
 227.666666667 430.166666667 202.166666667 409.666666667 178.5 381 c 128
 154.833333333 352.333333333 138.666666667 315.666666667 130 271 c 0
 125.333333333 250.333333333 123 230.333333333 123 211 c 0
 123 118.333333333 185.333333333 72 310 72 c 0
 325.333333333 72 339.666666667 73.3333333333 353 76 c 128
 366.333333333 78.6666666667 382.666666667 84 402 92 c 0
 436 105.333333333 465.833333333 122.666666667 491.5 144 c 128
 517.166666667 165.333333333 533 187.666666667 539 211 c 2
EndSplineSet
EndChar

StartChar: u0B9A_u0BBF
Encoding: 72 -1 72
Width: 1301
Flags: HW
AnchorPoint: "V" 776 1479.44 basechar 0
AnchorPoint: "N" 776 133.201 basechar 0
LayerCount: 2
Fore
SplineSet
1086 0 m 1
 1024 0 l 1
 1221 926 l 2
 1227 954 1230 981 1230 1007 c 0
 1230 1050.33333333 1220.66666667 1092.33333333 1202 1133 c 0
 1173.33333333 1195 1127.16666667 1243.5 1063.5 1278.5 c 128
 999.833333333 1313.5 925.333333333 1331 840 1331 c 0
 674 1331 543.333333333 1291.33333333 448 1212 c 128
 352.666666667 1132.66666667 291 1028.33333333 263 899 c 0
 254.333333333 857.666666667 250 815.333333333 250 772 c 0
 250 752.666666667 251 733.333333333 253 714 c 0
 259.666666667 654 278.333333333 606.666666667 309 572 c 1
 383 922 l 1
 1048 922 l 1
 1033 850 l 1
 828 850 l 1
 760 533 l 1
 965 533 l 1
 950 461 l 1
 745 461 l 1
 693 217 l 2
 685 179.666666667 661.333333333 144.5 622 111.5 c 128
 582.666666667 78.5 535 51.6666666667 479 31 c 128
 423 10.3333333333 369.333333333 0 318 0 c 0
 221.333333333 0 149.666666667 24.3333333333 103 73 c 0
 69.6666666667 106.333333333 53 152 53 210 c 0
 53 219.333333333 53.1666666667 229.666666667 53.5 241 c 128
 53.8333333333 252.333333333 56.3333333333 268.333333333 61 289 c 0
 73.6666666667 348.333333333 99.3333333333 398.333333333 138 439 c 0
 157.333333333 458.333333333 176.833333333 474.833333333 196.5 488.5 c 128
 216.166666667 502.166666667 236.333333333 512.666666667 257 520 c 1
 201 577.333333333 173 654.333333333 173 751 c 0
 173 794.333333333 178.333333333 840.333333333 189 889 c 0
 209.666666667 987.666666667 248.666666667 1083.33333333 306 1176 c 128
 363.333333333 1268.66666667 439.5 1343.33333333 534.5 1400 c 128
 629.5 1456.66666667 741.666666667 1485 871 1485 c 0
 984.333333333 1485 1075.5 1463.5 1144.5 1420.5 c 128
 1213.5 1377.5 1260 1312.66666667 1284 1226 c 0
 1294.66666667 1186 1300 1141.33333333 1300 1092 c 0
 1300 1038.66666667 1293.33333333 978.666666667 1280 912 c 2
 1086 0 l 1
607 533 m 1
 675 850 l 1
 439 850 l 1
 371 533 l 1
 607 533 l 1
539 211 m 2
 592 461 l 1
 324 461 l 2
 305.333333333 461 282.333333333 454.833333333 255 442.5 c 128
 227.666666667 430.166666667 202.166666667 409.666666667 178.5 381 c 128
 154.833333333 352.333333333 138.666666667 315.666666667 130 271 c 0
 125.333333333 250.333333333 123 230.333333333 123 211 c 0
 123 118.333333333 185.333333333 72 310 72 c 0
 325.333333333 72 339.666666667 73.3333333333 353 76 c 128
 366.333333333 78.6666666667 382.666666667 84 402 92 c 0
 436 105.333333333 465.833333333 122.666666667 491.5 144 c 128
 517.166666667 165.333333333 533 187.666666667 539 211 c 2
EndSplineSet
EndChar

StartChar: u0B9A_u0BC0
Encoding: 73 -1 73
Width: 1055
Flags: HW
AnchorPoint: "V" 776 1508.95 basechar 0
AnchorPoint: "N" 776 133.201 basechar 0
LayerCount: 2
Fore
SplineSet
1182 1233 m 0
 1184 1244.33333333 1185 1255 1185 1265 c 0
 1185 1291.66666667 1177.66666667 1314.66666667 1163 1334 c 0
 1141.66666667 1362.66666667 1110.33333333 1377 1069 1377 c 1
 1032.33333333 1370.33333333 1000 1353 972 1325 c 128
 944 1297 926.666666667 1265.66666667 920 1231 c 0
 918 1221 917 1211 917 1201 c 0
 917 1189 919.5 1175.16666667 924.5 1159.5 c 128
 929.5 1143.83333333 940.666666667 1129.33333333 958 1116 c 0
 975.333333333 1104 995.333333333 1098 1018 1098 c 0
 1054.66666667 1098 1088.83333333 1111.16666667 1120.5 1137.5 c 128
 1152.16666667 1163.83333333 1172.66666667 1195.66666667 1182 1233 c 0
607 533 m 1
 675 850 l 1
 439 850 l 1
 371 533 l 1
 607 533 l 1
539 211 m 2
 592 461 l 1
 324 461 l 2
 305.333333333 461 282.333333333 454.833333333 255 442.5 c 128
 227.666666667 430.166666667 202.166666667 409.666666667 178.5 381 c 128
 154.833333333 352.333333333 138.666666667 315.666666667 130 271 c 0
 125.333333333 250.333333333 123 230.333333333 123 211 c 0
 123 118.333333333 185.333333333 72 310 72 c 0
 325.333333333 72 339.666666667 73.3333333333 353 76 c 128
 366.333333333 78.6666666667 382.666666667 84 402 92 c 0
 436 105.333333333 465.833333333 122.666666667 491.5 144 c 128
 517.166666667 165.333333333 533 187.666666667 539 211 c 2
257 520 m 1
 201 577.333333333 173 654.333333333 173 751 c 0
 173 794.333333333 178.333333333 840.333333333 189 889 c 0
 209 983 243.5 1069.83333333 292.5 1149.5 c 128
 341.5 1229.16666667 401.833333333 1297.83333333 473.5 1355.5 c 128
 545.166666667 1413.16666667 624.666666667 1457.66666667 712 1489 c 0
 754.666666667 1504.33333333 798.833333333 1516 844.5 1524 c 128
 890.166666667 1532 936.666666667 1536 984 1536 c 0
 1085.33333333 1536 1170 1515 1238 1473 c 0
 1290 1441 1316 1391.33333333 1316 1324 c 0
 1316 1305.33333333 1313.33333333 1282.66666667 1308 1256 c 0
 1295.33333333 1193.33333333 1262.5 1140.66666667 1209.5 1098 c 128
 1156.5 1055.33333333 1095 1034 1025 1034 c 0
 959 1034 910.333333333 1053.66666667 879 1093 c 0
 857.666666667 1121.66666667 847 1154 847 1190 c 0
 847 1202 848.666666667 1216.33333333 852 1233 c 0
 860 1269 875.5 1303.5 898.5 1336.5 c 128
 921.5 1369.5 947.666666667 1393.66666667 977 1409 c 1
 951.666666667 1413 927 1415 903 1415 c 0
 798.333333333 1415 700.5 1389.33333333 609.5 1338 c 128
 518.5 1286.66666667 442.166666667 1220.66666667 380.5 1140 c 128
 318.833333333 1059.33333333 279.666666667 979 263 899 c 0
 254.333333333 857.666666667 250 815.333333333 250 772 c 0
 250 752.666666667 251 733.333333333 253 714 c 0
 259.666666667 654 278.333333333 606.666666667 309 572 c 1
 383 922 l 1
 1046 922 l 1
 1031 850 l 1
 828 850 l 1
 760 533 l 1
 963 533 l 1
 948 461 l 1
 745 461 l 1
 693 217 l 2
 685 179.666666667 661.333333333 144.5 622 111.5 c 128
 582.666666667 78.5 535 51.6666666667 479 31 c 128
 423 10.3333333333 369.333333333 0 318 0 c 0
 221.333333333 0 149.666666667 24.3333333333 103 73 c 0
 69.6666666667 106.333333333 53 152 53 210 c 0
 53 219.333333333 53.1666666667 229.666666667 53.5 241 c 128
 53.8333333333 252.333333333 56.3333333333 268.333333333 61 289 c 0
 73.6666666667 348.333333333 99.3333333333 398.333333333 138 439 c 0
 157.333333333 458.333333333 176.833333333 474.833333333 196.5 488.5 c 128
 216.166666667 502.166666667 236.333333333 512.666666667 257 520 c 1
EndSplineSet
EndChar

StartChar: u0B9A_u0BC1
Encoding: 74 -1 74
Width: 1393
Flags: HW
AnchorPoint: "V" 776 932 basechar 0
AnchorPoint: "N" 776 133.201 basechar 0
LayerCount: 2
Fore
SplineSet
607 533 m 1
 675 850 l 1
 439 850 l 1
 371 533 l 1
 607 533 l 1
539 211 m 2
 592 461 l 1
 324 461 l 2
 305.333333333 461 282.333333333 454.833333333 255 442.5 c 128
 227.666666667 430.166666667 202.166666667 409.666666667 178.5 381 c 128
 154.833333333 352.333333333 138.666666667 315.666666667 130 271 c 0
 125.333333333 250.333333333 123 230.333333333 123 211 c 0
 123 118.333333333 185.333333333 72 310 72 c 0
 325.333333333 72 339.666666667 73.3333333333 353 76 c 128
 366.333333333 78.6666666667 382.666666667 84 402 92 c 0
 436 105.333333333 465.833333333 122.666666667 491.5 144 c 128
 517.166666667 165.333333333 533 187.666666667 539 211 c 2
1004 0 m 1
 850 0 l 1
 948 461 l 1
 745 461 l 1
 693 217 l 2
 685 179.666666667 661.333333333 144.5 622 111.5 c 128
 582.666666667 78.5 535 51.6666666667 479 31 c 128
 423 10.3333333333 369.333333333 0 318 0 c 0
 221.333333333 0 149.666666667 24.3333333333 103 73 c 0
 69.6666666667 106.333333333 53 152 53 210 c 0
 53 219.333333333 53.1666666667 229.666666667 53.5 241 c 128
 53.8333333333 252.333333333 56.3333333333 268.333333333 61 289 c 0
 71.6666666667 340.333333333 92.6666666667 384.666666667 124 422 c 128
 155.333333333 459.333333333 187.666666667 486.833333333 221 504.5 c 128
 254.333333333 522.166666667 280.666666667 531 300 531 c 1
 383 922 l 1
 1048 922 l 1
 1033 850 l 1
 828 850 l 1
 760 533 l 1
 1301 533 l 1
 1286 461 l 1
 1102 461 l 1
 1004 0 l 1
EndSplineSet
EndChar

StartChar: u0B9A_u0BC2
Encoding: 75 -1 75
Width: 1587
Flags: HW
AnchorPoint: "V" 776 932 basechar 0
AnchorPoint: "N" 776 133.201 basechar 0
LayerCount: 2
Fore
SplineSet
607 533 m 1
 675 850 l 1
 439 850 l 1
 371 533 l 1
 607 533 l 1
539 211 m 2
 592 461 l 1
 324 461 l 2
 305.333333333 461 282.333333333 454.833333333 255 442.5 c 128
 227.666666667 430.166666667 202.166666667 409.666666667 178.5 381 c 128
 154.833333333 352.333333333 138.666666667 315.666666667 130 271 c 0
 125.333333333 250.333333333 123 230.333333333 123 211 c 0
 123 118.333333333 185.333333333 72 310 72 c 0
 325.333333333 72 339.666666667 73.3333333333 353 76 c 128
 366.333333333 78.6666666667 382.666666667 84 402 92 c 0
 436 105.333333333 465.833333333 122.666666667 491.5 144 c 128
 517.166666667 165.333333333 533 187.666666667 539 211 c 2
1004 0 m 1
 850 0 l 1
 948 461 l 1
 745 461 l 1
 693 217 l 2
 685 179.666666667 661.333333333 144.5 622 111.5 c 128
 582.666666667 78.5 535 51.6666666667 479 31 c 128
 423 10.3333333333 369.333333333 0 318 0 c 0
 221.333333333 0 149.666666667 24.3333333333 103 73 c 0
 69.6666666667 106.333333333 53 152 53 210 c 0
 53 219.333333333 53.1666666667 229.666666667 53.5 241 c 128
 53.8333333333 252.333333333 56.3333333333 268.333333333 61 289 c 0
 71.6666666667 340.333333333 92.6666666667 384.666666667 124 422 c 128
 155.333333333 459.333333333 187.666666667 486.833333333 221 504.5 c 128
 254.333333333 522.166666667 280.666666667 531 300 531 c 1
 383 922 l 1
 1048 922 l 1
 1033 850 l 1
 828 850 l 1
 760 533 l 1
 1301 533 l 1
 1286 461 l 1
 1102 461 l 1
 1072 322 l 1
 1084 334.666666667 1102.66666667 346 1128 356 c 128
 1153.33333333 366 1178.66666667 371 1204 371 c 0
 1273.33333333 371 1327.66666667 341 1367 281 c 0
 1390.33333333 244.333333333 1402 197.333333333 1402 140 c 0
 1402 108 1398 72.3333333333 1390 33 c 0
 1366.66666667 -74.3333333333 1317.83333333 -169 1243.5 -251 c 128
 1169.16666667 -333 1075.83333333 -397 963.5 -443 c 128
 851.166666667 -489 732.666666667 -512 608 -512 c 0
 491.333333333 -512 393.833333333 -501.833333333 315.5 -481.5 c 128
 237.166666667 -461.166666667 180.333333333 -431 145 -391 c 0
 118.333333333 -361.666666667 105 -327.333333333 105 -288 c 0
 105 -274 106.333333333 -260.666666667 109 -248 c 0
 121 -192 155.833333333 -148.666666667 213.5 -118 c 128
 271.166666667 -87.3333333333 336.333333333 -72 409 -72 c 0
 436.333333333 -72 462.166666667 -74 486.5 -78 c 128
 510.833333333 -82 534.666666667 -88.6666666667 558 -98 c 0
 604.666666667 -116.666666667 640.333333333 -140 665 -168 c 1
 636 -205 l 1
 612 -181 576.5 -161.666666667 529.5 -147 c 128
 482.5 -132.333333333 435 -125 387 -125 c 0
 330.333333333 -125 283.333333333 -135.5 246 -156.5 c 128
 208.666666667 -177.5 186 -206.666666667 178 -244 c 0
 176 -255.333333333 175 -265.666666667 175 -275 c 0
 175 -327 207 -366.333333333 271 -393 c 0
 349 -425 446 -441 562 -441 c 0
 673.333333333 -441 777 -419.166666667 873 -375.5 c 128
 969 -331.833333333 1049 -274 1113 -202 c 128
 1177 -130 1217.33333333 -54.3333333333 1234 25 c 0
 1242 61 1246 93 1246 121 c 0
 1246 158.333333333 1239 189 1225 213 c 0
 1200.33333333 255.666666667 1167.33333333 277 1126 277 c 0
 1099.33333333 277 1076.66666667 268.666666667 1058 252 c 1
 1004 0 l 1
EndSplineSet
EndChar

StartChar: u0B9A_u0BCD
Encoding: 76 -1 76
Width: 1065
Flags: HW
AnchorPoint: "N" 776 133.201 basechar 0
LayerCount: 2
Fore
SplineSet
950 461 m 1
 745 461 l 1
 693 217 l 2
 685 179.666666667 661.333333333 144.5 622 111.5 c 128
 582.666666667 78.5 535 51.6666666667 479 31 c 128
 423 10.3333333333 369.333333333 0 318 0 c 0
 221.333333333 0 149.666666667 24.3333333333 103 73 c 0
 69.6666666667 106.333333333 53 152 53 210 c 0
 53 219.333333333 53.1666666667 229.666666667 53.5 241 c 128
 53.8333333333 252.333333333 56.3333333333 268.333333333 61 289 c 0
 71.6666666667 340.333333333 92.6666666667 384.666666667 124 422 c 128
 155.333333333 459.333333333 187.666666667 486.833333333 221 504.5 c 128
 254.333333333 522.166666667 280.666666667 531 300 531 c 1
 383 922 l 1
 1048 922 l 1
 1033 850 l 1
 828 850 l 1
 760 533 l 1
 965 533 l 1
 950 461 l 1
607 533 m 1
 675 850 l 1
 439 850 l 1
 371 533 l 1
 607 533 l 1
539 211 m 2
 592 461 l 1
 324 461 l 2
 305.333333333 461 282.333333333 454.833333333 255 442.5 c 128
 227.666666667 430.166666667 202.166666667 409.666666667 178.5 381 c 128
 154.833333333 352.333333333 138.666666667 315.666666667 130 271 c 0
 125.333333333 250.333333333 123 230.333333333 123 211 c 0
 123 118.333333333 185.333333333 72 310 72 c 0
 325.333333333 72 339.666666667 73.3333333333 353 76 c 128
 366.333333333 78.6666666667 382.666666667 84 402 92 c 0
 436 105.333333333 465.833333333 122.666666667 491.5 144 c 128
 517.166666667 165.333333333 533 187.666666667 539 211 c 2
800 1309 m 0
 832.666666667 1309 858 1297.33333333 876 1274 c 0
 882 1266.66666667 886.666666667 1258.16666667 890 1248.5 c 128
 893.333333333 1238.83333333 895 1229 895 1219 c 0
 895 1210.33333333 894 1201.33333333 892 1192 c 0
 886 1161.33333333 868.666666667 1134.16666667 840 1110.5 c 128
 811.333333333 1086.83333333 781.333333333 1075 750 1075 c 0
 719.333333333 1075 695 1086.66666667 677 1110 c 0
 663.666666667 1127.33333333 657 1147 657 1169 c 0
 657 1174 657 1174 657 1180 c 0
 658.333333333 1185.33333333 659 1189.33333333 659 1192 c 0
 665.666666667 1224 683.166666667 1251.5 711.5 1274.5 c 128
 739.833333333 1297.5 769.333333333 1309 800 1309 c 0
EndSplineSet
EndChar

StartChar: u0B9C
Encoding: 77 2972 77
Width: 1331
Flags: HW
AnchorPoint: "V" 863.5 932 basechar 0
AnchorPoint: "N" 863.5 -328 basechar 0
LayerCount: 2
Fore
SplineSet
1254 598 m 0
 1238.66666667 527.333333333 1210.83333333 458.333333333 1170.5 391 c 128
 1130.16666667 323.666666667 1079 275.333333333 1017 246 c 128
 955 216.666666667 900.666666667 199.666666667 854 195 c 0
 787.333333333 187.666666667 737.333333333 182.833333333 704 180.5 c 128
 670.666666667 178.166666667 636.666666667 177 602 177 c 0
 543.333333333 177 493.666666667 173.666666667 453 167 c 128
 412.333333333 160.333333333 376 151.333333333 344 140 c 0
 250.666666667 106.666666667 193.666666667 41.3333333333 173 -56 c 0
 169.666666667 -70.6666666667 167 -85.6666666667 165 -101 c 128
 163 -116.333333333 162 -130.333333333 162 -143 c 0
 162 -225 199.666666667 -266 275 -266 c 0
 315 -266 350.333333333 -260.166666667 381 -248.5 c 128
 411.666666667 -236.833333333 439 -222 463 -204 c 128
 487 -186 511 -164.333333333 535 -139 c 2
 607 -66 l 1
 668 -2 l 2
 684 16 703.333333333 32.6666666667 726 48 c 0
 746.666666667 63.3333333333 773.166666667 76 805.5 86 c 128
 837.833333333 96 875.333333333 101 918 101 c 0
 988.666666667 101 1040.66666667 83.3333333333 1074 48 c 0
 1097.33333333 24 1109 -9 1109 -51 c 0
 1109 -64.3333333333 1107.33333333 -81 1104 -101 c 0
 1090 -166.333333333 1057.83333333 -220.5 1007.5 -263.5 c 128
 957.166666667 -306.5 891.666666667 -328 811 -328 c 0
 753 -328 707.666666667 -317.666666667 675 -297 c 1
 704 -244 l 1
 726 -252 760.666666667 -256 808 -256 c 0
 847.333333333 -256 879.5 -243.166666667 904.5 -217.5 c 128
 929.5 -191.833333333 946.666666667 -158.333333333 956 -117 c 0
 960.666666667 -96.3333333333 963 -77 963 -59 c 0
 963 -37 958.666666667 -20.6666666667 950 -10 c 0
 935.333333333 10.6666666667 902 21 850 21 c 0
 821.333333333 21 793.833333333 9.66666666667 767.5 -13 c 128
 741.166666667 -35.6666666667 702.333333333 -73 651 -125 c 0
 627.666666667 -149 606.666666667 -170.166666667 588 -188.5 c 128
 569.333333333 -206.833333333 551.333333333 -223.333333333 534 -238 c 0
 504 -265.333333333 467.333333333 -289.5 424 -310.5 c 128
 380.666666667 -331.5 334 -342 284 -342 c 0
 173.333333333 -342 98.3333333333 -318 59 -270 c 0
 32.3333333333 -238.666666667 19 -196.333333333 19 -143 c 0
 19 -120.333333333 22.3333333333 -91.3333333333 29 -56 c 0
 43.6666666667 14 69.6666666667 66.6666666667 107 102 c 128
 144.333333333 137.333333333 191.666666667 165.666666667 249 187 c 0
 326.333333333 214.333333333 407 232 491 240 c 2
 740 261 l 2
 822 268.333333333 886.166666667 282.166666667 932.5 302.5 c 128
 978.833333333 322.833333333 1017.83333333 367 1049.5 435 c 128
 1081.16666667 503 1102.66666667 563 1114 615 c 0
 1120 643 1123 669 1123 693 c 0
 1123 726.333333333 1116.66666667 756.666666667 1104 784 c 0
 1082 828 1040.66666667 850 980 850 c 0
 938.666666667 850 904 832.666666667 876 798 c 128
 848 763.333333333 830.666666667 729.666666667 824 697 c 2
 769 439 l 1
 626 439 l 1
 679 686 l 2
 681 695.333333333 682 704.666666667 682 714 c 0
 682 742.666666667 672.333333333 770 653 796 c 0
 629 832 583 850 515 850 c 0
 472.333333333 850 428.333333333 841 383 823 c 0
 360.333333333 814.333333333 340.333333333 804.5 323 793.5 c 128
 305.666666667 782.5 288.333333333 769 271 753 c 0
 241 725 222.333333333 694.666666667 215 662 c 1
 261 719.333333333 318.333333333 748 387 748 c 0
 424.333333333 748 456 738 482 718 c 0
 494.666666667 708.666666667 505.166666667 697.5 513.5 684.5 c 128
 521.833333333 671.5 528.5 656.666666667 533.5 640 c 128
 538.5 623.333333333 541 605 541 585 c 0
 541 568.333333333 539 550.333333333 535 531 c 0
 521 465 490.666666667 413.333333333 444 376 c 128
 397.333333333 338.666666667 341.666666667 320 277 320 c 0
 170.333333333 320 117 379.333333333 117 498 c 0
 117 534 122.166666667 576.5 132.5 625.5 c 128
 142.833333333 674.5 167.166666667 722.166666667 205.5 768.5 c 128
 243.833333333 814.833333333 293.666666667 852 355 880 c 128
 416.333333333 908 484.333333333 922 559 922 c 0
 703 922 782 883 796 805 c 1
 843.333333333 883 916.333333333 922 1015 922 c 0
 1115 922 1185.33333333 893.666666667 1226 837 c 0
 1252 799.666666667 1265 753.333333333 1265 698 c 0
 1265 684 1264 668.333333333 1262 651 c 128
 1260 633.666666667 1257.33333333 616 1254 598 c 0
383 628 m 0
 367 644 346.666666667 652 322 652 c 0
 275.333333333 652 233 627.333333333 195 578 c 1
 191 558 189 539.333333333 189 522 c 0
 189 497.333333333 193.333333333 476 202 458 c 0
 218 426 244 410 280 410 c 0
 312 410 339.166666667 422.5 361.5 447.5 c 128
 383.833333333 472.5 399 501.666666667 407 535 c 0
 408.333333333 543 409 550.333333333 409 557 c 0
 409 571 407 584.166666667 403 596.5 c 128
 399 608.833333333 392.333333333 619.333333333 383 628 c 0
EndSplineSet
EndChar

StartChar: u0B9C_u0BBF
Encoding: 78 -1 78
Width: 1598
Flags: HW
AnchorPoint: "V" 863.5 932 basechar 0
AnchorPoint: "N" 863.5 -328 basechar 0
LayerCount: 2
Fore
SplineSet
383 628 m 0
 367 644 346.666666667 652 322 652 c 0
 275.333333333 652 233 627.333333333 195 578 c 1
 191 558 189 539.333333333 189 522 c 0
 189 497.333333333 193.333333333 476 202 458 c 0
 218 426 244 410 280 410 c 0
 312 410 339.166666667 422.5 361.5 447.5 c 128
 383.833333333 472.5 399 501.666666667 407 535 c 0
 408.333333333 543 409 550.333333333 409 557 c 0
 409 571 407 584.166666667 403 596.5 c 128
 399 608.833333333 392.333333333 619.333333333 383 628 c 0
974 920 m 1
 961.333333333 948 955 983 955 1025 c 0
 955 1041.66666667 956 1058.66666667 958 1076 c 128
 960 1093.33333333 963.333333333 1113 968 1135 c 0
 990 1237 1036.66666667 1321.16666667 1108 1387.5 c 128
 1179.33333333 1453.83333333 1273 1487 1389 1487 c 0
 1477.66666667 1487 1540.66666667 1465.33333333 1578 1422 c 0
 1598 1399.33333333 1613.16666667 1375.16666667 1623.5 1349.5 c 128
 1633.83333333 1323.83333333 1639 1296 1639 1266 c 0
 1639 1232 1637.5 1199.33333333 1634.5 1168 c 128
 1631.5 1136.66666667 1626.66666667 1103 1620 1067 c 2
 1393 0 l 1
 1331 0 l 1
 1557 1065 l 2
 1563 1095 1566 1122.66666667 1566 1148 c 0
 1566 1192 1557 1231 1539 1265 c 0
 1509.66666667 1320.33333333 1449.33333333 1348 1358 1348 c 0
 1269.33333333 1348 1197.66666667 1322.66666667 1143 1272 c 128
 1088.33333333 1221.33333333 1051 1148.33333333 1031 1053 c 0
 1027 1035.66666667 1025 1019.33333333 1025 1004 c 0
 1025 974.666666667 1032 947.333333333 1046 922 c 1
 1090 922 1127.33333333 913.833333333 1158 897.5 c 128
 1188.66666667 881.166666667 1213.33333333 858 1232 828 c 0
 1254 792.666666667 1265 749.333333333 1265 698 c 0
 1265 684 1264 668.333333333 1262 651 c 128
 1260 633.666666667 1257.33333333 616 1254 598 c 0
 1238.66666667 527.333333333 1210.83333333 458.333333333 1170.5 391 c 128
 1130.16666667 323.666666667 1079 275.333333333 1017 246 c 128
 955 216.666666667 900.666666667 199.666666667 854 195 c 0
 787.333333333 187.666666667 737.333333333 182.833333333 704 180.5 c 128
 670.666666667 178.166666667 636.666666667 177 602 177 c 0
 543.333333333 177 493.666666667 173.666666667 453 167 c 128
 412.333333333 160.333333333 376 151.333333333 344 140 c 0
 250.666666667 106.666666667 193.666666667 41.3333333333 173 -56 c 0
 169.666666667 -70.6666666667 167 -85.6666666667 165 -101 c 128
 163 -116.333333333 162 -130.333333333 162 -143 c 0
 162 -225 199.666666667 -266 275 -266 c 0
 315 -266 350.333333333 -260.166666667 381 -248.5 c 128
 411.666666667 -236.833333333 439 -222 463 -204 c 128
 487 -186 511 -164.333333333 535 -139 c 2
 607 -66 l 1
 668 -2 l 2
 684 16 703.333333333 32.6666666667 726 48 c 0
 746.666666667 63.3333333333 773.166666667 76 805.5 86 c 128
 837.833333333 96 875.333333333 101 918 101 c 0
 988.666666667 101 1040.66666667 83.3333333333 1074 48 c 0
 1097.33333333 24 1109 -9 1109 -51 c 0
 1109 -64.3333333333 1107.33333333 -81 1104 -101 c 0
 1090 -166.333333333 1057.83333333 -220.5 1007.5 -263.5 c 128
 957.166666667 -306.5 891.666666667 -328 811 -328 c 0
 753 -328 707.666666667 -317.666666667 675 -297 c 1
 704 -244 l 1
 726 -252 760.666666667 -256 808 -256 c 0
 847.333333333 -256 879.5 -243.166666667 904.5 -217.5 c 128
 929.5 -191.833333333 946.666666667 -158.333333333 956 -117 c 0
 960.666666667 -96.3333333333 963 -77 963 -59 c 0
 963 -37 958.666666667 -20.6666666667 950 -10 c 0
 935.333333333 10.6666666667 902 21 850 21 c 0
 821.333333333 21 793.833333333 9.66666666667 767.5 -13 c 128
 741.166666667 -35.6666666667 702.333333333 -73 651 -125 c 0
 627.666666667 -149 606.666666667 -170.166666667 588 -188.5 c 128
 569.333333333 -206.833333333 551.333333333 -223.333333333 534 -238 c 0
 504 -265.333333333 467.333333333 -289.5 424 -310.5 c 128
 380.666666667 -331.5 334 -342 284 -342 c 0
 173.333333333 -342 98.3333333333 -318 59 -270 c 0
 32.3333333333 -238.666666667 19 -196.333333333 19 -143 c 0
 19 -120.333333333 22.3333333333 -91.3333333333 29 -56 c 0
 43.6666666667 14 69.6666666667 66.6666666667 107 102 c 128
 144.333333333 137.333333333 191.666666667 165.666666667 249 187 c 0
 326.333333333 214.333333333 407 232 491 240 c 2
 740 261 l 2
 822 268.333333333 886.166666667 282.166666667 932.5 302.5 c 128
 978.833333333 322.833333333 1017.83333333 367 1049.5 435 c 128
 1081.16666667 503 1102.66666667 563 1114 615 c 0
 1120 643 1123 669 1123 693 c 0
 1123 726.333333333 1116.66666667 756.666666667 1104 784 c 0
 1082 828 1040.66666667 850 980 850 c 0
 938.666666667 850 904 832.666666667 876 798 c 128
 848 763.333333333 830.666666667 729.666666667 824 697 c 2
 769 439 l 1
 626 439 l 1
 679 686 l 2
 681 695.333333333 682 704.666666667 682 714 c 0
 682 742.666666667 672.333333333 770 653 796 c 0
 629 832 583 850 515 850 c 0
 472.333333333 850 428.333333333 841 383 823 c 0
 360.333333333 814.333333333 340.333333333 804.5 323 793.5 c 128
 305.666666667 782.5 288.333333333 769 271 753 c 0
 241 725 222.333333333 694.666666667 215 662 c 1
 261 719.333333333 318.333333333 748 387 748 c 0
 424.333333333 748 456 738 482 718 c 0
 494.666666667 708.666666667 505.166666667 697.5 513.5 684.5 c 128
 521.833333333 671.5 528.5 656.666666667 533.5 640 c 128
 538.5 623.333333333 541 605 541 585 c 0
 541 568.333333333 539 550.333333333 535 531 c 0
 521 465 490.666666667 413.333333333 444 376 c 128
 397.333333333 338.666666667 341.666666667 320 277 320 c 0
 170.333333333 320 117 379.333333333 117 498 c 0
 117 534 122.166666667 576.5 132.5 625.5 c 128
 142.833333333 674.5 167.166666667 722.166666667 205.5 768.5 c 128
 243.833333333 814.833333333 293.666666667 852 355 880 c 128
 416.333333333 908 484.333333333 922 559 922 c 0
 703 922 782 883 796 805 c 1
 836 869.666666667 895.333333333 908 974 920 c 1
EndSplineSet
EndChar

StartChar: u0B9C_u0BC0
Encoding: 79 -1 79
Width: 1403
Flags: HW
AnchorPoint: "V" 863.5 932 basechar 0
AnchorPoint: "N" 863.5 -328 basechar 0
LayerCount: 2
Fore
SplineSet
383 628 m 0
 367 644 346.666666667 652 322 652 c 0
 275.333333333 652 233 627.333333333 195 578 c 1
 191 558 189 539.333333333 189 522 c 0
 189 497.333333333 193.333333333 476 202 458 c 0
 218 426 244 410 280 410 c 0
 312 410 339.166666667 422.5 361.5 447.5 c 128
 383.833333333 472.5 399 501.666666667 407 535 c 0
 408.333333333 543 409 550.333333333 409 557 c 0
 409 571 407 584.166666667 403 596.5 c 128
 399 608.833333333 392.333333333 619.333333333 383 628 c 0
1254 598 m 0
 1238.66666667 527.333333333 1210.83333333 458.333333333 1170.5 391 c 128
 1130.16666667 323.666666667 1079 275.333333333 1017 246 c 128
 955 216.666666667 900.666666667 199.666666667 854 195 c 0
 787.333333333 187.666666667 737.333333333 182.833333333 704 180.5 c 128
 670.666666667 178.166666667 636.666666667 177 602 177 c 0
 543.333333333 177 493.666666667 173.666666667 453 167 c 128
 412.333333333 160.333333333 376 151.333333333 344 140 c 0
 250.666666667 106.666666667 193.666666667 41.3333333333 173 -56 c 0
 169.666666667 -70.6666666667 167 -85.6666666667 165 -101 c 128
 163 -116.333333333 162 -130.333333333 162 -143 c 0
 162 -225 199.666666667 -266 275 -266 c 0
 315 -266 350.333333333 -260.166666667 381 -248.5 c 128
 411.666666667 -236.833333333 439 -222 463 -204 c 128
 487 -186 511 -164.333333333 535 -139 c 2
 607 -66 l 1
 668 -2 l 2
 684 16 703.333333333 32.6666666667 726 48 c 0
 746.666666667 63.3333333333 773.166666667 76 805.5 86 c 128
 837.833333333 96 875.333333333 101 918 101 c 0
 988.666666667 101 1040.66666667 83.3333333333 1074 48 c 0
 1097.33333333 24 1109 -9 1109 -51 c 0
 1109 -64.3333333333 1107.33333333 -81 1104 -101 c 0
 1090 -166.333333333 1057.83333333 -220.5 1007.5 -263.5 c 128
 957.166666667 -306.5 891.666666667 -328 811 -328 c 0
 753 -328 707.666666667 -317.666666667 675 -297 c 1
 704 -244 l 1
 726 -252 760.666666667 -256 808 -256 c 0
 847.333333333 -256 879.5 -243.166666667 904.5 -217.5 c 128
 929.5 -191.833333333 946.666666667 -158.333333333 956 -117 c 0
 960.666666667 -96.3333333333 963 -77 963 -59 c 0
 963 -37 958.666666667 -20.6666666667 950 -10 c 0
 935.333333333 10.6666666667 902 21 850 21 c 0
 821.333333333 21 793.833333333 9.66666666667 767.5 -13 c 128
 741.166666667 -35.6666666667 702.333333333 -73 651 -125 c 0
 627.666666667 -149 606.666666667 -170.166666667 588 -188.5 c 128
 569.333333333 -206.833333333 551.333333333 -223.333333333 534 -238 c 0
 504 -265.333333333 467.333333333 -289.5 424 -310.5 c 128
 380.666666667 -331.5 334 -342 284 -342 c 0
 173.333333333 -342 98.3333333333 -318 59 -270 c 0
 32.3333333333 -238.666666667 19 -196.333333333 19 -143 c 0
 19 -120.333333333 22.3333333333 -91.3333333333 29 -56 c 0
 43.6666666667 14 69.6666666667 66.6666666667 107 102 c 128
 144.333333333 137.333333333 191.666666667 165.666666667 249 187 c 0
 326.333333333 214.333333333 407 232 491 240 c 2
 740 261 l 2
 822 268.333333333 886.166666667 282.166666667 932.5 302.5 c 128
 978.833333333 322.833333333 1017.83333333 367 1049.5 435 c 128
 1081.16666667 503 1102.66666667 563 1114 615 c 0
 1120 643 1123 669 1123 693 c 0
 1123 726.333333333 1116.66666667 756.666666667 1104 784 c 0
 1082 828 1040.66666667 850 980 850 c 0
 938.666666667 850 904 832.666666667 876 798 c 128
 848 763.333333333 830.666666667 729.666666667 824 697 c 2
 769 439 l 1
 626 439 l 1
 679 686 l 2
 681 695.333333333 682 704.666666667 682 714 c 0
 682 742.666666667 672.333333333 770 653 796 c 0
 629 832 583 850 515 850 c 0
 472.333333333 850 428.333333333 841 383 823 c 0
 360.333333333 814.333333333 340.333333333 804.5 323 793.5 c 128
 305.666666667 782.5 288.333333333 769 271 753 c 0
 241 725 222.333333333 694.666666667 215 662 c 1
 261 719.333333333 318.333333333 748 387 748 c 0
 424.333333333 748 456 738 482 718 c 0
 494.666666667 708.666666667 505.166666667 697.5 513.5 684.5 c 128
 521.833333333 671.5 528.5 656.666666667 533.5 640 c 128
 538.5 623.333333333 541 605 541 585 c 0
 541 568.333333333 539 550.333333333 535 531 c 0
 521 465 490.666666667 413.333333333 444 376 c 128
 397.333333333 338.666666667 341.666666667 320 277 320 c 0
 170.333333333 320 117 379.333333333 117 498 c 0
 117 534 122.166666667 576.5 132.5 625.5 c 128
 142.833333333 674.5 167.166666667 722.166666667 205.5 768.5 c 128
 243.833333333 814.833333333 293.666666667 852 355 880 c 128
 416.333333333 908 484.333333333 922 559 922 c 0
 703 922 782 883 796 805 c 1
 818 841.666666667 844.833333333 870 876.5 890 c 128
 908.166666667 910 945 920 987 920 c 1
 959.666666667 948.666666667 937.666666667 984.333333333 921 1027 c 0
 916.333333333 1040.33333333 912.833333333 1053 910.5 1065 c 128
 908.166666667 1077 907 1090.66666667 907 1106 c 0
 907 1123.33333333 909 1141.66666667 913 1161 c 0
 932.333333333 1251 966.666666667 1323.66666667 1016 1379 c 128
 1065.33333333 1434.33333333 1121.16666667 1474.33333333 1183.5 1499 c 128
 1245.83333333 1523.66666667 1307 1536 1367 1536 c 0
 1468.33333333 1536 1553 1515 1621 1473 c 0
 1673 1441 1699 1391.33333333 1699 1324 c 0
 1699 1305.33333333 1696.33333333 1282.66666667 1691 1256 c 0
 1678.33333333 1193.33333333 1645.5 1140.66666667 1592.5 1098 c 128
 1539.5 1055.33333333 1478 1034 1408 1034 c 0
 1342 1034 1293.33333333 1053.66666667 1262 1093 c 0
 1240.66666667 1121.66666667 1230 1154 1230 1190 c 0
 1230 1202 1231.66666667 1216.33333333 1235 1233 c 0
 1243 1269 1258.5 1303.5 1281.5 1336.5 c 128
 1304.5 1369.5 1330.66666667 1393.66666667 1360 1409 c 1
 1334 1413 1309.33333333 1415 1286 1415 c 0
 1215.33333333 1415 1151.83333333 1386.5 1095.5 1329.5 c 128
 1039.16666667 1272.5 1003.33333333 1208.33333333 988 1137 c 0
 984 1117 982 1098 982 1080 c 0
 982 1058.66666667 985 1038 991 1018 c 0
 1001.66666667 980.666666667 1019.33333333 948.666666667 1044 922 c 1
 1088 922 1125.16666667 914 1155.5 898 c 128
 1185.83333333 882 1211 858.666666667 1231 828 c 0
 1253.66666667 792.666666667 1265 748.333333333 1265 695 c 0
 1265 677 1264.33333333 661.333333333 1263 648 c 128
 1261.66666667 634.666666667 1258.66666667 618 1254 598 c 0
1565 1233 m 0
 1567 1244.33333333 1568 1255 1568 1265 c 0
 1568 1291.66666667 1560.66666667 1314.66666667 1546 1334 c 0
 1524.66666667 1362.66666667 1493.33333333 1377 1452 1377 c 1
 1415.33333333 1370.33333333 1383 1353 1355 1325 c 128
 1327 1297 1309.66666667 1265.66666667 1303 1231 c 0
 1301 1221 1300 1211 1300 1201 c 0
 1300 1189 1302.5 1175.16666667 1307.5 1159.5 c 128
 1312.5 1143.83333333 1323.66666667 1129.33333333 1341 1116 c 0
 1358.33333333 1104 1378.33333333 1098 1401 1098 c 0
 1437.66666667 1098 1471.83333333 1111.16666667 1503.5 1137.5 c 128
 1535.16666667 1163.83333333 1555.66666667 1195.66666667 1565 1233 c 0
EndSplineSet
EndChar

StartChar: u0B9C_u0BCD
Encoding: 80 -1 80
Width: 1331
Flags: HW
AnchorPoint: "N" 863.5 -328 basechar 0
LayerCount: 2
Fore
SplineSet
1254 598 m 0
 1238.66666667 527.333333333 1210.83333333 458.333333333 1170.5 391 c 128
 1130.16666667 323.666666667 1079 275.333333333 1017 246 c 128
 955 216.666666667 900.666666667 199.666666667 854 195 c 0
 787.333333333 187.666666667 737.333333333 182.833333333 704 180.5 c 128
 670.666666667 178.166666667 636.666666667 177 602 177 c 0
 543.333333333 177 493.666666667 173.666666667 453 167 c 128
 412.333333333 160.333333333 376 151.333333333 344 140 c 0
 250.666666667 106.666666667 193.666666667 41.3333333333 173 -56 c 0
 169.666666667 -70.6666666667 167 -85.6666666667 165 -101 c 128
 163 -116.333333333 162 -130.333333333 162 -143 c 0
 162 -225 199.666666667 -266 275 -266 c 0
 315 -266 350.333333333 -260.166666667 381 -248.5 c 128
 411.666666667 -236.833333333 439 -222 463 -204 c 128
 487 -186 511 -164.333333333 535 -139 c 2
 607 -66 l 1
 668 -2 l 2
 684 16 703.333333333 32.6666666667 726 48 c 0
 746.666666667 63.3333333333 773.166666667 76 805.5 86 c 128
 837.833333333 96 875.333333333 101 918 101 c 0
 988.666666667 101 1040.66666667 83.3333333333 1074 48 c 0
 1097.33333333 24 1109 -9 1109 -51 c 0
 1109 -64.3333333333 1107.33333333 -81 1104 -101 c 0
 1090 -166.333333333 1057.83333333 -220.5 1007.5 -263.5 c 128
 957.166666667 -306.5 891.666666667 -328 811 -328 c 0
 753 -328 707.666666667 -317.666666667 675 -297 c 1
 704 -244 l 1
 726 -252 760.666666667 -256 808 -256 c 0
 847.333333333 -256 879.5 -243.166666667 904.5 -217.5 c 128
 929.5 -191.833333333 946.666666667 -158.333333333 956 -117 c 0
 960.666666667 -96.3333333333 963 -77 963 -59 c 0
 963 -37 958.666666667 -20.6666666667 950 -10 c 0
 935.333333333 10.6666666667 902 21 850 21 c 0
 821.333333333 21 793.833333333 9.66666666667 767.5 -13 c 128
 741.166666667 -35.6666666667 702.333333333 -73 651 -125 c 0
 627.666666667 -149 606.666666667 -170.166666667 588 -188.5 c 128
 569.333333333 -206.833333333 551.333333333 -223.333333333 534 -238 c 0
 504 -265.333333333 467.333333333 -289.5 424 -310.5 c 128
 380.666666667 -331.5 334 -342 284 -342 c 0
 173.333333333 -342 98.3333333333 -318 59 -270 c 0
 32.3333333333 -238.666666667 19 -196.333333333 19 -143 c 0
 19 -120.333333333 22.3333333333 -91.3333333333 29 -56 c 0
 43.6666666667 14 69.6666666667 66.6666666667 107 102 c 128
 144.333333333 137.333333333 191.666666667 165.666666667 249 187 c 0
 326.333333333 214.333333333 407 232 491 240 c 2
 740 261 l 2
 822 268.333333333 886.166666667 282.166666667 932.5 302.5 c 128
 978.833333333 322.833333333 1017.83333333 367 1049.5 435 c 128
 1081.16666667 503 1102.66666667 563 1114 615 c 0
 1120 643 1123 669 1123 693 c 0
 1123 726.333333333 1116.66666667 756.666666667 1104 784 c 0
 1082 828 1040.66666667 850 980 850 c 0
 938.666666667 850 904 832.666666667 876 798 c 128
 848 763.333333333 830.666666667 729.666666667 824 697 c 2
 769 439 l 1
 626 439 l 1
 679 686 l 2
 681 695.333333333 682 704.666666667 682 714 c 0
 682 742.666666667 672.333333333 770 653 796 c 0
 629 832 583 850 515 850 c 0
 472.333333333 850 428.333333333 841 383 823 c 0
 360.333333333 814.333333333 340.333333333 804.5 323 793.5 c 128
 305.666666667 782.5 288.333333333 769 271 753 c 0
 241 725 222.333333333 694.666666667 215 662 c 1
 261 719.333333333 318.333333333 748 387 748 c 0
 424.333333333 748 456 738 482 718 c 0
 494.666666667 708.666666667 505.166666667 697.5 513.5 684.5 c 128
 521.833333333 671.5 528.5 656.666666667 533.5 640 c 128
 538.5 623.333333333 541 605 541 585 c 0
 541 568.333333333 539 550.333333333 535 531 c 0
 521 465 490.666666667 413.333333333 444 376 c 128
 397.333333333 338.666666667 341.666666667 320 277 320 c 0
 170.333333333 320 117 379.333333333 117 498 c 0
 117 534 122.166666667 576.5 132.5 625.5 c 128
 142.833333333 674.5 167.166666667 722.166666667 205.5 768.5 c 128
 243.833333333 814.833333333 293.666666667 852 355 880 c 128
 416.333333333 908 484.333333333 922 559 922 c 0
 703 922 782 883 796 805 c 1
 843.333333333 883 916.333333333 922 1015 922 c 0
 1115 922 1185.33333333 893.666666667 1226 837 c 0
 1252 799.666666667 1265 753.333333333 1265 698 c 0
 1265 684 1264 668.333333333 1262 651 c 128
 1260 633.666666667 1257.33333333 616 1254 598 c 0
383 628 m 0
 367 644 346.666666667 652 322 652 c 0
 275.333333333 652 233 627.333333333 195 578 c 1
 191 558 189 539.333333333 189 522 c 0
 189 497.333333333 193.333333333 476 202 458 c 0
 218 426 244 410 280 410 c 0
 312 410 339.166666667 422.5 361.5 447.5 c 128
 383.833333333 472.5 399 501.666666667 407 535 c 0
 408.333333333 543 409 550.333333333 409 557 c 0
 409 571 407 584.166666667 403 596.5 c 128
 399 608.833333333 392.333333333 619.333333333 383 628 c 0
888 1309 m 0
 920 1309 945 1297.33333333 963 1274 c 0
 976.333333333 1256.66666667 983 1237.33333333 983 1216 c 0
 983 1208 982 1200 980 1192 c 0
 974 1162 956.666666667 1135 928 1111 c 128
 899.333333333 1087 869.333333333 1075 838 1075 c 0
 808 1075 783.333333333 1086.66666667 764 1110 c 0
 750.666666667 1127.33333333 744 1147 744 1169 c 0
 744 1174 744 1174 744 1180 c 0
 745.333333333 1185.33333333 746 1189.33333333 746 1192 c 0
 752.666666667 1223.33333333 770.333333333 1250.66666667 799 1274 c 128
 827.666666667 1297.33333333 857.333333333 1309 888 1309 c 0
EndSplineSet
EndChar

StartChar: u0B9E
Encoding: 81 2974 81
Width: 1813
Flags: HW
AnchorPoint: "V" 1181.5 932 basechar 0
AnchorPoint: "N" 1181.5 -371.77 basechar 0
LayerCount: 2
Fore
SplineSet
1653 213 m 0
 1635 127 1602.66666667 46 1556 -30 c 128
 1509.33333333 -106 1447.5 -172.166666667 1370.5 -228.5 c 128
 1293.5 -284.833333333 1199.5 -329.166666667 1088.5 -361.5 c 128
 977.5 -393.833333333 852 -410 712 -410 c 0
 587.333333333 -410 479 -393.833333333 387 -361.5 c 128
 295 -329.166666667 221.166666667 -282 165.5 -220 c 128
 109.833333333 -158 73 -82.3333333333 55 7 c 0
 48.3333333333 42.3333333333 45 81 45 123 c 0
 45 179 51.6666666667 240.333333333 65 307 c 0
 84.3333333333 395.666666667 110.666666667 478.666666667 144 556 c 0
 160.666666667 594.666666667 179.166666667 632.333333333 199.5 669 c 128
 219.833333333 705.666666667 241.5 739.666666667 264.5 771 c 128
 287.5 802.333333333 310.166666667 830 332.5 854 c 128
 354.833333333 878 379.666666667 900.666666667 407 922 c 1
 443 881 l 1
 369 819.666666667 305.666666667 737.666666667 253 635 c 128
 200.333333333 532.333333333 161.333333333 421 136 301 c 0
 125.333333333 252.333333333 120 204.333333333 120 157 c 0
 120 117 124 78.3333333333 132 41 c 0
 149.333333333 -38.3333333333 183.666666667 -106.166666667 235 -162.5 c 128
 286.333333333 -218.833333333 352.5 -262.166666667 433.5 -292.5 c 128
 514.5 -322.833333333 607 -338 711 -338 c 0
 866.333333333 -338 999.833333333 -312.333333333 1111.5 -261 c 128
 1223.16666667 -209.666666667 1310.5 -142.5 1373.5 -59.5 c 128
 1436.5 23.5 1478 113 1498 209 c 0
 1500.66666667 219.666666667 1502.66666667 231.833333333 1504 245.5 c 128
 1505.33333333 259.166666667 1506 272.333333333 1506 285 c 0
 1506 318.333333333 1501.33333333 348.666666667 1492 376 c 0
 1474.66666667 428.666666667 1433 455 1367 455 c 0
 1306.33333333 455 1260.66666667 433.666666667 1230 391 c 1
 1147 0 l 1
 994 0 l 1
 1175 850 l 1
 884 850 l 2
 799.333333333 850 724.666666667 832.833333333 660 798.5 c 128
 595.333333333 764.166666667 544.333333333 722.166666667 507 672.5 c 128
 469.666666667 622.833333333 444.333333333 572.666666667 431 522 c 1
 452.333333333 546.666666667 483.166666667 566.833333333 523.5 582.5 c 128
 563.833333333 598.166666667 605 606 647 606 c 0
 726.333333333 606 785.666666667 579 825 525 c 0
 849.666666667 489.666666667 862 446 862 394 c 0
 862 384.666666667 861.833333333 374.5 861.5 363.5 c 128
 861.166666667 352.5 858.666666667 336.666666667 854 316 c 0
 834 220 798.666666667 143.333333333 748 86 c 128
 697.333333333 28.6666666667 633 0 555 0 c 0
 457 0 389 37.3333333333 351 112 c 0
 329 155.333333333 318 208 318 270 c 0
 318 315.333333333 324 366.666666667 336 424 c 0
 358 524.666666667 394.666666667 612.333333333 446 687 c 128
 497.333333333 761.666666667 560.833333333 819.5 636.5 860.5 c 128
 712.166666667 901.5 793.333333333 922 880 922 c 2
 1548 922 l 1
 1533 850 l 1
 1328 850 l 1
 1249 482 l 1
 1267 504 1291.66666667 521.333333333 1323 534 c 128
 1354.33333333 546.666666667 1387 553 1421 553 c 0
 1487 553 1539.66666667 535.833333333 1579 501.5 c 128
 1618.33333333 467.166666667 1643.33333333 424 1654 372 c 0
 1656.66666667 361.333333333 1658.66666667 348.833333333 1660 334.5 c 128
 1661.33333333 320.166666667 1662 306.333333333 1662 293 c 0
 1662 267 1659 240.333333333 1653 213 c 0
699 312 m 0
 701.666666667 325.333333333 703.166666667 335 703.5 341 c 128
 703.833333333 347 704 351.666666667 704 355 c 0
 704 361.666666667 703.333333333 369.333333333 702 378 c 128
 700.666666667 386.666666667 699 395.333333333 697 404 c 0
 692.333333333 419.333333333 686.5 433.166666667 679.5 445.5 c 128
 672.5 457.833333333 664 468.666666667 654 478 c 0
 633.333333333 496.666666667 609 506 581 506 c 0
 541.666666667 506 506.333333333 495.333333333 475 474 c 128
 443.666666667 452.666666667 419 425 401 391 c 1
 393.666666667 357.666666667 390 324.333333333 390 291 c 0
 390 257 395 226.333333333 405 199 c 0
 425 148.333333333 462.666666667 123 518 123 c 0
 562 123 600.333333333 141.333333333 633 178 c 128
 665.666666667 214.666666667 687.666666667 259.333333333 699 312 c 0
EndSplineSet
EndChar

StartChar: u0B9E_u0BBF
Encoding: 82 -1 82
Width: 2007
Flags: HW
AnchorPoint: "V" 1181.5 932 basechar 0
AnchorPoint: "N" 1181.5 -371.77 basechar 0
LayerCount: 2
Fore
SplineSet
1802 0 m 1
 1741 0 l 1
 1967 1065 l 2
 1973.66666667 1094.33333333 1977 1123.33333333 1977 1152 c 0
 1977 1198 1966.66666667 1237.33333333 1946 1270 c 0
 1914 1322 1834.33333333 1348 1707 1348 c 0
 1489.66666667 1348 1360 1249.66666667 1318 1053 c 0
 1314 1035 1312 1018.33333333 1312 1003 c 0
 1312 973 1319 946 1333 922 c 1
 1548 922 l 1
 1533 850 l 1
 1328 850 l 1
 1256 514 l 1
 1268 525.333333333 1280.16666667 535.666666667 1292.5 545 c 128
 1304.83333333 554.333333333 1317 561.666666667 1329 567 c 0
 1357.66666667 581 1391.33333333 588 1430 588 c 0
 1452.66666667 588 1476.5 582.5 1501.5 571.5 c 128
 1526.5 560.5 1549 543 1569 519 c 0
 1597 485.666666667 1615.66666667 438 1625 376 c 0
 1627.66666667 358 1629 336.333333333 1629 311 c 0
 1629 265.666666667 1623 215.333333333 1611 160 c 0
 1594.33333333 81.3333333333 1562.83333333 7.66666666667 1516.5 -61 c 128
 1470.16666667 -129.666666667 1408.16666667 -190.333333333 1330.5 -243 c 128
 1252.83333333 -295.666666667 1160 -336.666666667 1052 -366 c 128
 944 -395.333333333 823.666666667 -410 691 -410 c 0
 585.666666667 -410 489.666666667 -393.833333333 403 -361.5 c 128
 316.333333333 -329.166666667 243.5 -281.833333333 184.5 -219.5 c 128
 125.5 -157.166666667 85 -80.6666666667 63 10 c 0
 53 53.3333333333 48 98.6666666667 48 146 c 0
 48 195.333333333 53.6666666667 249 65 307 c 0
 84.3333333333 395.666666667 110.666666667 478.666666667 144 556 c 0
 160.666666667 594.666666667 179.166666667 632.333333333 199.5 669 c 128
 219.833333333 705.666666667 241.5 739.666666667 264.5 771 c 128
 287.5 802.333333333 310.166666667 830 332.5 854 c 128
 354.833333333 878 379.666666667 900.666666667 407 922 c 1
 443 881 l 1
 369 819.666666667 305.666666667 737.666666667 253 635 c 128
 200.333333333 532.333333333 161.333333333 421 136 301 c 0
 130.666666667 278.333333333 127 257 125 237 c 128
 123 217 122 195 122 171 c 0
 122 125.666666667 127.333333333 83 138 43 c 0
 159.333333333 -35 198 -103 254 -161 c 128
 310 -219 377 -263 455 -293 c 128
 533 -323 618.333333333 -338 711 -338 c 0
 786.333333333 -338 856 -332 920 -320 c 128
 984 -308 1043.66666667 -289.333333333 1099 -264 c 0
 1208.33333333 -214 1293 -150.166666667 1353 -72.5 c 128
 1413 5.16666666667 1452.33333333 88 1471 176 c 0
 1476.33333333 198.666666667 1480 218.833333333 1482 236.5 c 128
 1484 254.166666667 1485 273.333333333 1485 294 c 0
 1485 303.333333333 1484.83333333 313.333333333 1484.5 324 c 128
 1484.16666667 334.666666667 1481.66666667 348 1477 364 c 0
 1467.66666667 402 1452.66666667 431.5 1432 452.5 c 128
 1411.33333333 473.5 1385 484 1353 484 c 0
 1330.33333333 484 1309.5 479.333333333 1290.5 470 c 128
 1271.5 460.666666667 1254 447.333333333 1238 430 c 1
 1147 0 l 1
 994 0 l 1
 1175 850 l 1
 884 850 l 2
 799.333333333 850 724.666666667 832.833333333 660 798.5 c 128
 595.333333333 764.166666667 544.333333333 722.166666667 507 672.5 c 128
 469.666666667 622.833333333 444.333333333 572.666666667 431 522 c 1
 452.333333333 546.666666667 483.166666667 566.833333333 523.5 582.5 c 128
 563.833333333 598.166666667 605 606 647 606 c 0
 726.333333333 606 785.666666667 579 825 525 c 0
 849.666666667 489.666666667 862 446 862 394 c 0
 862 384.666666667 861.833333333 374.5 861.5 363.5 c 128
 861.166666667 352.5 858.666666667 336.666666667 854 316 c 0
 834 220 798.666666667 143.333333333 748 86 c 128
 697.333333333 28.6666666667 633 0 555 0 c 0
 457 0 389 37.3333333333 351 112 c 0
 329 155.333333333 318 208 318 270 c 0
 318 315.333333333 324 366.666666667 336 424 c 0
 358 524.666666667 394.666666667 612.333333333 446 687 c 128
 497.333333333 761.666666667 560.833333333 819.5 636.5 860.5 c 128
 712.166666667 901.5 793.333333333 922 880 922 c 2
 1259 922 l 1
 1249 956 1244 992.333333333 1244 1031 c 0
 1244 1046.33333333 1245 1063 1247 1081 c 128
 1249 1099 1251.66666667 1117 1255 1135 c 0
 1267 1191 1286 1240.83333333 1312 1284.5 c 128
 1338 1328.16666667 1371.5 1365.33333333 1412.5 1396 c 128
 1453.5 1426.66666667 1501.33333333 1449.5 1556 1464.5 c 128
 1610.66666667 1479.5 1671.33333333 1487 1738 1487 c 0
 1851.33333333 1487 1931.83333333 1465.16666667 1979.5 1421.5 c 128
 2027.16666667 1377.83333333 2051 1327.66666667 2051 1271 c 0
 2051 1241 2049.16666667 1208.83333333 2045.5 1174.5 c 128
 2041.83333333 1140.16666667 2036.33333333 1104.33333333 2029 1067 c 2
 1802 0 l 1
699 312 m 0
 701.666666667 325.333333333 703.166666667 335 703.5 341 c 128
 703.833333333 347 704 351.666666667 704 355 c 0
 704 361.666666667 703.333333333 369.333333333 702 378 c 128
 700.666666667 386.666666667 699 395.333333333 697 404 c 0
 692.333333333 419.333333333 686.5 433.166666667 679.5 445.5 c 128
 672.5 457.833333333 664 468.666666667 654 478 c 0
 633.333333333 496.666666667 609 506 581 506 c 0
 541.666666667 506 506.333333333 495.333333333 475 474 c 128
 443.666666667 452.666666667 419 425 401 391 c 1
 393.666666667 357.666666667 390 324.333333333 390 291 c 0
 390 257 395 226.333333333 405 199 c 0
 425 148.333333333 462.666666667 123 518 123 c 0
 562 123 600.333333333 141.333333333 633 178 c 128
 665.666666667 214.666666667 687.666666667 259.333333333 699 312 c 0
EndSplineSet
EndChar

StartChar: u0B9E_u0BC0
Encoding: 83 -1 83
Width: 1813
Flags: HW
AnchorPoint: "V" 1181.5 1315.89 basechar 0
AnchorPoint: "N" 1181.5 -371.77 basechar 0
LayerCount: 2
Fore
SplineSet
699 312 m 0
 701.666666667 325.333333333 703.166666667 335 703.5 341 c 128
 703.833333333 347 704 351.666666667 704 355 c 0
 704 361.666666667 703.333333333 369.333333333 702 378 c 128
 700.666666667 386.666666667 699 395.333333333 697 404 c 0
 692.333333333 419.333333333 686.5 433.166666667 679.5 445.5 c 128
 672.5 457.833333333 664 468.666666667 654 478 c 0
 633.333333333 496.666666667 609 506 581 506 c 0
 541.666666667 506 506.333333333 495.333333333 475 474 c 128
 443.666666667 452.666666667 419 425 401 391 c 1
 393.666666667 357.666666667 390 324.333333333 390 291 c 0
 390 257 395 226.333333333 405 199 c 0
 425 148.333333333 462.666666667 123 518 123 c 0
 562 123 600.333333333 141.333333333 633 178 c 128
 665.666666667 214.666666667 687.666666667 259.333333333 699 312 c 0
1776 1233 m 0
 1778 1244.33333333 1779 1255 1779 1265 c 0
 1779 1291.66666667 1771.66666667 1314.66666667 1757 1334 c 0
 1735.66666667 1362.66666667 1704.33333333 1377 1663 1377 c 1
 1626.33333333 1370.33333333 1594 1353 1566 1325 c 128
 1538 1297 1520.66666667 1265.66666667 1514 1231 c 0
 1512 1221 1511 1211 1511 1201 c 0
 1511 1189 1513.5 1175.16666667 1518.5 1159.5 c 128
 1523.5 1143.83333333 1534.66666667 1129.33333333 1552 1116 c 0
 1569.33333333 1104 1589.33333333 1098 1612 1098 c 0
 1648.66666667 1098 1682.83333333 1111.16666667 1714.5 1137.5 c 128
 1746.16666667 1163.83333333 1766.66666667 1195.66666667 1776 1233 c 0
1548 922 m 1
 1533 850 l 1
 1328 850 l 1
 1249 482 l 1
 1267 504 1291.66666667 521.333333333 1323 534 c 128
 1354.33333333 546.666666667 1387 553 1421 553 c 0
 1487 553 1539.66666667 535.833333333 1579 501.5 c 128
 1618.33333333 467.166666667 1643.33333333 424 1654 372 c 0
 1656.66666667 361.333333333 1658.66666667 348.833333333 1660 334.5 c 128
 1661.33333333 320.166666667 1662 306.333333333 1662 293 c 0
 1662 267 1659 240.333333333 1653 213 c 0
 1635 127 1602.66666667 46 1556 -30 c 128
 1509.33333333 -106 1447.5 -172.166666667 1370.5 -228.5 c 128
 1293.5 -284.833333333 1199.5 -329.166666667 1088.5 -361.5 c 128
 977.5 -393.833333333 852 -410 712 -410 c 0
 587.333333333 -410 479 -393.833333333 387 -361.5 c 128
 295 -329.166666667 221.166666667 -282 165.5 -220 c 128
 109.833333333 -158 73 -82.3333333333 55 7 c 0
 48.3333333333 42.3333333333 45 81 45 123 c 0
 45 179 51.6666666667 240.333333333 65 307 c 0
 84.3333333333 395.666666667 110.666666667 478.666666667 144 556 c 0
 160.666666667 594.666666667 179.166666667 632.333333333 199.5 669 c 128
 219.833333333 705.666666667 241.5 739.666666667 264.5 771 c 128
 287.5 802.333333333 310.166666667 830 332.5 854 c 128
 354.833333333 878 379.666666667 900.666666667 407 922 c 1
 443 881 l 1
 369 819.666666667 305.666666667 737.666666667 253 635 c 128
 200.333333333 532.333333333 161.333333333 421 136 301 c 0
 125.333333333 252.333333333 120 204.333333333 120 157 c 0
 120 117 124 78.3333333333 132 41 c 0
 149.333333333 -38.3333333333 183.666666667 -106.166666667 235 -162.5 c 128
 286.333333333 -218.833333333 352.5 -262.166666667 433.5 -292.5 c 128
 514.5 -322.833333333 607 -338 711 -338 c 0
 866.333333333 -338 999.833333333 -312.333333333 1111.5 -261 c 128
 1223.16666667 -209.666666667 1310.5 -142.5 1373.5 -59.5 c 128
 1436.5 23.5 1478 113 1498 209 c 0
 1500.66666667 219.666666667 1502.66666667 231.833333333 1504 245.5 c 128
 1505.33333333 259.166666667 1506 272.333333333 1506 285 c 0
 1506 318.333333333 1501.33333333 348.666666667 1492 376 c 0
 1474.66666667 428.666666667 1433 455 1367 455 c 0
 1306.33333333 455 1260.66666667 433.666666667 1230 391 c 1
 1147 0 l 1
 994 0 l 1
 1175 850 l 1
 884 850 l 2
 799.333333333 850 724.666666667 832.833333333 660 798.5 c 128
 595.333333333 764.166666667 544.333333333 722.166666667 507 672.5 c 128
 469.666666667 622.833333333 444.333333333 572.666666667 431 522 c 1
 452.333333333 546.666666667 483.166666667 566.833333333 523.5 582.5 c 128
 563.833333333 598.166666667 605 606 647 606 c 0
 726.333333333 606 785.666666667 579 825 525 c 0
 849.666666667 489.666666667 862 446 862 394 c 0
 862 384.666666667 861.833333333 374.5 861.5 363.5 c 128
 861.166666667 352.5 858.666666667 336.666666667 854 316 c 0
 834 220 798.666666667 143.333333333 748 86 c 128
 697.333333333 28.6666666667 633 0 555 0 c 0
 457 0 389 37.3333333333 351 112 c 0
 329 155.333333333 318 208 318 270 c 0
 318 315.333333333 324 366.666666667 336 424 c 0
 358 524.666666667 394.666666667 612.333333333 446 687 c 128
 497.333333333 761.666666667 560.833333333 819.5 636.5 860.5 c 128
 712.166666667 901.5 793.333333333 922 880 922 c 2
 1192 922 l 1
 1165.33333333 949.333333333 1144.66666667 984.333333333 1130 1027 c 0
 1122 1051 1118 1076.33333333 1118 1103 c 0
 1118 1121.66666667 1120 1141 1124 1161 c 0
 1143.33333333 1251 1177.66666667 1323.66666667 1227 1379 c 128
 1276.33333333 1434.33333333 1332.16666667 1474.33333333 1394.5 1499 c 128
 1456.83333333 1523.66666667 1518 1536 1578 1536 c 0
 1679.33333333 1536 1764 1515 1832 1473 c 0
 1884 1441 1910 1391.33333333 1910 1324 c 0
 1910 1305.33333333 1907.33333333 1282.66666667 1902 1256 c 0
 1889.33333333 1193.33333333 1856.5 1140.66666667 1803.5 1098 c 128
 1750.5 1055.33333333 1689 1034 1619 1034 c 0
 1553 1034 1504.33333333 1053.66666667 1473 1093 c 0
 1451.66666667 1121.66666667 1441 1154 1441 1190 c 0
 1441 1202 1442.66666667 1216.16666667 1446 1232.5 c 128
 1449.33333333 1248.83333333 1454.83333333 1265.66666667 1462.5 1283 c 128
 1470.16666667 1300.33333333 1480 1318 1492 1336 c 0
 1514.66666667 1370 1541 1394.33333333 1571 1409 c 1
 1545 1413 1520.33333333 1415 1497 1415 c 0
 1426.33333333 1415 1362.83333333 1386.5 1306.5 1329.5 c 128
 1250.16666667 1272.5 1214.33333333 1208.33333333 1199 1137 c 0
 1197 1125.66666667 1195.33333333 1115 1194 1105 c 128
 1192.66666667 1095 1192 1085 1192 1075 c 0
 1192 1055.66666667 1194.66666667 1036 1200 1016 c 0
 1211.33333333 976.666666667 1228.33333333 945.333333333 1251 922 c 1
 1548 922 l 1
EndSplineSet
EndChar

